<svg xmlns="http://www.w3.org/2000/svg" xmlns:xlink="http://www.w3.org/1999/xlink" viewBox="0,0,256,256" width="50px" height="50px" fill-rule="nonzero"><g fill="none" fill-rule="nonzero" stroke="none" stroke-width="none" stroke-linecap="butt" stroke-linejoin="none" stroke-miterlimit="10" stroke-dasharray="" stroke-dashoffset="0" font-family="none" font-weight="none" font-size="none" text-anchor="none" style="mix-blend-mode: normal"><path transform="scale(5.12,5.12)" d="M36,4c5.51133,0 10,4.48867 10,10v22c0,5.51133 -4.48867,10 -10,10h-22c-5.51133,0 -10,-4.48867 -10,-10v-22c0,-5.51133 4.48867,-10 10,-10z" id="strokeMainSVG" fill="#ffffff" stroke="#ffffff" stroke-width="6" stroke-linejoin="round"></path><g transform="scale(5.12,5.12)" fill="#000000" stroke="none" stroke-width="1" stroke-linejoin="miter"><path d="M14,4c-5.51133,0 -10,4.48867 -10,10v22c0,5.51133 4.48867,10 10,10h22c5.51133,0 10,-4.48867 10,-10v-22c0,-5.51133 -4.48867,-10 -10,-10zM14,6h22c4.43067,0 8,3.56933 8,8v22c0,4.43067 -3.56933,8 -8,8h-22c-4.43067,0 -8,-3.56933 -8,-8v-22c0,-4.43067 3.56933,-8 8,-8zM21.13281,12c-1.05293,0 -2.03126,0.55485 -2.57227,1.45703l-1.83594,3.05664c-0.18232,0.30197 -0.50646,0.48633 -0.85742,0.48633h-4.86719c-1.09306,0 -2,0.90694 -2,2v16c0,1.09306 0.90694,2 2,2h28c1.09306,0 2,-0.90694 2,-2v-16c0,-1.09306 -0.90694,-2 -2,-2h-4.86719c-0.35307,0 -0.67643,-0.18256 -0.85742,-0.48437c0,-0.00065 0,-0.0013 0,-0.00195l-1.83594,-3.05664c-0.54101,-0.90218 -1.51984,-1.45703 -2.57227,-1.45703zM12,14c-0.552,0 -1,0.448 -1,1v1h4v-1c0,-0.552 -0.448,-1 -1,-1zM21.13281,14h7.73438c0.35157,0 0.67643,0.18256 0.85742,0.48438c0,0.00065 0,0.0013 0,0.00195l1.83398,3.05664c0.54101,0.90213 1.52129,1.45703 2.57422,1.45703h4.86719v16h-28v-16h4.86719c1.05243,0 2.03041,-0.55398 2.57226,-1.45508c0.00065,-0.00065 0.0013,-0.0013 0.00195,-0.00195l1.83398,-3.05664c0,-0.00065 0,-0.0013 0,-0.00195c0.18094,-0.30172 0.50435,-0.48437 0.85742,-0.48437zM25,20c-3.85415,0 -7,3.14585 -7,7c0,3.85415 3.14585,7 7,7c3.85415,0 7,-3.14585 7,-7c0,-3.85415 -3.14585,-7 -7,-7zM34,20c-0.55228,0 -1,0.44772 -1,1c0,0.55228 0.44772,1 1,1c0.55228,0 1,-0.44772 1,-1c0,-0.55228 -0.44772,-1 -1,-1zM25,22c2.77327,0 5,2.22673 5,5c0,2.77327 -2.22673,5 -5,5c-2.77327,0 -5,-2.22673 -5,-5c0,-2.77327 2.22673,-5 5,-5z"></path></g></g><g fill="none" fill-rule="nonzero" stroke="none" stroke-width="none" stroke-linecap="butt" stroke-linejoin="none" stroke-miterlimit="10" stroke-dasharray="" stroke-dashoffset="0" font-family="none" font-weight="none" font-size="none" text-anchor="none" style="mix-blend-mode: normal"><path d="M203.27988,76.60524l-1.11,6.99h-29.1l0.99,-6.3l15.51,-14.55c3.18,-2.98 5.29,-5.4 6.33,-7.26c1.04,-1.86 1.43,-3.68 1.17,-5.46c-0.42,-2.48 -1.85,-3.75 -4.29,-3.81c-1.92,-0.04 -3.52667,0.63 -4.82,2.01c-1.28667,1.38 -2.07,3.19 -2.35,5.43l-8.46,0.03c0.16,-2.72 0.97,-5.19 2.43,-7.41c1.46,-2.22 3.40667,-3.94333 5.84,-5.17c2.42667,-1.23333 5.05,-1.84 7.87,-1.82c4.06,0.08 7.22,1.22 9.48,3.42c2.26,2.2 3.26,5.13 3,8.79c-0.32,4.12 -2.75,8.42 -7.29,12.9l-4.32,4.11l-8.94,8.04z" id="strokeMainSVG" fill="#ffffff" stroke="#ffffff" stroke-width="30.72" stroke-linejoin="round"></path><g fill="#000000" stroke="none" stroke-width="1" stroke-linejoin="miter"><path d="M203.27988,76.60524l-1.11,6.99h-29.1l0.99,-6.3l15.51,-14.55c3.18,-2.98 5.29,-5.4 6.33,-7.26c1.04,-1.86 1.43,-3.68 1.17,-5.46v0c-0.42,-2.48 -1.85,-3.75 -4.29,-3.81v0c-1.92,-0.04 -3.52667,0.63 -4.82,2.01c-1.28667,1.38 -2.07,3.19 -2.35,5.43v0l-8.46,0.03c0.16,-2.72 0.97,-5.19 2.43,-7.41c1.46,-2.22 3.40667,-3.94333 5.84,-5.17c2.42667,-1.23333 5.05,-1.84 7.87,-1.82v0c4.06,0.08 7.22,1.22 9.48,3.42c2.26,2.2 3.26,5.13 3,8.79v0c-0.32,4.12 -2.75,8.42 -7.29,12.9v0l-4.32,4.11l-8.94,8.04z"></path></g></g></svg>