<svg xmlns="http://www.w3.org/2000/svg" xmlns:xlink="http://www.w3.org/1999/xlink" viewBox="0,0,256,256" width="50px" height="50px" fill-rule="nonzero"><g fill="none" fill-rule="nonzero" stroke="none" stroke-width="none" stroke-linecap="butt" stroke-linejoin="none" stroke-miterlimit="10" stroke-dasharray="" stroke-dashoffset="0" font-family="none" font-weight="none" font-size="none" text-anchor="none" style="mix-blend-mode: normal"><path transform="scale(5.12,5.12)" d="M36,4c5.51133,0 10,4.48867 10,10v22c0,5.51133 -4.48867,10 -10,10h-22c-5.51133,0 -10,-4.48867 -10,-10v-22c0,-5.51133 4.48867,-10 10,-10z" id="strokeMainSVG" fill="#ffffff" stroke="#ffffff" stroke-width="6" stroke-linejoin="round"></path><g transform="scale(5.12,5.12)" fill="#000000" stroke="none" stroke-width="1" stroke-linejoin="miter"><path d="M14,4c-5.51133,0 -10,4.48867 -10,10v22c0,5.51133 4.48867,10 10,10h22c5.51133,0 10,-4.48867 10,-10v-22c0,-5.51133 -4.48867,-10 -10,-10zM14,6h22c4.43067,0 8,3.56933 8,8v22c0,4.43067 -3.56933,8 -8,8h-22c-4.43067,0 -8,-3.56933 -8,-8v-22c0,-4.43067 3.56933,-8 8,-8zM21.13281,12c-1.05293,0 -2.03126,0.55485 -2.57227,1.45703l-1.83594,3.05664c-0.18232,0.30197 -0.50646,0.48633 -0.85742,0.48633h-4.86719c-1.09306,0 -2,0.90694 -2,2v16c0,1.09306 0.90694,2 2,2h28c1.09306,0 2,-0.90694 2,-2v-16c0,-1.09306 -0.90694,-2 -2,-2h-4.86719c-0.35307,0 -0.67643,-0.18256 -0.85742,-0.48437c0,-0.00065 0,-0.0013 0,-0.00195l-1.83594,-3.05664c-0.54101,-0.90218 -1.51984,-1.45703 -2.57227,-1.45703zM12,14c-0.552,0 -1,0.448 -1,1v1h4v-1c0,-0.552 -0.448,-1 -1,-1zM21.13281,14h7.73438c0.35157,0 0.67643,0.18256 0.85742,0.48438c0,0.00065 0,0.0013 0,0.00195l1.83398,3.05664c0.54101,0.90213 1.52129,1.45703 2.57422,1.45703h4.86719v16h-28v-16h4.86719c1.05243,0 2.03041,-0.55398 2.57226,-1.45508c0.00065,-0.00065 0.0013,-0.0013 0.00195,-0.00195l1.83398,-3.05664c0,-0.00065 0,-0.0013 0,-0.00195c0.18094,-0.30172 0.50435,-0.48437 0.85742,-0.48437zM25,20c-3.85415,0 -7,3.14585 -7,7c0,3.85415 3.14585,7 7,7c3.85415,0 7,-3.14585 7,-7c0,-3.85415 -3.14585,-7 -7,-7zM34,20c-0.55228,0 -1,0.44772 -1,1c0,0.55228 0.44772,1 1,1c0.55228,0 1,-0.44772 1,-1c0,-0.55228 -0.44772,-1 -1,-1zM25,22c2.77327,0 5,2.22673 5,5c0,2.77327 -2.22673,5 -5,5c-2.77327,0 -5,-2.22673 -5,-5c0,-2.77327 2.22673,-5 5,-5z"></path></g></g><g fill="none" fill-rule="nonzero" stroke="none" stroke-width="none" stroke-linecap="butt" stroke-linejoin="none" stroke-miterlimit="10" stroke-dasharray="" stroke-dashoffset="0" font-family="none" font-weight="none" font-size="none" text-anchor="none" style="mix-blend-mode: normal"><path d="M184.17663,64.39314l1.08,-6.78l4.05,0.03c2.06,0 3.78333,-0.57 5.17,-1.71c1.39333,-1.14 2.2,-2.67 2.42,-4.59c0.2,-1.62 -0.11,-2.91667 -0.93,-3.89c-0.82,-0.96667 -2.05,-1.47 -3.69,-1.51c-1.64,-0.04 -3.04667,0.40333 -4.22,1.33c-1.16667,0.93333 -1.88,2.14 -2.14,3.62l-8.46,0.06c0.18,-3.52 1.69333,-6.40333 4.54,-8.65c2.85333,-2.25333 6.32,-3.36 10.4,-3.32c4.12,0.08 7.38,1.23 9.78,3.45c2.4,2.22 3.49,5.16 3.27,8.82c-0.28,4.16 -2.93,7.42 -7.95,9.78c1.96,0.94 3.39333,2.27667 4.3,4.01c0.91333,1.72667 1.31,3.65 1.19,5.77c-0.14,2.64 -0.95,4.96 -2.43,6.96c-1.48,2 -3.46,3.53333 -5.94,4.6c-2.48,1.07333 -5.16,1.58 -8.04,1.52c-3.9,-0.04 -7.08,-1.21 -9.54,-3.51c-2.46,-2.3 -3.67,-5.33 -3.63,-9.09h8.4c-0.04,1.62 0.41333,2.94333 1.36,3.97c0.95333,1.03333 2.28,1.57 3.98,1.61c1.96,0.04 3.64,-0.51667 5.04,-1.67c1.4,-1.14667 2.22,-2.65 2.46,-4.51c0.26,-2 -0.09667,-3.53 -1.07,-4.59c-0.96667,-1.06 -2.44,-1.62 -4.42,-1.68z" id="strokeMainSVG" fill="#ffffff" stroke="#ffffff" stroke-width="30.72" stroke-linejoin="round"></path><g fill="#000000" stroke="none" stroke-width="1" stroke-linejoin="miter"><path d="M184.17663,64.39314l1.08,-6.78l4.05,0.03c2.06,0 3.78333,-0.57 5.17,-1.71c1.39333,-1.14 2.2,-2.67 2.42,-4.59v0c0.2,-1.62 -0.11,-2.91667 -0.93,-3.89c-0.82,-0.96667 -2.05,-1.47 -3.69,-1.51c-1.64,-0.04 -3.04667,0.40333 -4.22,1.33c-1.16667,0.93333 -1.88,2.14 -2.14,3.62v0l-8.46,0.06c0.18,-3.52 1.69333,-6.40333 4.54,-8.65c2.85333,-2.25333 6.32,-3.36 10.4,-3.32v0c4.12,0.08 7.38,1.23 9.78,3.45c2.4,2.22 3.49,5.16 3.27,8.82v0c-0.28,4.16 -2.93,7.42 -7.95,9.78v0c1.96,0.94 3.39333,2.27667 4.3,4.01c0.91333,1.72667 1.31,3.65 1.19,5.77v0c-0.14,2.64 -0.95,4.96 -2.43,6.96c-1.48,2 -3.46,3.53333 -5.94,4.6c-2.48,1.07333 -5.16,1.58 -8.04,1.52v0c-3.9,-0.04 -7.08,-1.21 -9.54,-3.51c-2.46,-2.3 -3.67,-5.33 -3.63,-9.09v0h8.4c-0.04,1.62 0.41333,2.94333 1.36,3.97c0.95333,1.03333 2.28,1.57 3.98,1.61v0c1.96,0.04 3.64,-0.51667 5.04,-1.67c1.4,-1.14667 2.22,-2.65 2.46,-4.51v0c0.26,-2 -0.09667,-3.53 -1.07,-4.59c-0.96667,-1.06 -2.44,-1.62 -4.42,-1.68v0z"></path></g></g></svg>