<svg width="25" height="25" viewBox="0 0 25 25" fill="none" xmlns="http://www.w3.org/2000/svg">
<path d="M24.214 3.21125L12.8304 0.0473561C12.605 -0.0157854 12.3885 -0.0157854 12.1686 0.0473561L0.782717 3.21125C0.315485 3.34246 0 3.72724 0 4.16625V5.90166C0 9.80658 0 14.2333 2.14482 17.9617C3.1947 19.7879 4.57875 21.24 6.37726 22.3965C7.83829 23.3387 9.6081 24.121 12.1213 24.9398C12.2477 24.9803 12.3719 25 12.4983 25C12.6248 25 12.7512 24.9803 12.8787 24.9398C15.3896 24.1239 17.1618 23.3386 18.6194 22.3993C20.4179 21.243 21.8021 19.7908 22.8552 17.9617C25 14.2363 25 9.8086 25 5.90166V4.16625C24.9967 3.72722 24.6812 3.34246 24.214 3.21125ZM24.1239 5.90158C24.1239 9.72063 24.1239 14.0468 22.078 17.6025C20.0068 21.2015 16.9078 22.7977 12.5797 24.2048C12.5203 24.2245 12.4731 24.2245 12.4137 24.2048C8.08557 22.7959 4.98447 21.1997 2.91539 17.6025C0.872817 14.0438 0.872817 9.71962 0.872817 5.90158V4.16618C0.872817 4.06752 0.937679 3.98662 1.04212 3.95899L12.4314 0.792069C12.4566 0.784177 12.4764 0.782203 12.4984 0.782203C12.5204 0.782203 12.5435 0.787136 12.5721 0.795029L23.9557 3.95993C24.0623 3.99052 24.125 4.06648 24.125 4.16711L24.1239 5.90158ZM21.3887 5.52963L12.628 3.09277C12.5434 3.07008 12.4532 3.07008 12.3686 3.09277L3.6079 5.52963C3.42541 5.57994 3.30119 5.73188 3.30119 5.90355C3.30119 9.67436 3.38804 12.7711 4.49728 15.425C5.1162 16.9098 6.00558 18.1351 7.21596 19.1701C8.54175 20.3037 10.2216 21.1876 12.3555 21.8723C12.4038 21.8871 12.4511 21.895 12.5017 21.895C12.5522 21.895 12.6006 21.8871 12.6479 21.8723C14.7784 21.1876 16.4582 20.3036 17.784 19.1701C18.9944 18.1342 19.8837 16.9098 20.5027 15.425C21.6119 12.768 21.6988 9.67411 21.6988 5.90355C21.6955 5.73188 21.5712 5.58095 21.3887 5.52963ZM12.4983 21.0882C4.29512 18.388 4.17635 12.7437 4.1741 6.18983L12.4983 3.87332L20.8225 6.18983C20.8225 12.7437 20.7048 18.386 12.4983 21.0882ZM9.73454 7.03037C8.99469 7.69434 8.58683 8.57635 8.58683 9.51064V10.5012H8.44282C7.84039 10.5012 7.35337 10.9402 7.35337 11.4789V16.2196C7.35337 16.7602 7.84258 17.1973 8.44282 17.1973H16.5537C17.1561 17.1973 17.6453 16.7582 17.6453 16.2196V11.4781C17.6453 10.9375 17.1561 10.5004 16.5537 10.5004H16.4097V9.50989C16.4097 8.5756 16.0018 7.69359 15.262 7.02765C14.5221 6.36368 13.5393 5.99766 12.4982 5.99766C11.4571 6.00062 10.4744 6.3664 9.73454 7.03037ZM16.7737 11.4778V16.2185C16.7737 16.325 16.6726 16.4158 16.5538 16.4158H8.44298C8.32425 16.4158 8.22311 16.325 8.22311 16.2185V11.4778C8.22311 11.3713 8.32425 11.2805 8.44298 11.2805H16.5538C16.6715 11.2815 16.7737 11.3722 16.7737 11.4778ZM14.4178 10.5001H10.5788V9.50956C10.5788 9.05277 10.7789 8.62065 11.145 8.29507C11.5078 7.96949 11.9893 7.78698 12.4983 7.78698C13.0073 7.78698 13.4888 7.96654 13.8515 8.29507C14.2143 8.62065 14.4177 9.05277 14.4177 9.50956L14.4178 10.5001ZM15.5402 9.51054V10.5011H15.2896V9.51054C15.2896 8.84362 14.9994 8.21713 14.4706 7.74258C13.944 7.26804 13.2437 7.00461 12.5006 7.00461C11.7574 7.00461 11.0593 7.26506 10.5305 7.73963C10.0018 8.21417 9.71151 8.84362 9.71151 9.50759V10.4981H9.45866V9.50759C9.45866 8.78048 9.77637 8.0958 10.3513 7.58079C10.9285 7.06578 11.6914 6.77968 12.5016 6.77968C13.3097 6.77968 14.0715 7.0648 14.6487 7.58079C15.2225 8.10072 15.5402 8.7854 15.5402 9.51054ZM12.4983 12.2837C11.8958 12.2837 11.4088 12.7208 11.4088 13.2614C11.4088 13.66 11.6792 14.0043 12.0618 14.1553V15.0245C12.0618 15.2415 12.2564 15.4161 12.4983 15.4161C12.7401 15.4161 12.9347 15.2415 12.9347 15.0245V14.1553C13.3173 14.0033 13.5877 13.66 13.5877 13.2614C13.5877 12.7208 13.0974 12.2837 12.4983 12.2837ZM12.4983 13.0641C12.617 13.0641 12.7148 13.1529 12.7148 13.2585C12.7148 13.365 12.6159 13.4528 12.4983 13.4528C12.3795 13.4528 12.2784 13.364 12.2784 13.2585C12.2817 13.1549 12.3795 13.0641 12.4983 13.0641Z" fill="#F0F0F0"/>
</svg>
