<svg xmlns="http://www.w3.org/2000/svg" xmlns:xlink="http://www.w3.org/1999/xlink" viewBox="0,0,256,256" width="48px" height="48px" fill-rule="nonzero"><g fill="#ed6f30" fill-rule="nonzero" stroke="none" stroke-width="1" stroke-linecap="butt" stroke-linejoin="miter" stroke-miterlimit="10" stroke-dasharray="" stroke-dashoffset="0" font-family="none" font-weight="none" font-size="none" text-anchor="none" style="mix-blend-mode: normal"><g transform="scale(5.33333,5.33333)"><path d="M38.5,8h-29c-3.032,0 -5.5,2.467 -5.5,5.5v21c0,3.033 2.468,5.5 5.5,5.5h29c3.032,0 5.5,-2.467 5.5,-5.5v-21c0,-3.033 -2.468,-5.5 -5.5,-5.5zM23,29.522c0,0.829 -0.671,1.5 -1.5,1.5c-0.829,0 -1.5,-0.671 -1.5,-1.5v-2.5h-5.5c-0.829,0 -1.5,-0.671 -1.5,-1.5v-7c0,-0.829 0.671,-1.5 1.5,-1.5c0.829,0 1.5,0.671 1.5,1.5v5.5h4v-5.5c0,-0.829 0.671,-1.5 1.5,-1.5c0.829,0 1.5,0.671 1.5,1.5zM33.5,28c0.829,0 1.5,0.671 1.5,1.5c0,0.829 -0.671,1.5 -1.5,1.5h-7c-0.829,0 -1.5,-0.671 -1.5,-1.5c0,-3.779 2.592,-5.5 5,-5.5c1.103,0 2,-0.897 2,-2c0,-1.103 -0.897,-2 -2,-2c-1.463,0 -1.903,0.931 -2.015,1.712c-0.117,0.821 -0.878,1.391 -1.697,1.273c-0.82,-0.117 -1.39,-0.877 -1.273,-1.697c0.372,-2.605 2.329,-4.288 4.985,-4.288c2.757,0 5,2.243 5,5c0,2.757 -2.243,5 -5,5c-0.336,0 -1.218,0.093 -1.691,1z"></path></g></g></svg>