<svg xmlns="http://www.w3.org/2000/svg" xmlns:xlink="http://www.w3.org/1999/xlink" viewBox="0,0,256,256" width="78px" height="78px" fill-rule="nonzero"><g fill="#ed3030" fill-rule="nonzero" stroke="none" stroke-width="1" stroke-linecap="butt" stroke-linejoin="miter" stroke-miterlimit="10" stroke-dasharray="" stroke-dashoffset="0" font-family="none" font-weight="none" font-size="none" text-anchor="none" style="mix-blend-mode: normal"><g transform="scale(0.064,0.064)"><path d="M2288.469,2000l671.766,-671.766c38.515,-38.515 59.765,-89.781 59.765,-144.234c0,-54.453 -21.25,-105.719 -59.766,-144.234c-38.516,-38.515 -89.781,-59.766 -144.234,-59.766c-54.453,0 -105.719,21.25 -144.234,59.766l-671.766,671.765l-671.766,-671.766c-38.515,-38.515 -89.781,-59.765 -144.234,-59.765c-54.453,0 -105.719,21.25 -144.234,59.766c-38.515,38.516 -59.766,89.781 -59.766,144.234c0,54.453 21.25,105.719 59.766,144.234l671.765,671.766l-671.766,671.766c-38.515,38.515 -59.765,89.781 -59.765,144.234c0,54.453 21.25,105.719 59.766,144.234c38.582,38.516 89.781,59.766 144.234,59.766c54.453,0 105.652,-21.25 144.234,-59.766l671.766,-671.765l671.766,671.766c38.582,38.515 89.781,59.765 144.234,59.765c54.453,0 105.652,-21.25 144.234,-59.766c38.516,-38.515 59.766,-89.781 59.766,-144.234c0,-54.453 -21.25,-105.719 -59.766,-144.234z"></path></g></g></svg>