<svg xmlns="http://www.w3.org/2000/svg" xmlns:xlink="http://www.w3.org/1999/xlink" viewBox="0,0,256,256" width="64px" height="64px" fill-rule="nonzero"><g fill="none" fill-rule="nonzero" stroke="none" stroke-width="1" stroke-linecap="butt" stroke-linejoin="miter" stroke-miterlimit="10" stroke-dasharray="" stroke-dashoffset="0" font-family="none" font-weight="none" font-size="none" text-anchor="none" style="mix-blend-mode: normal"><g transform="scale(10.66667,10.66667)"><path d="M9,12c-3.86417,0.00441 -6.99559,3.13583 -7,7v2c0,0.55228 0.44772,1 1,1h12c0.55228,0 1,-0.44772 1,-1v-2c-0.00441,-3.86417 -3.13583,-6.99559 -7,-7zM14,20h-10v-1c0,-2.76142 2.23858,-5 5,-5c2.76142,0 5,2.23858 5,5z" fill="#ed6f30"></path><path d="M21,9h-2v-2c0,-0.55228 -0.44772,-1 -1,-1c-0.55228,0 -1,0.44772 -1,1v2h-2c-0.55228,0 -1,0.44772 -1,1c0,0.55228 0.44772,1 1,1h2v2c0,0.55228 0.44772,1 1,1c0.55228,0 1,-0.44772 1,-1v-2h2c0.55228,0 1,-0.44772 1,-1c0,-0.55228 -0.44772,-1 -1,-1z" fill="#20c997"></path><path d="M9,11c2.20914,0 4,-1.79086 4,-4v-1c0,-2.20914 -1.79086,-4 -4,-4c-2.20914,0 -4,1.79086 -4,4v1c0,2.20914 1.79086,4 4,4zM7,6c0,-1.10457 0.89543,-2 2,-2c1.10457,0 2,0.89543 2,2v1c0,1.10457 -0.89543,2 -2,2c-1.10457,0 -2,-0.89543 -2,-2z" fill="#ed6f30"></path></g></g></svg>