<svg xmlns="http://www.w3.org/2000/svg"  viewBox="0 0 24 24" width="24px" height="24px"><path d="M 11 2.25 C 8.37 2.25 6.25 4.37 6.25 7 C 6.25 9.62 8.37 11.75 11 11.75 C 13.62 11.75 15.75 9.62 15.75 7 C 15.75 4.37 13.62 2.25 11 2.25 z M 11 3.75 C 12.79 3.75 14.25 5.2 14.25 7 C 14.25 8.79 12.79 10.25 11 10.25 C 9.2 10.25 7.75 8.79 7.75 7 C 7.75 5.2 9.2 3.75 11 3.75 z M 18.5 7.75 C 18.08 7.75 17.75 8.08 17.75 8.5 L 17.75 10.25 L 16 10.25 C 15.58 10.25 15.25 10.58 15.25 11 C 15.25 11.41 15.58 11.75 16 11.75 L 17.75 11.75 L 17.75 13.5 C 17.75 13.91 18.08 14.25 18.5 14.25 C 18.91 14.25 19.25 13.91 19.25 13.5 L 19.25 11.75 L 21 11.75 C 21.41 11.75 21.75 11.41 21.75 11 C 21.75 10.58 21.41 10.25 21 10.25 L 19.25 10.25 L 19.25 8.5 C 19.25 8.08 18.91 7.75 18.5 7.75 z M 10.990234 12.230469 C 9.8302344 12.230469 8.7209375 12.449141 7.7109375 12.869141 C 7.3209375 13.019141 7.1407812 13.459609 7.3007812 13.849609 C 7.4507812 14.239609 7.8892969 14.419531 8.2792969 14.269531 C 9.1092969 13.929531 10.03 13.75 11 13.75 L 10.960938 13.710938 C 14.710937 13.710938 17.799688 16.550937 18.179688 20.210938 L 3.7597656 20.210938 C 3.8697656 19.170937 4.1992188 18.199844 4.6992188 17.339844 C 4.9092188 16.979844 4.7796875 16.520312 4.4296875 16.320312 C 4.0696875 16.110313 3.6101563 16.239609 3.4101562 16.599609 C 2.6601562 17.889609 2.2402344 19.380469 2.2402344 20.980469 C 2.2402344 21.390469 2.5702344 21.730469 2.9902344 21.730469 L 18.990234 21.730469 C 19.400234 21.730469 19.740234 21.390469 19.740234 20.980469 C 19.740234 16.140469 15.820234 12.230469 10.990234 12.230469 z"/></svg>