<svg xmlns="http://www.w3.org/2000/svg"  viewBox="0 0 30 30" width="30px" height="30px"><path fill="#f78f8f" d="M15,28.5C7.556,28.5,1.5,22.444,1.5,15S7.556,1.5,15,1.5S28.5,7.556,28.5,15S22.444,28.5,15,28.5z M8.702,23.419l0.51,0.338C10.935,24.897,12.936,25.5,15,25.5c5.79,0,10.5-4.71,10.5-10.5c0-2.064-0.603-4.066-1.743-5.788 l-0.338-0.51L8.702,23.419z M15,4.5C9.21,4.5,4.5,9.21,4.5,15c0,2.064,0.603,4.066,1.743,5.788l0.338,0.51L21.298,6.581 l-0.51-0.338C19.065,5.103,17.064,4.5,15,4.5z"/><path fill="#c74343" d="M15,2c7.168,0,13,5.832,13,13s-5.832,13-13,13S2,22.168,2,15S7.832,2,15,2 M6.502,22.084 l0.865-0.865L21.219,7.367l0.865-0.865l-1.02-0.676C19.26,4.631,17.163,4,15,4C8.935,4,4,8.935,4,15 c0,2.163,0.631,4.26,1.826,6.064L6.502,22.084 M15,26c6.065,0,11-4.935,11-11c0-2.163-0.631-4.26-1.826-6.064l-0.676-1.02 l-0.865,0.865L8.781,22.633l-0.865,0.865l1.02,0.676C10.74,25.369,12.837,26,15,26 M15,1C7.268,1,1,7.268,1,15 c0,7.732,6.268,14,14,14s14-6.268,14-14C29,7.268,22.732,1,15,1L15,1z M6.66,20.512C5.613,18.931,5,17.038,5,15 C5,9.477,9.477,5,15,5c2.038,0,3.931,0.613,5.512,1.66L6.66,20.512L6.66,20.512z M15,25c-2.038,0-3.931-0.613-5.512-1.66 L23.34,9.488C24.387,11.069,25,12.962,25,15C25,20.523,20.523,25,15,25L15,25z"/></svg>