<svg width="28" height="28" viewBox="0 0 28 28" fill="none" xmlns="http://www.w3.org/2000/svg">
<path d="M24.1164 10.9412L24.1164 4.05884C24.1164 2.3695 22.8228 1.00002 21.227 1.00004L3.88998 1.00016C2.29416 1.00017 1.00048 2.36967 1.00047 4.05901L1.00038 16.0283C1.00037 17.7177 2.29403 19.0871 3.88986 19.0871L6.1512 19.0871L6.15116 25.4707L12.1815 19.0871L12.5583 19.0871M20.0176 23.0103L23.7865 27L23.7865 23.0102L24.1163 23.0102C25.7121 23.0102 27.0058 21.6407 27.0058 19.9514L27.0059 14.7647C27.0059 13.0754 25.7122 11.7059 24.1164 11.7059L15.4479 11.706C13.8521 11.706 12.5584 13.0755 12.5584 14.7648L12.5583 19.9515C12.5583 21.6408 13.852 23.0103 15.4478 23.0103L20.0176 23.0103Z" stroke="#878787" stroke-width="2" stroke-linecap="round" stroke-linejoin="round"/>
</svg>
