<svg xmlns="http://www.w3.org/2000/svg" xmlns:xlink="http://www.w3.org/1999/xlink" viewBox="0,0,256,256" width="64px" height="64px" fill-rule="nonzero"><defs><linearGradient x1="19.5" y1="19.681" x2="19.5" y2="25.438" gradientUnits="userSpaceOnUse" id="color-1"><stop offset="0" stop-color="#ed6f30"></stop><stop offset="1" stop-color="#00ffff"></stop></linearGradient><linearGradient x1="32" y1="8.617" x2="32" y2="51.327" gradientUnits="userSpaceOnUse" id="color-2"><stop offset="0" stop-color="#ed6f30"></stop><stop offset="1" stop-color="#ed6f30"></stop></linearGradient><linearGradient x1="24.5" y1="8.617" x2="24.5" y2="51.327" gradientUnits="userSpaceOnUse" id="color-3"><stop offset="0" stop-color="#ed6f30"></stop><stop offset="1" stop-color="#ed6f30"></stop></linearGradient><linearGradient x1="21.5" y1="8.617" x2="21.5" y2="51.327" gradientUnits="userSpaceOnUse" id="color-4"><stop offset="0" stop-color="#ed6f30"></stop><stop offset="1" stop-color="#ed6f30"></stop></linearGradient><linearGradient x1="24.5" y1="8.617" x2="24.5" y2="51.327" gradientUnits="userSpaceOnUse" id="color-5"><stop offset="0" stop-color="#ed6f30"></stop><stop offset="1" stop-color="#ed6f30"></stop></linearGradient></defs><g fill="none" fill-rule="nonzero" stroke="none" stroke-width="1" stroke-linecap="butt" stroke-linejoin="miter" stroke-miterlimit="10" stroke-dasharray="" stroke-dashoffset="0" font-family="none" font-weight="none" font-size="none" text-anchor="none" style="mix-blend-mode: normal"><g transform="scale(4,4)"><path d="M25.833,26h-12.665c-0.645,0 -1.168,-0.392 -1.168,-0.876v-4.248c0,-0.484 0.523,-0.876 1.168,-0.876h12.665c0.645,0 1.167,0.392 1.167,0.875v4.25c0,0.483 -0.522,0.875 -1.167,0.875z" fill="url(#color-1)"></path><g><path d="M55,19h-12v-2.991c0,-1.103 -0.897,-2 -2,-2h-18v-4.172c0,-1.237 -0.71,-2.299 -1.853,-2.772c-1.143,-0.471 -2.395,-0.224 -3.269,0.651l-6.293,6.292h-2.585c-1.654,0 -3,1.346 -3,3v24c0,1.654 1.346,3 3,3h11v4.992c0,1.103 0.897,2 2,2h19v4.171c0,1.237 0.71,2.299 1.852,2.772c0.383,0.159 0.778,0.236 1.167,0.236c0.772,0 1.521,-0.305 2.103,-0.886l6.292,-6.293h2.586c1.654,0 3,-1.346 3,-3v-26c0,-1.654 -1.346,-3 -3,-3zM8,41.009v-24c0,-0.551 0.448,-1 1,-1h3.414l6.879,-6.878c0.439,-0.438 0.945,-0.277 1.09,-0.217c0.145,0.06 0.617,0.303 0.617,0.923v6.171h20v25c0,0.551 -0.448,1 -1,1h-31c-0.552,0.001 -1,-0.448 -1,-0.999zM56,48c0,0.551 -0.448,1 -1,1h-3.414l-6.879,6.879c-0.437,0.438 -0.944,0.277 -1.09,0.217c-0.144,-0.06 -0.617,-0.304 -0.617,-0.925v-6.171h-21v-4.991h18c1.654,0 3,-1.346 3,-3v-20.009h12c0.552,0 1,0.449 1,1z" fill="url(#color-2)"></path><rect x="12" y="28" width="25" height="2" fill="url(#color-3)"></rect><rect x="12" y="32" width="19" height="2" fill="url(#color-4)"></rect><rect x="12" y="36" width="25" height="2" fill="url(#color-5)"></rect></g></g></g></svg>