<svg xmlns="http://www.w3.org/2000/svg"  viewBox="0 0 48 48" width="48px" height="48px"><path d="M 39.517578 3.9941406 C 39.155703 3.9941406 38.793578 4.1327031 38.517578 4.4082031 L 34.650391 8.2753906 L 39.958984 13.582031 C 40.153984 13.778031 40.153984 14.095016 39.958984 14.291016 C 39.762984 14.486016 39.447953 14.486016 39.251953 14.291016 L 33.943359 8.9824219 L 26.871094 16.054688 L 32.175781 21.355469 C 32.370781 21.551469 32.370781 21.8665 32.175781 22.0625 L 13.316406 40.923828 C 13.179406 41.061828 13.026281 41.162375 12.863281 41.234375 L 5.3007812 45.634766 L 4.3613281 44.695312 L 6.8476562 38.330078 C 6.6896562 38.280078 6.5375312 38.217719 6.3945312 38.136719 C 6.2315312 38.047719 6.0907031 37.939266 5.9707031 37.822266 L 2.0019531 47.994141 L 2.0019531 47.996094 C 20.468953 47.996094 35.001953 47.772094 35.001953 47.496094 C 35.001953 47.228428 22.159679 47.014863 4.546875 47.001953 L 13.599609 43.46875 L 45.589844 11.480469 C 46.141844 10.929469 46.141844 10.032469 45.589844 9.4804688 L 40.515625 4.4082031 C 40.240125 4.1327031 39.879453 3.9941406 39.517578 3.9941406 z M 40.001953 5.9941406 C 40.257828 5.9941406 40.512531 6.0935156 40.707031 6.2910156 C 42.006031 7.5140156 43.095031 9.3450781 42.707031 9.7050781 C 42.278031 10.105078 40.701969 8.9970781 39.292969 7.7050781 C 38.904969 7.3100781 38.904969 6.6790156 39.292969 6.2910156 C 39.489969 6.0935156 39.746078 5.9941406 40.001953 5.9941406 z M 33.943359 10.394531 L 38.185547 14.638672 L 32.525391 20.296875 L 28.283203 16.054688 L 33.943359 10.394531 z M 26.162109 16.761719 L 6.6933594 36.230469 C 6.5013594 36.422469 6.4574219 36.616531 6.4824219 36.769531 C 6.5074219 36.926531 6.6188125 37.116625 6.8828125 37.265625 C 7.4458125 37.580625 8.2850781 37.469828 8.7050781 37.048828 L 9.453125 36.298828 L 27.578125 18.177734 L 26.162109 16.761719 z M 28.285156 18.884766 L 9.7792969 37.388672 C 9.5302969 37.637672 9.5253281 38.549766 10.486328 39.509766 C 11.446328 40.470766 12.359422 40.465797 12.607422 40.216797 L 31.111328 21.710938 L 28.285156 18.884766 z"/></svg>