<svg xmlns="http://www.w3.org/2000/svg" xmlns:xlink="http://www.w3.org/1999/xlink" viewBox="0,0,256,256" width="128px" height="128px" fill-rule="nonzero"><defs><linearGradient x1="23" y1="6.875" x2="23" y2="14.875" gradientUnits="userSpaceOnUse" id="color-1"><stop offset="0" stop-color="#00ffff"></stop><stop offset="1" stop-color="#ed6f30"></stop></linearGradient><linearGradient x1="32" y1="4.833" x2="32" y2="58.531" gradientUnits="userSpaceOnUse" id="color-2"><stop offset="0" stop-color="#ed6f30"></stop><stop offset="1" stop-color="#ed6f30"></stop></linearGradient></defs><g fill="none" fill-rule="nonzero" stroke="none" stroke-width="1" stroke-linecap="butt" stroke-linejoin="miter" stroke-miterlimit="10" stroke-dasharray="" stroke-dashoffset="0" font-family="none" font-weight="none" font-size="none" text-anchor="none" style="mix-blend-mode: normal"><g transform="scale(4,4)"><path d="M19,11c0,2.2 1.8,4 4,4c2.2,0 4,-1.8 4,-4c0,-2.2 -1.8,-4 -4,-4c-2.2,0 -4,1.8 -4,4z" fill="url(#color-1)"></path><path d="M8,56v2h44v-2h-4v-9h4c1.1,0 2.1,-0.5 2.9,-1.2c0.8,-0.8 1.2,-1.9 1.1,-3c-0.1,-2.1 -1.9,-3.8 -4.2,-3.8h-3.8v-6.4c1,-1.1 1.2,-2.7 0.6,-4.2l-0.6,-1.7v-15.7c0,-1.7 -1.3,-3 -3,-3h-18v0c-1,-1.2 -2.4,-2 -4,-2c-1.6,0 -3,0.8 -4,2v0h-4c-1.7,0 -3,1.3 -3,3v13h2v-13c0,-0.6 0.4,-1 1,-1h3.1c-0.1,0.3 -0.1,0.7 -0.1,1c0,2.8 2.2,5 5,5c2.8,0 5,-2.2 5,-5c0,-0.3 0,-0.7 -0.1,-1h17.1c0.6,0 1,0.4 1,1v10.7l-1,-2.6c-0.8,-1.9 -2.6,-3.1 -4.6,-3.1c-0.1,0 -0.3,0 -0.4,0c-0.7,0 -1.3,0 -2,0c-1,0 -2,0 -3,0c-1.1,0 -2.1,0 -3.2,0c-0.9,0 -1.7,0 -2.6,0c-1.1,0 -2.1,0 -3.1,0.5c-0.8,0.4 -1.3,1 -1.7,1.8c-0.4,0.6 -0.7,1.2 -1.1,1.8c-0.5,0.9 -1,1.7 -1.6,2.6c-0.5,0.8 -0.9,1.6 -1.4,2.3c-0.2,0.3 -0.4,0.7 -0.6,1h-7.6c-2,0 -3.7,1.4 -4,3.2c-0.2,1.2 0.1,2.4 0.8,3.3c0.8,1 1.9,1.5 3.1,1.5h9.4c1.7,0 3.4,-0.9 4.3,-2.4l1.7,-2.8l1.2,2.9l-11.1,20.4c-0.7,1.3 -0.6,2.7 0.1,3.9h-3.6v-20h-2v20zM26,11c0,1.7 -1.3,3 -3,3c-1.7,0 -3,-1.3 -3,-3c0,-1.7 1.3,-3 3,-3c1.7,0 3,1.3 3,3zM29.7,33.9l2,4.6l-8.9,16.5c-0.5,0.9 -1.8,1.3 -2.7,0.8c-1,-0.5 -1.3,-1.7 -0.8,-2.7zM46.8,29.1c0.4,1.1 0,2.3 -1,2.7c-1,0.4 -2.2,-0.1 -2.6,-1.1l-3,-7.5c-0.3,-0.8 -1,-1.3 -1.9,-1.3h-5.1l-1.6,-3.7c-0.1,-0.1 -0.1,-0.2 -0.2,-0.3h8.9c1.2,0 2.3,0.7 2.8,1.9zM46,39h-5.4l-6.5,-15h4.2l3,7.5c0.6,1.5 2.1,2.5 3.7,2.5c0.3,0 1,-0.1 1,-0.1zM52,45h-13.3c-1.2,0 -2.3,-0.7 -2.8,-1.8l-8.2,-18.8l-3.7,6.1c-0.5,0.9 -1.5,1.5 -2.6,1.5h-9.4c-0.6,0 -1.2,-0.3 -1.5,-0.7c-0.4,-0.5 -0.5,-1.1 -0.4,-1.7c0.2,-0.9 1.1,-1.6 2.1,-1.6h7.6c0.7,0 1.4,-0.4 1.7,-1c0,-0.1 0.1,-0.1 0.1,-0.2c0.3,-0.6 0.7,-1.1 1,-1.7c0.5,-0.9 1.1,-1.8 1.6,-2.7c0.5,-0.8 1,-1.6 1.5,-2.4c0.5,-0.8 0.9,-1.6 1.8,-1.9c0.5,-0.2 1.1,-0.1 1.5,0.1c0.6,0.3 0.9,0.8 1.1,1.4c0.2,0.4 0.4,0.8 0.5,1.3c0.3,0.6 0.6,1.3 0.8,1.9c0.4,0.8 0.7,1.6 1.1,2.4c0.4,0.9 0.8,1.8 1.2,2.7c0.4,0.9 0.8,1.9 1.2,2.8c0.4,0.9 0.8,1.8 1.2,2.7c0.4,0.8 0.7,1.6 1.1,2.5c0.3,0.7 0.6,1.3 0.9,2c0.2,0.4 0.4,0.9 0.6,1.3c0.1,0.2 0.1,0.3 0.2,0.5c0.3,0.7 1,1.2 1.8,1.2h11.2c1.1,0 2.1,0.8 2.2,1.9c0,0.6 -0.2,1.1 -0.5,1.5c-0.5,0.5 -1,0.7 -1.6,0.7zM46,56h-21.5c0,0 0,-0.1 0.1,-0.1l8.2,-15l1.4,3.1c0.8,1.8 2.6,3 4.6,3h7.2z" fill="url(#color-2)"></path></g></g></svg>