<svg xmlns="http://www.w3.org/2000/svg" xmlns:xlink="http://www.w3.org/1999/xlink" viewBox="0,0,256,256" width="32px" height="32px" fill-rule="nonzero"><g fill="#ed6f30" fill-rule="nonzero" stroke="none" stroke-width="1" stroke-linecap="butt" stroke-linejoin="miter" stroke-miterlimit="10" stroke-dasharray="" stroke-dashoffset="0" font-family="none" font-weight="none" font-size="none" text-anchor="none" style="mix-blend-mode: normal"><g transform="scale(10.66667,10.66667)"><path d="M9,1.25c-2.56365,0.00272 -4.81582,1.70229 -5.52166,4.16686c-0.70585,2.46457 0.30516,5.0987 2.47869,6.45814c-2.85238,1.22034 -4.70361,4.02253 -4.70703,7.125v2c0.00015,0.32335 0.20699,0.61041 0.51367,0.71289c2.51364,0.72477 5.12055,1.07425 7.73633,1.03711c4.624,0 6.74794,-1.03412 6.83594,-1.07812c0.25439,-0.12718 0.4148,-0.38747 0.41406,-0.67187v-2c-0.00732,-3.10433 -1.86427,-5.9055 -4.7207,-7.12109c2.17528,-1.35664 3.18967,-3.98947 2.487,-6.45494c-0.70267,-2.46548 -2.95265,-4.16794 -5.5163,-4.17396zM21.9668,8.25c-0.15064,0.00716 -0.29562,0.05957 -0.41602,0.15039l-3.48047,2.60938l-1.54102,-1.53906c-0.18468,-0.20931 -0.47031,-0.29874 -0.74138,-0.23212c-0.27107,0.06662 -0.48271,0.27826 -0.54933,0.54933c-0.06662,0.27107 0.02281,0.5567 0.23212,0.74138l2,2c0.13992,0.14125 0.33048,0.22071 0.5293,0.2207c0.162,-0.00064 0.31949,-0.05337 0.44922,-0.15039l4,-3c0.26333,-0.1972 0.36741,-0.54299 0.25668,-0.85278c-0.11073,-0.30979 -0.41043,-0.51125 -0.7391,-0.49683z"></path></g></g></svg>