<svg xmlns="http://www.w3.org/2000/svg" xmlns:xlink="http://www.w3.org/1999/xlink" viewBox="0,0,256,256" width="50px" height="50px" fill-rule="nonzero"><g fill="#ed6f30" fill-rule="nonzero" stroke="none" stroke-width="1" stroke-linecap="butt" stroke-linejoin="miter" stroke-miterlimit="10" stroke-dasharray="" stroke-dashoffset="0" font-family="none" font-weight="none" font-size="none" text-anchor="none" style="mix-blend-mode: normal"><g transform="scale(5.12,5.12)"><path d="M17.41797,7c-3.763,0.078 -6.02467,1.31091 -7.13867,3.87891c-1.122,2.585 -0.60494,6.10772 0.03906,8.63672l-0.00781,0.00391l-0.05078,0.04297c-0.36,0.299 -0.70756,0.94261 -0.60156,1.84961c0.107,0.901 0.33102,1.57577 0.66602,2.00977c0.257,0.332 0.54905,0.52331 0.87305,0.57031c0.103,0.821 0.41426,1.82344 0.82226,2.64844c0.156,0.314 0.69642,1.18848 0.98242,1.64648v3.71289c-0.611,0.858 -1.65094,1.79662 -2.33594,2.14063c-0.733,0.369 -1.53095,0.67977 -2.37695,1.00977c-0.556,0.217 -1.11702,0.43583 -1.66602,0.67383c-1.737,0.752 -2.97263,1.53861 -3.89063,2.47461c-0.86,0.876 -1.42089,2.02381 -1.71289,3.50781l-0.01953,1.19336h1h16h2.00977h0.73047l0.07813,-0.39062l0.24023,-1.19727c0.315,-1.581 0.94664,-2.83031 1.93164,-3.82031c0.92,-0.926 2.1008,-1.68009 3.7168,-2.37109c0.076,-0.033 0.15542,-0.0598 0.23242,-0.0918c-0.001,0 -2.47817,-0.93733 -2.57617,-0.98633c-0.685,-0.346 -1.74028,-1.28258 -2.36328,-2.14258v-3.71289c0.287,-0.459 0.82937,-1.33434 0.98438,-1.65234c0.413,-0.858 0.71436,-1.83558 0.81836,-2.64258c0.324,-0.047 0.618,-0.23636 0.875,-0.56836c0.335,-0.433 0.55902,-1.11077 0.66602,-2.00977c0.098,-0.809 -0.16381,-1.33219 -0.38281,-1.61719l-0.26367,-0.27344c0.218,-0.68 1.0418,-3.45506 0.8418,-6.03906c-0.1,-1.296 -0.4563,-2.40508 -1.0293,-3.20508c-0.702,-0.979 -1.69058,-1.55105 -3.01758,-1.74805c-0.571,-0.942 -2.08097,-1.52325 -4.04297,-1.53125h-0.00195h-0.00195zM35.9375,15c-2.973,0.061 -4.84242,1.07652 -5.73242,3.10352c-0.856,1.948 -0.52478,4.54519 -0.05078,6.49219l-0.13086,0.31445c-0.181,0.25 -0.38517,0.6795 -0.32617,1.3125c0.017,1.423 0.68734,2.21355 1.40234,2.56055c0.203,0.92 0.66934,1.7298 0.90234,2.2168v1.88672c0,0.987 -0.33817,1.8843 -0.95117,2.5293c-0.225,0.237 -0.37245,0.32833 -0.43945,0.36133c-0.558,0.277 -1.16936,0.51367 -1.81836,0.76367c-0.433,0.167 -0.87083,0.33458 -1.29883,0.51758c-1.372,0.587 -2.35198,1.20441 -3.08398,1.94141c-0.7,0.703 -1.15462,1.62073 -1.39062,2.80273l-0.23828,1.19727h26.4375l-0.23828,-1.19531c-0.234,-1.178 -0.68767,-2.09473 -1.38867,-2.80273c-0.734,-0.742 -1.7075,-1.35841 -3.0625,-1.94141c-0.431,-0.185 -0.8725,-0.35639 -1.3125,-0.52539c-0.645,-0.248 -1.25564,-0.48281 -1.80664,-0.75781c-0.068,-0.034 -0.21626,-0.12714 -0.44727,-0.36914c-0.621,-0.649 -0.96289,-1.55292 -0.96289,-2.54492v-1.86328c0.232,-0.487 0.69639,-1.2968 0.90039,-2.2168c0.715,-0.347 1.38434,-1.13659 1.40234,-2.55859c0.067,-0.696 -0.18095,-1.14381 -0.37695,-1.38281l-0.07812,-0.13867l-0.00195,-0.00195c0.225,-0.737 0.74752,-2.68839 0.60352,-4.52539c-0.081,-1.036 -0.37375,-1.92622 -0.84375,-2.57422c-0.564,-0.776 -1.34381,-1.23911 -2.38281,-1.41211c-0.515,-0.732 -1.72176,-1.18345 -3.25977,-1.18945h-0.00195h-0.00391z"></path></g></g></svg>