<svg xmlns="http://www.w3.org/2000/svg" xmlns:xlink="http://www.w3.org/1999/xlink" viewBox="0,0,256,256" width="30px" height="30px" fill-rule="nonzero"><g fill="#ed6f30" fill-rule="nonzero" stroke="none" stroke-width="1" stroke-linecap="butt" stroke-linejoin="miter" stroke-miterlimit="10" stroke-dasharray="" stroke-dashoffset="0" font-family="none" font-weight="none" font-size="none" text-anchor="none" style="mix-blend-mode: normal"><g transform="scale(8.53333,8.53333)"><path d="M6,3c-1.10457,0 -2,0.89543 -2,2v6c0.00133,0.84895 0.53848,1.60455 1.33984,1.88477c0.212,0.07527 0.43519,0.11422 0.66016,0.11523c0.00716,0.00004 0.01432,0.00004 0.02148,0l11.97852,2l-11.97852,2.00195c-0.00716,-0.00069 -0.01432,-0.00134 -0.02148,-0.00195c-0.22562,0.00079 -0.44949,0.03975 -0.66211,0.11523c-0.8006,0.28088 -1.33685,1.03633 -1.33789,1.88477v6c0,1.10457 0.89543,2 2,2c0.34821,-0.00066 0.69022,-0.09222 0.99219,-0.26562h0.00195l20.39648,-10.8125l0.00195,-0.00391c0.36782,-0.157 0.60672,-0.51805 0.60742,-0.91797c0.00053,-0.40181 -0.23949,-0.76492 -0.60937,-0.92187l-20.39648,-10.8125c-0.30254,-0.17373 -0.64526,-0.26531 -0.99414,-0.26562z"></path></g></g></svg>