<svg xmlns="http://www.w3.org/2000/svg" xmlns:xlink="http://www.w3.org/1999/xlink" viewBox="0,0,256,256" width="128px" height="128px" fill-rule="nonzero"><defs><linearGradient x1="32" y1="16.833" x2="32" y2="21.001" gradientUnits="userSpaceOnUse" id="color-1"><stop offset="0" stop-color="#00ffff"></stop><stop offset="1" stop-color="#ed6f30"></stop></linearGradient><linearGradient x1="32" y1="6.75" x2="32" y2="58.262" gradientUnits="userSpaceOnUse" id="color-2"><stop offset="0" stop-color="#ed6f30"></stop><stop offset="1" stop-color="#ed6f30"></stop></linearGradient><linearGradient x1="32" y1="6.75" x2="32" y2="58.262" gradientUnits="userSpaceOnUse" id="color-3"><stop offset="0" stop-color="#ed6f30"></stop><stop offset="1" stop-color="#ed6f30"></stop></linearGradient><linearGradient x1="32" y1="6.75" x2="32" y2="58.262" gradientUnits="userSpaceOnUse" id="color-4"><stop offset="0" stop-color="#ed6f30"></stop><stop offset="1" stop-color="#ed6f30"></stop></linearGradient><linearGradient x1="15" y1="6.75" x2="15" y2="58.262" gradientUnits="userSpaceOnUse" id="color-5"><stop offset="0" stop-color="#ed6f30"></stop><stop offset="1" stop-color="#ed6f30"></stop></linearGradient><linearGradient x1="49" y1="6.75" x2="49" y2="58.262" gradientUnits="userSpaceOnUse" id="color-6"><stop offset="0" stop-color="#ed6f30"></stop><stop offset="1" stop-color="#ed6f30"></stop></linearGradient><linearGradient x1="49" y1="6.75" x2="49" y2="58.262" gradientUnits="userSpaceOnUse" id="color-7"><stop offset="0" stop-color="#ed6f30"></stop><stop offset="1" stop-color="#ed6f30"></stop></linearGradient><linearGradient x1="53" y1="6.75" x2="53" y2="58.262" gradientUnits="userSpaceOnUse" id="color-8"><stop offset="0" stop-color="#ed6f30"></stop><stop offset="1" stop-color="#ed6f30"></stop></linearGradient><linearGradient x1="45" y1="6.75" x2="45" y2="58.262" gradientUnits="userSpaceOnUse" id="color-9"><stop offset="0" stop-color="#ed6f30"></stop><stop offset="1" stop-color="#ed6f30"></stop></linearGradient><linearGradient x1="27" y1="36.667" x2="27" y2="39.418" gradientUnits="userSpaceOnUse" id="color-10"><stop offset="0" stop-color="#00ffff"></stop><stop offset="1" stop-color="#ed6f30"></stop></linearGradient><linearGradient x1="36" y1="36.667" x2="36" y2="39.418" gradientUnits="userSpaceOnUse" id="color-11"><stop offset="0" stop-color="#00ffff"></stop><stop offset="1" stop-color="#ed6f30"></stop></linearGradient></defs><g fill="none" fill-rule="nonzero" stroke="none" stroke-width="1" stroke-linecap="butt" stroke-linejoin="miter" stroke-miterlimit="10" stroke-dasharray="" stroke-dashoffset="0" font-family="none" font-weight="none" font-size="none" text-anchor="none" style="mix-blend-mode: normal"><g transform="scale(4,4)"><path d="M32,17c-1.10457,0 -2,0.89543 -2,2c0,1.10457 0.89543,2 2,2c1.10457,0 2,-0.89543 2,-2c0,-1.10457 -0.89543,-2 -2,-2z" fill="url(#color-1)"></path><path d="M53,21c0,-1.103 -0.897,-2 -2,-2h-4c-1.103,0 -2,0.897 -2,2c-2.757,0 -5,2.243 -5,5c0,0.552 -0.448,1 -1,1h-2c0,-1.654 -1.346,-3 -3,-3h-1v-1.142c1.72,-0.447 3,-1.999 3,-3.858c0,-2.206 -1.794,-4 -4,-4c-2.206,0 -4,1.794 -4,4c0,1.859 1.28,3.411 3,3.858v1.142h-1c-1.654,0 -3,1.346 -3,3h-2c-0.552,0 -1,-0.448 -1,-1c0,-2.757 -2.243,-5 -5,-5c0,-1.103 -0.897,-2 -2,-2h-4c-1.103,0 -2,0.897 -2,2c-2.757,0 -5,2.243 -5,5v21.726c0,4.885 3.691,8.949 8.403,9.255c2.513,0.159 4.916,-0.693 6.751,-2.413c1.809,-1.696 2.846,-4.089 2.846,-6.568v-2c0,-0.552 0.448,-1 1,-1h14c0.552,0 1,0.448 1,1v1.726c0,4.885 3.691,8.949 8.403,9.255c0.202,0.013 0.404,0.02 0.605,0.02c2.296,0 4.459,-0.852 6.146,-2.433c1.809,-1.696 2.846,-4.089 2.846,-6.568v-22c0,-2.757 -2.243,-5 -5,-5zM30,19c0,-1.103 0.897,-2 2,-2c1.103,0 2,0.897 2,2c0,1.103 -0.897,2 -2,2c-1.103,0 -2,-0.897 -2,-2zM30,26h4c0.552,0 1,0.448 1,1h-6c0,-0.552 0.448,-1 1,-1zM56,48c0,1.956 -0.786,3.771 -2.214,5.108c-1.427,1.338 -3.296,2.015 -5.254,1.876c-3.663,-0.237 -6.532,-3.425 -6.532,-7.258v-1.726c0,-1.654 -1.346,-3 -3,-3h-14c-1.654,0 -3,1.346 -3,3v2c0,1.956 -0.786,3.771 -2.214,5.108c-1.428,1.337 -3.292,2.015 -5.254,1.876c-3.663,-0.237 -6.532,-3.425 -6.532,-7.258v-21.726c0,-1.654 1.346,-3 3,-3h8c1.654,0 3,1.346 3,3c0,1.654 1.346,3 3,3h14c1.654,0 3,-1.346 3,-3c0,-1.654 1.346,-3 3,-3h8c1.654,0 3,1.346 3,3z" fill="url(#color-2)"></path><path d="M25.435,14.427l1.641,1.145c1.123,-1.611 2.964,-2.572 4.924,-2.572c1.96,0 3.801,0.961 4.925,2.571l1.641,-1.145c-1.5,-2.145 -3.954,-3.426 -6.566,-3.426c-2.612,0 -5.066,1.281 -6.565,3.427z" fill="url(#color-3)"></path><path d="M32,9c3.249,0 6.308,1.588 8.182,4.249l1.635,-1.152c-2.248,-3.192 -5.918,-5.097 -9.817,-5.097c-3.9,0 -7.57,1.906 -9.817,5.099l1.635,1.15c1.872,-2.66 4.932,-4.249 8.182,-4.249z" fill="url(#color-4)"></path><path d="M16,31h-2v4h-4v2h4v4h2v-4h4v-2h-4z" fill="url(#color-5)"></path><path d="M49,30c-1.10457,0 -2,0.89543 -2,2c0,1.10457 0.89543,2 2,2c1.10457,0 2,-0.89543 2,-2c0,-1.10457 -0.89543,-2 -2,-2z" fill="url(#color-6)"></path><path d="M49,38c-1.10457,0 -2,0.89543 -2,2c0,1.10457 0.89543,2 2,2c1.10457,0 2,-0.89543 2,-2c0,-1.10457 -0.89543,-2 -2,-2z" fill="url(#color-7)"></path><path d="M53,34c-1.10457,0 -2,0.89543 -2,2c0,1.10457 0.89543,2 2,2c1.10457,0 2,-0.89543 2,-2c0,-1.10457 -0.89543,-2 -2,-2z" fill="url(#color-8)"></path><path d="M45,34c-1.10457,0 -2,0.89543 -2,2c0,1.10457 0.89543,2 2,2c1.10457,0 2,-0.89543 2,-2c0,-1.10457 -0.89543,-2 -2,-2z" fill="url(#color-9)"></path><path d="M30,38c0,0.552 -0.448,1 -1,1h-4c-0.552,0 -1,-0.448 -1,-1v0c0,-0.552 0.448,-1 1,-1h4c0.552,0 1,0.448 1,1z" fill="url(#color-10)"></path><path d="M39,38c0,0.552 -0.448,1 -1,1h-4c-0.552,0 -1,-0.448 -1,-1v0c0,-0.552 0.448,-1 1,-1h4c0.552,0 1,0.448 1,1z" fill="url(#color-11)"></path></g></g></svg>