<svg xmlns="http://www.w3.org/2000/svg" xmlns:xlink="http://www.w3.org/1999/xlink" viewBox="0,0,255.99998,255.99998" width="50px" height="50px" fill-rule="nonzero"><g fill="none" fill-rule="nonzero" stroke="none" stroke-width="1" stroke-linecap="butt" stroke-linejoin="miter" stroke-miterlimit="10" stroke-dasharray="" stroke-dashoffset="0" font-family="none" font-weight="none" font-size="none" text-anchor="none" style="mix-blend-mode: normal"><g transform="scale(5.12,5.12)"><path d="M40.494,50c-3.68,0 -6.996,-2.091 -8.582,-5.451c-0.469,-0.81 -0.888,-1.57 -1.275,-2.274c-1.78,-3.231 -2.454,-4.275 -3.637,-4.275h-4c-1.183,0 -1.857,1.044 -3.637,4.274c-0.388,0.704 -0.807,1.465 -1.275,2.274c-1.668,3.535 -5.242,5.671 -9.159,5.434c-5.007,-0.294 -8.929,-4.586 -8.929,-9.772c0,-5.612 0.248,-12.103 3.207,-18.096c2.97,-6.014 5.864,-8.637 9.991,-9.054c3.615,-0.36 7.023,1.161 9.03,3.939h5.543c2.008,-2.778 5.427,-4.297 9.029,-3.939c4.128,0.417 7.022,3.04 9.992,9.054v0c2.96,5.993 3.208,12.484 3.208,18.096c0,5.186 -3.922,9.478 -8.93,9.772c-0.192,0.012 -0.385,0.018 -0.576,0.018zM23,34h4c3.646,0 5.188,2.8 7.141,6.345c0.386,0.702 0.805,1.462 1.276,2.273l0.088,0.17c0.955,2.08 3.028,3.336 5.33,3.202c2.849,-0.168 5.165,-2.761 5.165,-5.78c0,-5.16 -0.216,-11.104 -2.793,-16.324v0c-2.666,-5.396 -4.581,-6.62 -6.808,-6.845c-2.387,-0.25 -4.701,0.929 -5.766,2.907l-0.566,1.052h-10.134l-0.566,-1.052c-1.065,-1.979 -3.382,-3.157 -5.767,-2.907c-2.226,0.225 -4.141,1.448 -6.807,6.845c-2.577,5.219 -2.793,11.163 -2.793,16.324c0,3.02 2.316,5.612 5.164,5.78c2.28,0.122 4.376,-1.122 5.331,-3.202l0.088,-0.17c0.472,-0.812 0.891,-1.571 1.276,-2.273c1.953,-3.545 3.495,-6.345 7.141,-6.345z" fill="#ed6f30"></path><path d="M27,21h-4c0,-9.068 2.866,-12.022 5.169,-14.396c1.705,-1.758 2.831,-2.919 2.831,-6.604h4c0,5.306 -2.104,7.475 -3.96,9.389c-2.078,2.141 -4.04,4.164 -4.04,11.611z" fill="#fcc419"></path><rect x="11" y="25" width="4" height="10" fill="#000000"></rect><rect x="-32" y="8" transform="rotate(-90)" width="4" height="10" fill="#000000"></rect><rect x="-32" y="30" transform="rotate(-90)" width="4" height="4" fill="#000000"></rect><rect x="-32" y="38" transform="rotate(-90)" width="4" height="4" fill="#000000"></rect><rect x="-36" y="34" transform="rotate(-90)" width="4" height="4" fill="#ed6f30"></rect><rect x="-28" y="34" transform="rotate(-90)" width="4" height="4" fill="#ed6f30"></rect></g></g></svg>