<svg xmlns="http://www.w3.org/2000/svg" xmlns:xlink="http://www.w3.org/1999/xlink" viewBox="0,0,256,256" width="30px" height="30px" fill-rule="nonzero"><g fill="#ed6f30" fill-rule="nonzero" stroke="none" stroke-width="1" stroke-linecap="butt" stroke-linejoin="miter" stroke-miterlimit="10" stroke-dasharray="" stroke-dashoffset="0" font-family="none" font-weight="none" font-size="none" text-anchor="none" style="mix-blend-mode: normal"><g transform="scale(8.53333,8.53333)"><path d="M5,3c-1.103,0 -2,0.897 -2,2v20c0,1.103 0.897,2 2,2h14c1.103,0 2,-0.897 2,-2v-9h-8c-0.552,0 -1,-0.448 -1,-1c0,-0.552 0.448,-1 1,-1h8v-9c0,-1.103 -0.897,-2 -2,-2zM21,14v2h5.58594l-2.29297,2.29297c-0.26124,0.25082 -0.36648,0.62327 -0.27512,0.97371c0.09136,0.35044 0.36503,0.62411 0.71547,0.71547c0.35044,0.09136 0.72289,-0.01388 0.97371,-0.27512l4,-4c0.39037,-0.39053 0.39037,-1.02353 0,-1.41406l-4,-4c-0.18827,-0.19353 -0.4468,-0.30272 -0.7168,-0.30273c-0.40692,0.00011 -0.77321,0.24676 -0.92633,0.62377c-0.15312,0.37701 -0.06255,0.80921 0.22907,1.09303l2.29297,2.29297z"></path></g></g></svg>