<svg xmlns="http://www.w3.org/2000/svg" xmlns:xlink="http://www.w3.org/1999/xlink" viewBox="0,0,256,256" width="64px" height="64px" fill-rule="nonzero"><defs><linearGradient x1="32" y1="7.667" x2="32" y2="56.715" gradientUnits="userSpaceOnUse" id="color-1"><stop offset="0" stop-color="#ed6f30"></stop><stop offset="1" stop-color="#ed6f30"></stop></linearGradient><linearGradient x1="20" y1="37.75" x2="20" y2="48.25" gradientUnits="userSpaceOnUse" id="color-2"><stop offset="0" stop-color="#ed6f30"></stop><stop offset="1" stop-color="#ed6f30"></stop></linearGradient><linearGradient x1="32" y1="7.667" x2="32" y2="56.715" gradientUnits="userSpaceOnUse" id="color-3"><stop offset="0" stop-color="#ed6f30"></stop><stop offset="1" stop-color="#ed6f30"></stop></linearGradient><linearGradient x1="32" y1="17.875" x2="32" y2="33.001" gradientUnits="userSpaceOnUse" id="color-4"><stop offset="0" stop-color="#00ffff"></stop><stop offset="1" stop-color="#ed6f30"></stop></linearGradient><linearGradient x1="24" y1="37.75" x2="24" y2="48.25" gradientUnits="userSpaceOnUse" id="color-5"><stop offset="0" stop-color="#ed6f30"></stop><stop offset="1" stop-color="#ed6f30"></stop></linearGradient><linearGradient x1="28" y1="37.75" x2="28" y2="48.25" gradientUnits="userSpaceOnUse" id="color-6"><stop offset="0" stop-color="#ed6f30"></stop><stop offset="1" stop-color="#ed6f30"></stop></linearGradient><linearGradient x1="32" y1="37.75" x2="32" y2="48.25" gradientUnits="userSpaceOnUse" id="color-7"><stop offset="0" stop-color="#ed6f30"></stop><stop offset="1" stop-color="#ed6f30"></stop></linearGradient><linearGradient x1="36" y1="37.75" x2="36" y2="48.25" gradientUnits="userSpaceOnUse" id="color-8"><stop offset="0" stop-color="#ed6f30"></stop><stop offset="1" stop-color="#ed6f30"></stop></linearGradient><linearGradient x1="40" y1="37.75" x2="40" y2="48.25" gradientUnits="userSpaceOnUse" id="color-9"><stop offset="0" stop-color="#ed6f30"></stop><stop offset="1" stop-color="#ed6f30"></stop></linearGradient><linearGradient x1="44" y1="37.75" x2="44" y2="48.25" gradientUnits="userSpaceOnUse" id="color-10"><stop offset="0" stop-color="#ed6f30"></stop><stop offset="1" stop-color="#ed6f30"></stop></linearGradient></defs><g fill="none" fill-rule="nonzero" stroke="none" stroke-width="1" stroke-linecap="butt" stroke-linejoin="miter" stroke-miterlimit="10" stroke-dasharray="" stroke-dashoffset="0" font-family="none" font-weight="none" font-size="none" text-anchor="none" style="mix-blend-mode: normal"><g transform="scale(4,4)"><path d="M51,56h-38c-2.757,0 -5,-2.243 -5,-5v-38c0,-2.757 2.243,-5 5,-5h38c2.757,0 5,2.243 5,5v38c0,2.757 -2.243,5 -5,5zM13,10c-1.654,0 -3,1.346 -3,3v38c0,1.654 1.346,3 3,3h38c1.654,0 3,-1.346 3,-3v-38c0,-1.654 -1.346,-3 -3,-3z" fill="url(#color-1)"></path><path d="M19,45h2v3h-2z" fill="url(#color-2)"></path><path d="M50,52h-36c-1.103,0 -2,-0.897 -2,-2v-36c0,-1.103 0.897,-2 2,-2h36c1.103,0 2,0.897 2,2v36c0,1.103 -0.897,2 -2,2zM14,14v36h36v-36z" fill="url(#color-3)"></path><path d="M32.943,18.573l1.658,3.288c0.153,0.304 0.449,0.514 0.792,0.563l3.706,0.527c0.862,0.123 1.207,1.16 0.583,1.756l-2.682,2.56c-0.248,0.237 -0.361,0.577 -0.302,0.911l0.633,3.614c0.147,0.841 -0.754,1.482 -1.526,1.085l-3.315,-1.706c-0.306,-0.158 -0.672,-0.158 -0.979,0l-3.315,1.706c-0.771,0.397 -1.673,-0.244 -1.526,-1.085l0.633,-3.614c0.059,-0.334 -0.055,-0.675 -0.302,-0.911l-2.682,-2.56c-0.624,-0.596 -0.28,-1.633 0.583,-1.756l3.706,-0.527c0.342,-0.049 0.639,-0.259 0.792,-0.563l1.658,-3.288c0.385,-0.765 1.499,-0.765 1.885,0z" fill="url(#color-4)"></path><path d="M23,43h2v5h-2z" fill="url(#color-5)"></path><path d="M27,40h2v8h-2z" fill="url(#color-6)"></path><path d="M31,38h2v10h-2z" fill="url(#color-7)"></path><path d="M35,40h2v8h-2z" fill="url(#color-8)"></path><path d="M39,43h2v5h-2z" fill="url(#color-9)"></path><path d="M43,45h2v3h-2z" fill="url(#color-10)"></path></g></g></svg>