<svg xmlns="http://www.w3.org/2000/svg" xmlns:xlink="http://www.w3.org/1999/xlink" viewBox="0,0,255.99998,255.99998" width="48px" height="48px" fill-rule="nonzero"><defs><linearGradient x1="24.175" y1="10.204" x2="24.175" y2="39" gradientUnits="userSpaceOnUse" id="color-1"><stop offset="0.278" stop-color="#ed6f30"></stop><stop offset="0.458" stop-color="#ed6f30"></stop><stop offset="0.79" stop-color="#ed6f30"></stop><stop offset="1" stop-color="#ed6f30"></stop></linearGradient></defs><g fill="url(#color-1)" fill-rule="nonzero" stroke="none" stroke-width="1" stroke-linecap="butt" stroke-linejoin="miter" stroke-miterlimit="10" stroke-dasharray="" stroke-dashoffset="0" font-family="none" font-weight="none" font-size="none" text-anchor="none" style="mix-blend-mode: normal"><g transform="scale(5.33333,5.33333)"><path d="M21,39c-0.92499,0.00397 -1.82207,-0.31664 -2.535,-0.906l-13.627,-11.718c-0.61265,-0.53309 -0.69353,-1.45543 -0.183,-2.087l3.164,-3.873c0.25643,-0.31431 0.62923,-0.51136 1.03337,-0.54622c0.40414,-0.03486 0.80517,0.09546 1.11163,0.36122l10.636,9.234l17.1,-18.771c0.55371,-0.60918 1.49492,-0.65827 2.109,-0.11l3.728,3.346c0.29718,0.26651 0.47587,0.64049 0.49652,1.03913c0.02065,0.39865 -0.11846,0.78908 -0.38652,1.08487l-19.667,21.619c-0.76251,0.84174 -1.84425,1.32344 -2.98,1.327z"></path></g></g></svg>