<svg xmlns="http://www.w3.org/2000/svg" xmlns:xlink="http://www.w3.org/1999/xlink" viewBox="0,0,255.99998,255.99998" width="50px" height="50px" fill-rule="nonzero"><g fill="#ed6f30" fill-rule="nonzero" stroke="none" stroke-width="1" stroke-linecap="butt" stroke-linejoin="miter" stroke-miterlimit="10" stroke-dasharray="" stroke-dashoffset="0" font-family="none" font-weight="none" font-size="none" text-anchor="none" style="mix-blend-mode: normal"><g transform="scale(5.12,5.12)"><path d="M6,1v4c0,1.64453 1.35547,3 3,3h2v6.71875c0,3.00781 1.49609,5.83203 4,7.5l4.1875,2.78125l-4.1875,2.78125c-2.50391,1.66797 -4,4.49219 -4,7.5v6.71875h-2c-1.64453,0 -3,1.35547 -3,3v4h38v-4c0,-1.64453 -1.35547,-3 -3,-3h-2v-6.71875c0,-3.00781 -1.49609,-5.83203 -4,-7.5l-4.1875,-2.78125l4.1875,-2.78125c2.50391,-1.66797 4,-4.49219 4,-7.5v-6.71875h2c1.64453,0 3,-1.35547 3,-3v-4zM8,3h34v2c0,0.56641 -0.43359,1 -1,1h-32c-0.56641,0 -1,-0.43359 -1,-1zM13,8h24v6.71875c0,2.33984 -1.17578,4.51563 -3.125,5.8125l-5.4375,3.625l-1.25,0.84375l1.25,0.84375l5.4375,3.625c1.94922,1.30078 3.125,3.47266 3.125,5.8125v6.71875h-3.0625c-0.70312,-7.25391 -8.9375,-10 -8.9375,-10c0,0 -8.21094,2.90234 -8.9375,10h-3.0625v-6.71875c0,-2.33984 1.17578,-4.51172 3.125,-5.8125l5.4375,-3.625l1.25,-0.84375l-1.25,-0.84375l-5.4375,-3.625c-1.94922,-1.29687 -3.125,-3.47266 -3.125,-5.8125zM17,15c0,5.08984 8,7 8,7c0,0 8,-2.01562 8,-7zM9,44h32c0.56641,0 1,0.43359 1,1v2h-34v-2c0,-0.56641 0.43359,-1 1,-1z"></path></g></g></svg>