<svg xmlns="http://www.w3.org/2000/svg" xmlns:xlink="http://www.w3.org/1999/xlink" viewBox="0,0,256,256" width="26px" height="26px" fill-rule="nonzero"><g fill="#ed6f30" fill-rule="nonzero" stroke="none" stroke-width="1" stroke-linecap="butt" stroke-linejoin="miter" stroke-miterlimit="10" stroke-dasharray="" stroke-dashoffset="0" font-family="none" font-weight="none" font-size="none" text-anchor="none" style="mix-blend-mode: normal"><g transform="scale(9.84615,9.84615)"><path d="M13,0.15625c-3.17578,0 -5.90625,2.14063 -5.90625,6.25c0,2.68359 1.25781,5.41016 2.90625,7.09375c0.26563,0.69922 0.21875,1.22266 0.0625,1.59375c0.21484,0.28906 1.05078,1.13281 2.4375,1.3125c-0.51172,0.57813 -1.17969,1.77344 -1.71875,2.96875c-1.03906,-1.47266 -1.78125,-3.375 -1.78125,-3.375c-3.26953,1.21875 -6.96875,3.35938 -6.96875,5.46875v0.8125c0,2.94531 5.71094,3.59375 11,3.59375c5.29688,0 10.9375,-0.64844 10.9375,-3.59375v-0.8125c0,-2.14062 -3.625,-4.25391 -7,-5.4375c0,0 -0.71875,1.88281 -1.75,3.34375c-0.53906,-1.19922 -1.20312,-2.39062 -1.71875,-2.96875c1.33594,-0.16406 2.14844,-0.94922 2.40625,-1.28125c-0.10937,-0.36328 -0.125,-0.86719 0.125,-1.625c1.63672,-1.6875 2.875,-4.42187 2.875,-7.09375c0,-4.10547 -2.73047,-6.25 -5.90625,-6.25z"></path></g></g></svg>