<svg xmlns="http://www.w3.org/2000/svg" xmlns:xlink="http://www.w3.org/1999/xlink" viewBox="0,0,256,256" width="67px" height="67px" fill-rule="evenodd"><g fill="none" fill-rule="evenodd" stroke="none" stroke-width="1" stroke-linecap="butt" stroke-linejoin="miter" stroke-miterlimit="10" stroke-dasharray="" stroke-dashoffset="0" font-family="none" font-weight="none" font-size="none" text-anchor="none" style="mix-blend-mode: normal"><g transform="scale(0.05905,0.05905)"><path d="M248,1417l9,-6c140,-105 341,-75 445,65l1305,1752c105,140 75,341 -65,445l-9,6c-140,105 -341,75 -445,-65l-1305,-1752c-105,-140 -75,-341 65,-445z" fill="#ed6f30"></path><path d="M1571,3668l8,7c136,110 338,88 447,-49l792,-985c11,-10 21,-21 31,-33l1369,-1703c110,-136 88,-338 -49,-447l-8,-7c-136,-110 -338,-88 -447,49l-792,985c-11,10 -21,21 -31,33l-1369,1703c-110,136 -88,338 49,447z" fill="#1cd967"></path></g></g></svg>