<?xml version="1.0" encoding="utf-8"?>
<svg xmlns="http://www.w3.org/2000/svg" viewBox="0,0,256,256" width="64px" height="64px" fill-rule="nonzero">
  <defs>
    <linearGradient x1="38.663" y1="23.667" x2="38.663" y2="37.35" gradientUnits="userSpaceOnUse" id="color-1">
      <stop offset="0" stop-color="#ed6f30"/>
      <stop offset="1" stop-color="#00ffff"/>
    </linearGradient>
    <linearGradient x1="25.337" y1="23.667" x2="25.337" y2="37.35" gradientUnits="userSpaceOnUse" id="color-2">
      <stop offset="0" stop-color="#ed6f30"/>
      <stop offset="1" stop-color="#00ffff"/>
    </linearGradient>
    <linearGradient x1="32" y1="5.833" x2="32" y2="58.5" gradientUnits="userSpaceOnUse" id="color-3">
      <stop offset="0" stop-color="#ed6f30"/>
      <stop offset="1" stop-color="#ed6f30"/>
    </linearGradient>
  </defs>
  <g fill="none" fill-rule="nonzero" stroke="none" stroke-width="1" stroke-linecap="butt" stroke-linejoin="miter" stroke-miterlimit="10" stroke-dasharray="" stroke-dashoffset="0" font-family="none" font-weight="none" font-size="none" text-anchor="none" style="mix-blend-mode: normal">
    <g transform="scale(4,4)">
      <path d="M35,24.865v6.535c0,1.515 0.856,2.899 2.21,3.576l4.391,2.196c0.434,0.217 0.891,-0.252 0.663,-0.68l-6.326,-11.861c-0.244,-0.458 -0.938,-0.284 -0.938,0.234z" fill="url(#color-1)"/>
      <path d="M29,24.865v6.535c0,1.515 -0.856,2.899 -2.21,3.576l-4.391,2.196c-0.434,0.217 -0.891,-0.252 -0.663,-0.68l6.326,-11.861c0.244,-0.458 0.938,-0.284 0.938,0.234z" fill="url(#color-2)"/>
      <path d="M55.924,46.054l-21.302,-38.508c-0.535,-0.968 -1.516,-1.546 -2.622,-1.546c-1.106,0 -2.087,0.578 -2.622,1.546l-21.302,38.507c-0.639,1.154 -0.472,2.525 0.427,3.491c0.899,0.966 2.254,1.232 3.451,0.681l12.99,-5.995l4.932,4.933c0.586,0.585 1.354,0.877 2.124,0.877c0.769,0 1.538,-0.292 2.124,-0.877l4.932,-4.932l12.99,5.995c0.414,0.191 0.848,0.285 1.274,0.285c0.806,0 1.589,-0.333 2.177,-0.965c0.899,-0.968 1.065,-2.338 0.427,-3.492zM33,8.746l19.975,36.11l-17.13,-8.221c-1.728,-0.827 -2.845,-2.612 -2.845,-4.547v-3.088v-1zM31,8.746v19.254v1v3.088v0.001c0,1.915 -1.116,3.686 -2.846,4.513l-17.127,8.248zM11.116,48.409c-0.612,0.283 -1.033,-0.103 -1.148,-0.226c-0.064,-0.069 -0.199,-0.243 -0.251,-0.482l19.303,-9.295c0.707,-0.338 1.329,-0.799 1.872,-1.336c-0.307,1.521 -1.313,2.818 -2.796,3.503zM32.71,47.748c-0.391,0.392 -1.029,0.391 -1.42,0l-4.411,-4.412l2.055,-0.948c1.32,-0.609 2.377,-1.565 3.082,-2.731c0.71,1.172 1.762,2.137 3.051,2.731l2.055,0.948zM52.884,48.41l-16.979,-7.837c-1.426,-0.658 -2.431,-1.952 -2.77,-3.447c0.537,0.527 1.151,0.98 1.847,1.313l19.302,9.263c-0.053,0.239 -0.187,0.412 -0.251,0.482c-0.116,0.123 -0.537,0.507 -1.149,0.226z" fill="url(#color-3)"/>
    </g>
  </g>
</svg>