<svg xmlns="http://www.w3.org/2000/svg" xmlns:xlink="http://www.w3.org/1999/xlink" viewBox="0,0,256,256" width="64px" height="64px" fill-rule="nonzero"><g fill="#ed6f30" fill-rule="nonzero" stroke="none" stroke-width="1" stroke-linecap="butt" stroke-linejoin="miter" stroke-miterlimit="10" stroke-dasharray="" stroke-dashoffset="0" font-family="none" font-weight="none" font-size="none" text-anchor="none" style="mix-blend-mode: normal"><g transform="scale(3.55556,3.55556)"><path d="M57.26172,11.00781c-0.56959,-0.03759 -1.15037,0.04639 -1.70312,0.25977l-44,17c-1.522,0.588 -2.53459,2.04087 -2.55859,3.67188c-0.023,1.631 0.94327,3.11505 2.44727,3.74805l17.49805,7.36719l7.36719,17.49805c0.625,1.485 2.0805,2.44727 3.6875,2.44727h0.06055c1.63,-0.024 3.08387,-1.03659 3.67188,-2.55859l17,-44c0.571,-1.477 0.2147,-3.15053 -0.9043,-4.26953c-0.7,-0.7 -1.61709,-1.10142 -2.56641,-1.16406zM50.01172,21.98828l-10.16992,26.32422l-2.8418,-6.74805l6.70898,-11.35352c0.736,-1.247 -0.67197,-2.65397 -1.91797,-1.91797l-11.35352,6.70898l-6.75,-2.84375z"></path></g></g></svg>