<svg xmlns="http://www.w3.org/2000/svg" xmlns:xlink="http://www.w3.org/1999/xlink" viewBox="0,0,256,256" width="64px" height="64px" fill-rule="nonzero"><defs><linearGradient x1="17" y1="16.957" x2="17" y2="22.495" gradientUnits="userSpaceOnUse" id="color-1"><stop offset="0" stop-color="#00ffff"></stop><stop offset="1" stop-color="#ed6f30"></stop></linearGradient><linearGradient x1="33" y1="16.957" x2="33" y2="22.495" gradientUnits="userSpaceOnUse" id="color-2"><stop offset="0" stop-color="#00ffff"></stop><stop offset="1" stop-color="#ed6f30"></stop></linearGradient><linearGradient x1="55" y1="30" x2="55" y2="51.389" gradientUnits="userSpaceOnUse" id="color-3"><stop offset="0" stop-color="#00ffff"></stop><stop offset="1" stop-color="#ed6f30"></stop></linearGradient><linearGradient x1="23" y1="44.947" x2="23" y2="47.085" gradientUnits="userSpaceOnUse" id="color-4"><stop offset="0" stop-color="#00ffff"></stop><stop offset="1" stop-color="#ed6f30"></stop></linearGradient><linearGradient x1="27" y1="44.947" x2="27" y2="47.085" gradientUnits="userSpaceOnUse" id="color-5"><stop offset="0" stop-color="#00ffff"></stop><stop offset="1" stop-color="#ed6f30"></stop></linearGradient><linearGradient x1="31" y1="44.947" x2="31" y2="47.085" gradientUnits="userSpaceOnUse" id="color-6"><stop offset="0" stop-color="#00ffff"></stop><stop offset="1" stop-color="#ed6f30"></stop></linearGradient><linearGradient x1="30.5" y1="8.872" x2="30.5" y2="55.618" gradientUnits="userSpaceOnUse" id="color-7"><stop offset="0" stop-color="#ed6f30"></stop><stop offset="1" stop-color="#ed6f30"></stop></linearGradient><linearGradient x1="32" y1="8.872" x2="32" y2="55.618" gradientUnits="userSpaceOnUse" id="color-8"><stop offset="0" stop-color="#ed6f30"></stop><stop offset="1" stop-color="#ed6f30"></stop></linearGradient><linearGradient x1="36.5" y1="35.191" x2="36.5" y2="42.853" gradientUnits="userSpaceOnUse" id="color-9"><stop offset="0" stop-color="#00ffff"></stop><stop offset="1" stop-color="#ed6f30"></stop></linearGradient></defs><g fill="none" fill-rule="nonzero" stroke="none" stroke-width="1" stroke-linecap="butt" stroke-linejoin="miter" stroke-miterlimit="10" stroke-dasharray="" stroke-dashoffset="0" font-family="none" font-weight="none" font-size="none" text-anchor="none" style="mix-blend-mode: normal"><g transform="scale(4,4)"><circle cx="17" cy="20" r="3" fill="url(#color-1)"></circle><circle cx="33" cy="20" r="3" fill="url(#color-2)"></circle><rect x="53" y="30" width="4" height="22" fill="url(#color-3)"></rect><circle cx="23" cy="46" r="1" fill="url(#color-4)"></circle><circle cx="27" cy="46" r="1" fill="url(#color-5)"></circle><circle cx="31" cy="46" r="1" fill="url(#color-6)"></circle><path d="M42,33h-23c-0.552,0 -1,0.448 -1,1v16c0,0.552 0.448,1 1,1h23c0.552,0 1,-0.448 1,-1v-16c0,-0.552 -0.448,-1 -1,-1zM41,49h-21v-14h21z" fill="url(#color-7)"></path><path d="M57,29h-4c-0.218,0 -0.431,0.071 -0.604,0.203l-5.396,4.093v-1.263c0,-1.672 -1.361,-3.033 -3.033,-3.033h-4.662c2.834,-1.992 4.695,-5.28 4.695,-9c0,-6.065 -4.935,-11 -11,-11c-3.072,0 -5.926,1.249 -8,3.463c-2.074,-2.214 -4.928,-3.463 -8,-3.463c-6.065,0 -11,4.935 -11,11c0,5.148 3.559,9.469 8.343,10.662c-0.212,0.414 -0.343,0.875 -0.343,1.371v17.967c0,2.757 2.243,5 5,5h23c2.757,0 5,-2.243 5,-5v-1.281l5.391,4.143c0.175,0.134 0.389,0.207 0.609,0.207c0.006,0 0.012,0 0.017,0l4,-0.069c0.546,-0.01 0.983,-0.455 0.983,-1v-22c0,-0.552 -0.448,-1 -1,-1zM8,20c0,-4.962 4.038,-9 9,-9c2.854,0 5.478,1.318 7.2,3.618c0.377,0.504 1.224,0.504 1.601,0c1.721,-2.3 4.345,-3.618 7.199,-3.618c4.962,0 9,4.038 9,9c0,4.962 -4.038,9 -9,9h-15.967h-0.033c-4.962,0 -9,-4.038 -9,-9zM45,35.311v11.379v3.31c0,1.654 -1.346,3 -3,3h-23c-1.654,0 -3,-1.346 -3,-3v-17.967c0,-0.57 0.463,-1.033 1.033,-1.033h15.967h10.967c0.57,0 1.033,0.463 1.033,1.033zM52,50.039l-5,-3.843v-10.39l5,-3.793zM56,51.017l-2,0.034v-20.051h2z" fill="url(#color-8)"></path><path d="M39,42v-4c0,-0.552 -0.448,-1 -1,-1h-4z" fill="url(#color-9)"></path></g></g></svg>