<svg xmlns="http://www.w3.org/2000/svg" xmlns:xlink="http://www.w3.org/1999/xlink" viewBox="0,0,255.99998,255.99998" width="64px" height="64px" fill-rule="nonzero"><g fill="#ed6f30" fill-rule="nonzero" stroke="none" stroke-width="1" stroke-linecap="butt" stroke-linejoin="miter" stroke-miterlimit="10" stroke-dasharray="" stroke-dashoffset="0" font-family="none" font-weight="none" font-size="none" text-anchor="none" style="mix-blend-mode: normal"><g transform="scale(4,4)"><path d="M19.06,23h6.45h13c0,0 6.43,0 6.48,0c0.40048,-0.00264 0.78351,-0.16427 1.06481,-0.44933c0.28131,-0.28506 0.43785,-0.67019 0.43519,-1.07067v-13.9c0.01315,-0.71839 -0.48174,-1.34655 -1.18326,-1.50191c-0.70152,-0.15535 -1.41535,0.20513 -1.70674,0.86191l-5.09,11l-5.12,-11c-0.24611,-0.52896 -0.77659,-0.86723 -1.36,-0.86723c-0.58341,0 -1.11389,0.33827 -1.36,0.86723l-5.15,11l-5.09,-10.94c-0.29139,-0.65678 -1.00522,-1.01726 -1.70674,-0.86191c-0.70152,0.15535 -1.19641,0.78351 -1.18326,1.50191c0,0 0,13.89 0,13.91c0.02716,0.81666 0.70297,1.46135 1.52,1.45zM60,44.58h-6.5v-9.47c0,-0.82843 -0.67157,-1.5 -1.5,-1.5h-18.5v-4.86h11.5c0.82843,0 1.5,-0.67157 1.5,-1.5c0,-0.82843 -0.67157,-1.5 -1.5,-1.5h-26c-0.82843,0 -1.5,0.67157 -1.5,1.5c0,0.82843 0.67157,1.5 1.5,1.5h11.5v4.86h-18.5c-0.82843,0 -1.5,0.67157 -1.5,1.5v9.47h-6.5c-0.82843,0 -1.5,0.67157 -1.5,1.5v10.4c0,0.82843 0.67157,1.5 1.5,1.5c0.82843,0 1.5,-0.67157 1.5,-1.5v-8.9h13v8.9c0,0.82843 0.67157,1.5 1.5,1.5c0.82843,0 1.5,-0.67157 1.5,-1.5v-10.4c-0.00545,-0.82616 -0.67384,-1.49455 -1.5,-1.5h-6.5v-8h37v8h-6.5c-0.82616,0.00545 -1.49455,0.67384 -1.5,1.5v10.4c0,0.82843 0.67157,1.5 1.5,1.5c0.82843,0 1.5,-0.67157 1.5,-1.5v-8.9h13v8.9c0,0.82843 0.67157,1.5 1.5,1.5c0.82843,0 1.5,-0.67157 1.5,-1.5v-10.4c0,-0.82843 -0.67157,-1.5 -1.5,-1.5z"></path></g></g></svg>