<svg xmlns="http://www.w3.org/2000/svg"  viewBox="0 0 25 24" width="24px" height="24px" fill-rule="evenodd"><g fill="#90A7B2"><path d="M12.2027,21.7499c-0.718,-1.0725 -1.1367,-2.3623 -1.1367,-3.7499c0,-2.0696 0.9315,-3.9217 2.3981,-5.1599c-3.90355,-0.552 -7.94018,0.1228 -11.5183,2.0242c-0.54138,0.2877 -0.87977,0.8507 -0.87977,1.4638v3.6718c0,0.9665 0.7835,1.75 1.75,1.75h9.38666Z"/><path fill-rule="evenodd" d="M10.816,0.75c-2.89945,0 -5.24996,2.35051 -5.24996,5.25c0,2.8995 2.35051,5.25 5.24996,5.25c2.8995,0 5.25,-2.3505 5.25,-5.25c0,-2.89949 -2.3505,-5.25 -5.25,-5.25Z"/></g><path fill="#F44336" fill-rule="evenodd" d="M17.816,12.25c-3.1756,0 -5.75,2.5744 -5.75,5.75c0,3.1756 2.5744,5.75 5.75,5.75c3.1757,0 5.75,-2.5744 5.75,-5.75c0,-3.1756 -2.5743,-5.75 -5.75,-5.75Z"/><g fill="#CC382D" fill-rule="evenodd"><path d="M17.816,12.25v11.5c-3.1756,0 -5.75,-2.5744 -5.75,-5.75c0,-3.1756 2.5744,-5.75 5.75,-5.75Z"/><path fill="#FAFAFA" d="M19.7606,17.116c0.2929,-0.2929 0.2929,-0.7677 0,-1.0606c-0.2929,-0.2929 -0.7678,-0.2929 -1.0606,0l-0.884,0.8839l-0.8838,-0.8838c-0.2929,-0.2928 -0.7678,-0.2928 -1.0607,0c-0.2929,0.2929 -0.2929,0.7678 0,1.0607l0.8838,0.8838l-0.8838,0.8838c-0.2929,0.2929 -0.2929,0.7678 0,1.0607c0.2929,0.2928 0.7678,0.2928 1.0607,0l0.8838,-0.8838l0.884,0.8839c0.2928,0.2929 0.7677,0.2929 1.0606,0c0.2929,-0.2929 0.2929,-0.7677 0,-1.0606l-0.884,-0.884l0.884,-0.884Z"/><path fill="#E5E6E8" d="M17.816,16.9393v2.1214v0l-0.8838,0.8837c-0.2929,0.2929 -0.7678,0.2929 -1.0607,0c-0.2929,-0.2928 -0.2929,-0.7677 0,-1.0606l0.8838,-0.8838l-0.8838,-0.8838c-0.2929,-0.2929 -0.2929,-0.7678 0,-1.0607c0.2929,-0.2928 0.7678,-0.2928 1.0607,0l0.8838,0.8838v0Z"/><path fill="#7E97A3" d="M10.816,12.6538v9.0961h-7.99996c-0.9665,0 -1.75,-0.7835 -1.75,-1.75v-3.6718c0,-0.6131 0.33839,-1.1761 0.87977,-1.4638c2.77313,-1.4737 5.82168,-2.2105 8.87019,-2.2105Zm0,-11.9038v10.5c-2.89946,0 -5.24996,-2.3505 -5.24996,-5.25c0,-2.89949 2.3505,-5.25 5.24996,-5.25Z"/></g></svg>