<svg width="16" height="16" viewBox="0 0 16 16" fill="none" xmlns="http://www.w3.org/2000/svg">
<path d="M15.2279 14.0077H14.7201C14.5614 11.2927 12.6507 9.14701 10.2893 9.05213V7.98657C11.6033 7.89169 12.6444 6.62907 12.6444 5.08912C12.6444 3.54187 11.6033 2.28655 10.2893 2.19167V1.6078C11.8699 1.70268 13.1205 3.21344 13.1205 5.06722C13.1205 6.76774 12.0604 8.18363 10.6638 8.47556C13.1331 8.76749 15.0756 11.103 15.2279 14.0077ZM7.09002 8.45366C10.0862 8.81858 12.4476 11.6722 12.6317 15.2119H12.0159C11.8191 11.8255 9.40063 9.15431 6.44254 9.15431C3.48446 9.15431 1.06594 11.8328 0.869157 15.2119H0.24707C0.431157 11.6722 2.79255 8.81858 5.78872 8.45366C4.09385 8.09604 2.80524 6.37363 2.80524 4.2936C2.80524 1.95082 4.43028 0.0605469 6.43619 0.0605469C8.44211 0.0605469 10.0671 1.95812 10.0671 4.2936C10.0671 6.37363 8.78489 8.09604 7.09002 8.45366ZM6.43619 0.768488C4.74767 0.768488 3.38289 2.35953 3.38289 4.31549C3.38289 6.27145 4.74767 7.8625 6.43619 7.8625C8.11837 7.8625 9.4895 6.27145 9.4895 4.31549C9.4895 2.35953 8.12472 0.768488 6.43619 0.768488Z" fill="#F0F0F0"/>
</svg>
