<svg xmlns="http://www.w3.org/2000/svg" xmlns:xlink="http://www.w3.org/1999/xlink" viewBox="0,0,256,256" width="64px" height="64px" fill-rule="nonzero"><defs><linearGradient x1="31" y1="43.766" x2="31" y2="45.896" gradientUnits="userSpaceOnUse" id="color-1"><stop offset="0" stop-color="#00ffff"></stop><stop offset="1" stop-color="#ed6f30"></stop></linearGradient><linearGradient x1="19" y1="31.128" x2="19" y2="34.006" gradientUnits="userSpaceOnUse" id="color-2"><stop offset="0" stop-color="#00ffff"></stop><stop offset="1" stop-color="#ed6f30"></stop></linearGradient><linearGradient x1="33" y1="17.755" x2="33" y2="19.72" gradientUnits="userSpaceOnUse" id="color-3"><stop offset="0" stop-color="#00ffff"></stop><stop offset="1" stop-color="#ed6f30"></stop></linearGradient><linearGradient x1="45" y1="29.851" x2="45" y2="32.241" gradientUnits="userSpaceOnUse" id="color-4"><stop offset="0" stop-color="#00ffff"></stop><stop offset="1" stop-color="#ed6f30"></stop></linearGradient><linearGradient x1="32" y1="5.894" x2="32" y2="48.739" gradientUnits="userSpaceOnUse" id="color-5"><stop offset="0" stop-color="#ed6f30"></stop><stop offset="1" stop-color="#ed6f30"></stop></linearGradient></defs><g fill="none" fill-rule="nonzero" stroke="none" stroke-width="1" stroke-linecap="butt" stroke-linejoin="miter" stroke-miterlimit="10" stroke-dasharray="" stroke-dashoffset="0" font-family="none" font-weight="none" font-size="none" text-anchor="none" style="mix-blend-mode: normal"><g transform="scale(4,4)"><rect x="29" y="43" width="4" height="4" fill="url(#color-1)"></rect><rect x="17" y="31" width="4" height="4" fill="url(#color-2)"></rect><path d="M31,17h4v4h-4z" fill="url(#color-3)"></path><path d="M43,29h4v4h-4z" fill="url(#color-4)"></path><path d="M48,32.363v-3.363c0,-0.553 -0.448,-1 -1,-1h-1v-8c0,-1.103 -0.897,-2 -2,-2h-8v-1c0,-0.553 -0.448,-1 -1,-1h-3.363c-1.36,-5.724 -6.503,-10 -12.637,-10c-7.168,0 -13,5.832 -13,13c0,6.134 4.276,11.277 10,12.637v3.363c0,0.553 0.448,1 1,1h1v8c0,1.103 0.897,2 2,2h8v1c0,0.553 0.448,1 1,1h3.363c1.36,5.724 6.502,10 12.637,10c7.168,0 13,-5.832 13,-13c0,-6.134 -4.276,-11.277 -10,-12.637zM44,32v-2h2v2zM32,18h2v2h-2zM8,19c0,-6.065 4.935,-11 11,-11c6.065,0 11,4.935 11,11c0,2.984 -1.198,5.69 -3.134,7.674c-0.406,-2.136 -1.782,-3.931 -3.71,-4.901c0.532,-0.795 0.844,-1.748 0.844,-2.773v-2c0,-2.757 -2.243,-5 -5,-5c-2.757,0 -5,2.243 -5,5v2c0,1.028 0.313,1.984 0.848,2.78c-1.907,0.976 -3.296,2.781 -3.71,4.898c-1.938,-1.984 -3.138,-4.692 -3.138,-7.678zM19,30c-2.214,0 -4.273,-0.663 -6,-1.792v-0.208c0,-1.032 0.337,-2 0.894,-2.813c1.055,1.707 2.929,2.813 5.011,2.813h0.202c2.079,0 3.957,-1.11 5.012,-2.819c0.551,0.809 0.881,1.775 0.881,2.819v0.208c-1.727,1.129 -3.786,1.792 -6,1.792zM19,24c0.942,0 1.814,-0.277 2.567,-0.732c0.38,0.125 0.743,0.28 1.073,0.484c-0.633,1.349 -2.007,2.248 -3.534,2.248h-0.202c-1.532,0 -2.902,-0.899 -3.533,-2.25c0.328,-0.204 0.688,-0.357 1.062,-0.481c0.754,0.454 1.625,0.731 2.567,0.731zM22,19c0,1.654 -1.346,3 -3,3c-1.654,0 -3,-1.346 -3,-3v-2c0,-1.654 1.346,-3 3,-3c1.654,0 3,1.346 3,3zM20,32v2h-2v-2zM28,43v1h-8v-8h1c0.552,0 1,-0.447 1,-1v-3.363c4.759,-1.13 8.506,-4.877 9.637,-9.637h3.363c0.552,0 1,-0.447 1,-1v-1h8v8h-1c-0.552,0 -1,0.447 -1,1v3.363c-4.759,1.13 -8.506,4.877 -9.637,9.637h-3.363c-0.552,0 -1,0.447 -1,1zM32,46h-2v-2h2zM39,54.208v-0.208c0,-1.027 0.331,-1.999 0.888,-2.813c1.055,1.707 2.929,2.813 5.011,2.813h0.202c2.077,0 3.955,-1.11 5.01,-2.817c0.557,0.813 0.889,1.784 0.889,2.817v0.208c-1.727,1.129 -3.786,1.792 -6,1.792c-2.214,0 -4.273,-0.663 -6,-1.792zM45,50c0.943,0 1.817,-0.278 2.571,-0.734c0.377,0.125 0.73,0.292 1.059,0.496c-0.635,1.344 -2.006,2.238 -3.529,2.238h-0.202c-1.526,0 -2.891,-0.893 -3.525,-2.236c0.327,-0.204 0.677,-0.375 1.052,-0.5c0.754,0.457 1.629,0.736 2.574,0.736zM48,45c0,1.654 -1.346,3 -3,3c-1.654,0 -3,-1.346 -3,-3v-2c0,-1.654 1.346,-3 3,-3c1.654,0 3,1.346 3,3zM52.861,52.679c-0.411,-2.117 -1.784,-3.934 -3.703,-4.911c0.531,-0.793 0.842,-1.744 0.842,-2.768v-2c0,-2.757 -2.243,-5 -5,-5c-2.757,0 -5,2.243 -5,5v2c0,1.022 0.311,1.971 0.839,2.764c-1.916,0.979 -3.286,2.807 -3.698,4.917c-1.94,-1.984 -3.141,-4.694 -3.141,-7.681c0,-6.065 4.935,-11 11,-11c6.065,0 11,4.935 11,11c0,2.986 -1.2,5.695 -3.139,7.679z" fill="url(#color-5)"></path></g></g></svg>