<svg xmlns="http://www.w3.org/2000/svg" xmlns:xlink="http://www.w3.org/1999/xlink" viewBox="0,0,256,256" width="50px" height="50px" fill-rule="nonzero"><defs><linearGradient x1="32" y1="9.128" x2="32" y2="55.513" gradientUnits="userSpaceOnUse" id="color-1"><stop offset="0" stop-color="#00ffff"></stop><stop offset="1" stop-color="#ed6f30"></stop></linearGradient><linearGradient x1="32" y1="6.234" x2="32" y2="56.96" gradientUnits="userSpaceOnUse" id="color-2"><stop offset="0" stop-color="#00ffff"></stop><stop offset="1" stop-color="#ed6f30"></stop></linearGradient></defs><g fill="none" fill-rule="nonzero" stroke="none" stroke-width="1" stroke-linecap="butt" stroke-linejoin="miter" stroke-miterlimit="10" stroke-dasharray="" stroke-dashoffset="0" font-family="none" font-weight="none" font-size="none" text-anchor="none" style="mix-blend-mode: normal"><g transform="translate(308.77126,137.47382) rotate(138) scale(4,4)"><path d="M58,32c0,-2.331 -3.369,-4.097 -8.373,-5.273c-0.089,-0.622 -0.198,-1.232 -0.317,-1.837c2.865,-0.954 4.69,-2.242 4.69,-3.89c0,-2.163 -3.142,-3.707 -7.657,-4.687c-0.372,-0.707 -0.769,-1.385 -1.188,-2.033c1.154,-0.769 1.845,-1.695 1.845,-2.78h-2c0,0.357 -0.345,0.761 -0.982,1.164c-3.19,-4.14 -7.403,-6.664 -12.018,-6.664c-4.615,0 -8.828,2.524 -12.018,6.664c-0.637,-0.403 -0.982,-0.807 -0.982,-1.164h-2c0,1.085 0.691,2.011 1.845,2.78c-0.419,0.648 -0.816,1.326 -1.188,2.033c-4.515,0.98 -7.657,2.524 -7.657,4.687c0,1.648 1.825,2.936 4.69,3.89c-0.119,0.605 -0.228,1.215 -0.317,1.837c-5.004,1.176 -8.373,2.942 -8.373,5.273c0,2.331 3.369,4.097 8.373,5.273c0.089,0.622 0.198,1.232 0.317,1.837c-2.865,0.954 -4.69,2.242 -4.69,3.89c0,2.163 3.142,3.707 7.657,4.687c0.372,0.707 0.769,1.385 1.188,2.033c-1.154,0.769 -1.845,1.695 -1.845,2.78h2c0,-0.357 0.345,-0.761 0.982,-1.164c3.19,4.14 7.403,6.664 12.018,6.664c4.615,0 8.828,-2.524 12.018,-6.664c0.637,0.403 0.982,0.807 0.982,1.164h2c0,-1.085 -0.691,-2.011 -1.845,-2.78c0.419,-0.648 0.816,-1.326 1.188,-2.033c4.515,-0.98 7.657,-2.524 7.657,-4.687c0,-1.648 -1.825,-2.936 -4.69,-3.89c0.119,-0.605 0.228,-1.215 0.317,-1.837c5.004,-1.176 8.373,-2.942 8.373,-5.273zM56,32c0,0.876 -2.079,2.131 -6.138,3.165c0.088,-1.038 0.138,-2.093 0.138,-3.165c0,-1.072 -0.05,-2.127 -0.138,-3.165c4.059,1.034 6.138,2.289 6.138,3.165zM32,56c-0.925,0 -2.271,-2.339 -3.335,-6.862c1.049,-0.086 2.158,-0.138 3.335,-0.138c1.177,0 2.286,0.052 3.335,0.138c-1.064,4.523 -2.41,6.862 -3.335,6.862zM16,32c0,-1.232 0.063,-2.442 0.183,-3.625c2.441,-0.497 5.424,-0.903 8.927,-1.142c-0.073,1.575 -0.11,3.172 -0.11,4.767c0,1.595 0.037,3.192 0.11,4.767c-3.503,-0.239 -6.486,-0.645 -8.927,-1.142c-0.12,-1.183 -0.183,-2.393 -0.183,-3.625zM32,8c0.925,0 2.271,2.339 3.335,6.862c-1.049,0.086 -2.158,0.138 -3.335,0.138c-1.177,0 -2.286,-0.052 -3.335,-0.138c1.064,-4.523 2.41,-6.862 3.335,-6.862zM37,32c0,1.724 -0.045,3.341 -0.117,4.883c-1.542,0.072 -3.159,0.117 -4.883,0.117c-1.724,0 -3.341,-0.045 -4.883,-0.117c-0.072,-1.542 -0.117,-3.159 -0.117,-4.883c0,-1.724 0.045,-3.341 0.117,-4.883c1.542,-0.072 3.159,-0.117 4.883,-0.117c1.724,0 3.341,0.045 4.883,0.117c0.072,1.542 0.117,3.159 0.117,4.883zM32,47c-1.335,0 -2.592,-0.034 -3.801,-0.086c-0.407,-2.203 -0.739,-4.804 -0.95,-7.786c1.484,-0.081 3.065,-0.128 4.751,-0.128c1.686,0 3.267,0.047 4.751,0.128c-0.211,2.982 -0.543,5.583 -0.95,7.786c-1.209,0.052 -2.466,0.086 -3.801,0.086zM32,17c1.335,0 2.592,0.034 3.801,0.086c0.407,2.203 0.739,4.804 0.95,7.786c-1.484,0.081 -3.065,0.128 -4.751,0.128c-1.686,0 -3.267,-0.047 -4.751,-0.128c0.211,-2.982 0.543,-5.583 0.95,-7.786c1.209,-0.052 2.466,-0.086 3.801,-0.086zM37.847,17.2c2.793,0.193 5.194,0.512 7.183,0.899c0.786,1.652 1.436,3.458 1.925,5.383c-2.108,0.525 -4.856,0.985 -8.212,1.257c-0.192,-2.663 -0.492,-5.217 -0.896,-7.539zM25.257,24.739c-3.356,-0.272 -6.104,-0.732 -8.212,-1.257c0.489,-1.925 1.139,-3.731 1.925,-5.383c1.989,-0.387 4.39,-0.706 7.183,-0.899c-0.404,2.322 -0.704,4.876 -0.896,7.539zM26.153,46.8c-2.793,-0.193 -5.194,-0.512 -7.183,-0.899c-0.786,-1.652 -1.436,-3.458 -1.925,-5.383c2.108,-0.525 4.856,-0.985 8.212,-1.257c0.192,2.663 0.492,5.217 0.896,7.539zM38.743,39.261c3.356,0.272 6.104,0.732 8.212,1.257c-0.489,1.925 -1.139,3.731 -1.925,5.383c-1.989,0.387 -4.39,0.706 -7.183,0.899c0.404,-2.322 0.704,-4.876 0.896,-7.539zM38.89,27.233c3.503,0.239 6.486,0.645 8.927,1.142c0.12,1.183 0.183,2.393 0.183,3.625c0,1.232 -0.063,2.442 -0.183,3.625c-2.441,0.497 -5.424,0.903 -8.927,1.142c0.073,-1.575 0.11,-3.172 0.11,-4.767c0,-1.595 -0.037,-3.192 -0.11,-4.767zM52,21c0,0.527 -1.075,1.246 -3.132,1.93c-0.387,-1.498 -0.867,-2.93 -1.43,-4.283c2.988,0.797 4.562,1.716 4.562,2.353zM42.194,13.517c-1.258,0.455 -2.901,0.86 -4.858,1.131c-0.578,-2.534 -1.304,-4.663 -2.174,-6.175c2.634,0.795 5.036,2.563 7.032,5.044zM28.838,8.473c-0.871,1.512 -1.597,3.641 -2.175,6.175c-1.957,-0.271 -3.6,-0.676 -4.858,-1.131c1.997,-2.481 4.399,-4.249 7.033,-5.044zM12,21c0,-0.637 1.574,-1.556 4.562,-2.353c-0.563,1.353 -1.043,2.786 -1.43,4.283c-2.057,-0.684 -3.132,-1.403 -3.132,-1.93zM8,32c0,-0.876 2.079,-2.131 6.138,-3.165c-0.088,1.038 -0.138,2.093 -0.138,3.165c0,1.072 0.05,2.127 0.138,3.165c-4.059,-1.034 -6.138,-2.289 -6.138,-3.165zM12,43c0,-0.527 1.075,-1.246 3.132,-1.93c0.387,1.498 0.867,2.93 1.43,4.283c-2.988,-0.797 -4.562,-1.716 -4.562,-2.353zM21.806,50.483c1.258,-0.455 2.901,-0.86 4.858,-1.131c0.578,2.534 1.304,4.663 2.175,6.175c-2.635,-0.795 -5.037,-2.563 -7.033,-5.044zM35.162,55.527c0.871,-1.512 1.597,-3.641 2.174,-6.175c1.957,0.271 3.6,0.676 4.858,1.131c-1.996,2.481 -4.398,4.249 -7.032,5.044zM52,43c0,0.637 -1.574,1.556 -4.562,2.353c0.563,-1.353 1.043,-2.786 1.43,-4.283c2.057,0.684 3.132,1.403 3.132,1.93z" fill="url(#color-1)"></path><path d="M32,58c-14.337,0 -26,-11.664 -26,-26c0,-14.336 11.663,-26 26,-26c14.337,0 26,11.664 26,26c0,14.336 -11.663,26 -26,26zM32,8c-13.233,0 -24,10.767 -24,24c0,13.233 10.767,24 24,24c13.233,0 24,-10.767 24,-24c0,-13.233 -10.767,-24 -24,-24z" fill="url(#color-2)"></path></g></g><g fill="#ed6f30" fill-rule="nonzero" stroke="none" stroke-width="1" stroke-linecap="butt" stroke-linejoin="miter" stroke-miterlimit="10" stroke-dasharray="" stroke-dashoffset="0" font-family="none" font-weight="none" font-size="none" text-anchor="none" style="mix-blend-mode: normal"><g><path d="M175.32234,212.61h-40.39l18.28,-105.22l32.81,0.07c12.18667,0.05333 21.34,2.53667 27.46,7.45c6.12,4.91333 8.89,11.82667 8.31,20.74v0c-0.67333,10.64667 -6.81667,18.42667 -18.43,23.34v0c4.19333,1.44667 7.44667,4.15667 9.76,8.13c2.31333,3.97333 3.3,8.65667 2.96,14.05v0c-0.67333,9.92667 -4.56333,17.65 -11.67,23.17c-7.10667,5.51333 -16.80333,8.27 -29.09,8.27zM184.07234,166.87l-19.95,-0.08l-4.98,28.4l16.69,0.08c5.2,0 9.56,-1.29 13.08,-3.87c3.52,-2.58 5.61667,-6.06 6.29,-10.44v0c0.67333,-4.34 0.08333,-7.72667 -1.77,-10.16c-1.86,-2.43333 -4.98,-3.74333 -9.36,-3.93zM171.35234,124.95l-4.63,26.52l14.39,0.15c5.34667,-0.1 9.71667,-1.35333 13.11,-3.76c3.4,-2.40667 5.43667,-5.75333 6.11,-10.04v0c1.2,-8.48 -3.25667,-12.74667 -13.37,-12.8v0z"></path></g></g></svg>