<?xml version="1.0" encoding="UTF-8"?>
<svg id="Layer_2" data-name="Layer 2" xmlns="http://www.w3.org/2000/svg" xmlns:xlink="http://www.w3.org/1999/xlink" viewBox="0 0 933.38 410.22" width="933.38px" height="410.22px">
  <defs>
    <style>
      .cls-1 {
        opacity: .3;
      }

      .cls-2 {
        fill: url(#radial-gradient);
      }

      .cls-3 {
        fill: none;
        stroke: #f8963e;
        stroke-miterlimit: 10;
        stroke-width: 12.77px;
      }

      .cls-4 {
        fill: #f8963e;
      }

      .cls-5 {
        opacity: .5;
      }

      .cls-6 {
        fill: #f9a764;
      }
    </style>
    <radialGradient id="radial-gradient" cx="466.69" cy="3712.4" fx="466.69" fy="3712.4" r="347.69" gradientTransform="translate(0 -2432.21) scale(1 .71)" gradientUnits="userSpaceOnUse">
      <stop offset=".08" stop-color="#fbb31f"/>
      <stop offset=".95" stop-color="#f8963e"/>
    </radialGradient>
  </defs>
  <g id="_01" data-name="01">
    <g>
      <g>
        <polygon class="cls-3" points="846.95 16.41 74.03 16.41 12.25 66.12 12.25 351.15 74.03 391.92 846.95 391.92 921.13 353.62 921.13 58.3 846.95 16.41"/>
        <g class="cls-1">
          <polygon class="cls-2" points="846.95 16.41 74.03 16.41 12.25 66.12 12.25 351.15 74.03 391.92 846.95 391.92 921.13 353.62 921.13 58.3 846.95 16.41"/>
        </g>
        <g>
          <polygon class="cls-4" points="60.44 298.66 60.44 111.56 86.43 95.55 86.43 72.84 41.11 100.76 41.11 309.46 86.43 337.38 86.43 314.67 60.44 298.66"/>
          <line class="cls-3" x1="12.25" y1="79.13" x2="12.25" y2="337.38"/>
          <g>
            <polygon class="cls-4" points="26.9 99.42 26.9 68.26 86.43 31.59 86.43 0 72.32 8.69 12.79 45.36 0 53.24 0 68.26 0 99.42 26.9 99.42"/>
            <polygon class="cls-4" points="26.9 310.8 0 310.8 0 341.96 0 356.98 12.79 364.86 72.32 401.53 86.43 410.22 86.43 378.63 26.9 341.96 26.9 310.8"/>
          </g>
        </g>
        <g>
          <polygon class="cls-4" points="872.94 298.66 872.94 111.56 846.95 95.55 846.95 72.84 892.27 100.76 892.27 309.46 846.95 337.38 846.95 314.67 872.94 298.66"/>
          <rect class="cls-4" x="914.75" y="79.13" width="12.77" height="258.25"/>
          <g>
            <polygon class="cls-4" points="906.48 99.42 906.48 68.26 846.95 31.59 846.95 0 861.06 8.69 920.59 45.36 933.38 53.24 933.38 68.26 933.38 99.42 906.48 99.42"/>
            <polygon class="cls-4" points="906.48 310.8 933.38 310.8 933.38 341.96 933.38 356.98 920.59 364.86 861.06 401.53 846.95 410.22 846.95 378.63 906.48 341.96 906.48 310.8"/>
          </g>
        </g>
      </g>
      <g class="cls-5">
        <g>
          <polygon class="cls-6" points="104.06 343.85 101.06 343.85 101.06 340.85 97.89 340.85 97.89 343.85 94.89 343.85 94.89 347.02 97.89 347.02 97.89 350.02 101.06 350.02 101.06 347.02 104.06 347.02 104.06 343.85"/>
          <polygon class="cls-6" points="139.03 343.85 136.03 343.85 136.03 340.85 132.86 340.85 132.86 343.85 129.86 343.85 129.86 347.02 132.86 347.02 132.86 350.02 136.03 350.02 136.03 347.02 139.03 347.02 139.03 343.85"/>
          <polygon class="cls-6" points="174 343.85 171.01 343.85 171.01 340.85 167.83 340.85 167.83 343.85 164.84 343.85 164.84 347.02 167.83 347.02 167.83 350.02 171.01 350.02 171.01 347.02 174 347.02 174 343.85"/>
          <polygon class="cls-6" points="208.98 343.85 205.98 343.85 205.98 340.85 202.81 340.85 202.81 343.85 199.81 343.85 199.81 347.02 202.81 347.02 202.81 350.02 205.98 350.02 205.98 347.02 208.98 347.02 208.98 343.85"/>
          <polygon class="cls-6" points="243.95 343.85 240.95 343.85 240.95 340.85 237.78 340.85 237.78 343.85 234.78 343.85 234.78 347.02 237.78 347.02 237.78 350.02 240.95 350.02 240.95 347.02 243.95 347.02 243.95 343.85"/>
          <polygon class="cls-6" points="278.92 343.85 275.93 343.85 275.93 340.85 272.75 340.85 272.75 343.85 269.76 343.85 269.76 347.02 272.75 347.02 272.75 350.02 275.93 350.02 275.93 347.02 278.92 347.02 278.92 343.85"/>
          <polygon class="cls-6" points="313.9 343.85 310.9 343.85 310.9 340.85 307.73 340.85 307.73 343.85 304.73 343.85 304.73 347.02 307.73 347.02 307.73 350.02 310.9 350.02 310.9 347.02 313.9 347.02 313.9 343.85"/>
          <polygon class="cls-6" points="348.87 343.85 345.87 343.85 345.87 340.85 342.7 340.85 342.7 343.85 339.7 343.85 339.7 347.02 342.7 347.02 342.7 350.02 345.87 350.02 345.87 347.02 348.87 347.02 348.87 343.85"/>
          <polygon class="cls-6" points="383.84 343.85 380.84 343.85 380.84 340.85 377.67 340.85 377.67 343.85 374.67 343.85 374.67 347.02 377.67 347.02 377.67 350.02 380.84 350.02 380.84 347.02 383.84 347.02 383.84 343.85"/>
          <polygon class="cls-6" points="418.82 343.85 415.82 343.85 415.82 340.85 412.64 340.85 412.64 343.85 409.65 343.85 409.65 347.02 412.64 347.02 412.64 350.02 415.82 350.02 415.82 347.02 418.82 347.02 418.82 343.85"/>
          <polygon class="cls-6" points="453.79 343.85 450.79 343.85 450.79 340.85 447.62 340.85 447.62 343.85 444.62 343.85 444.62 347.02 447.62 347.02 447.62 350.02 450.79 350.02 450.79 347.02 453.79 347.02 453.79 343.85"/>
          <polygon class="cls-6" points="488.76 343.85 485.76 343.85 485.76 340.85 482.59 340.85 482.59 343.85 479.59 343.85 479.59 347.02 482.59 347.02 482.59 350.02 485.76 350.02 485.76 347.02 488.76 347.02 488.76 343.85"/>
          <polygon class="cls-6" points="523.73 343.85 520.74 343.85 520.74 340.85 517.56 340.85 517.56 343.85 514.57 343.85 514.57 347.02 517.56 347.02 517.56 350.02 520.74 350.02 520.74 347.02 523.73 347.02 523.73 343.85"/>
          <polygon class="cls-6" points="558.71 343.85 555.71 343.85 555.71 340.85 552.54 340.85 552.54 343.85 549.54 343.85 549.54 347.02 552.54 347.02 552.54 350.02 555.71 350.02 555.71 347.02 558.71 347.02 558.71 343.85"/>
          <polygon class="cls-6" points="593.68 343.85 590.68 343.85 590.68 340.85 587.51 340.85 587.51 343.85 584.51 343.85 584.51 347.02 587.51 347.02 587.51 350.02 590.68 350.02 590.68 347.02 593.68 347.02 593.68 343.85"/>
          <polygon class="cls-6" points="628.65 343.85 625.66 343.85 625.66 340.85 622.48 340.85 622.48 343.85 619.48 343.85 619.48 347.02 622.48 347.02 622.48 350.02 625.66 350.02 625.66 347.02 628.65 347.02 628.65 343.85"/>
          <polygon class="cls-6" points="663.63 343.85 660.63 343.85 660.63 340.85 657.45 340.85 657.45 343.85 654.46 343.85 654.46 347.02 657.45 347.02 657.45 350.02 660.63 350.02 660.63 347.02 663.63 347.02 663.63 343.85"/>
          <polygon class="cls-6" points="698.6 343.85 695.6 343.85 695.6 340.85 692.43 340.85 692.43 343.85 689.43 343.85 689.43 347.02 692.43 347.02 692.43 350.02 695.6 350.02 695.6 347.02 698.6 347.02 698.6 343.85"/>
          <polygon class="cls-6" points="733.57 343.85 730.57 343.85 730.57 340.85 727.4 340.85 727.4 343.85 724.4 343.85 724.4 347.02 727.4 347.02 727.4 350.02 730.57 350.02 730.57 347.02 733.57 347.02 733.57 343.85"/>
          <polygon class="cls-6" points="768.54 343.85 765.55 343.85 765.55 340.85 762.37 340.85 762.37 343.85 759.38 343.85 759.38 347.02 762.37 347.02 762.37 350.02 765.55 350.02 765.55 347.02 768.54 347.02 768.54 343.85"/>
          <polygon class="cls-6" points="803.52 343.85 800.52 343.85 800.52 340.85 797.35 340.85 797.35 343.85 794.35 343.85 794.35 347.02 797.35 347.02 797.35 350.02 800.52 350.02 800.52 347.02 803.52 347.02 803.52 343.85"/>
          <polygon class="cls-6" points="838.49 343.85 835.49 343.85 835.49 340.85 832.32 340.85 832.32 343.85 829.32 343.85 829.32 347.02 832.32 347.02 832.32 350.02 835.49 350.02 835.49 347.02 838.49 347.02 838.49 343.85"/>
        </g>
        <g>
          <polygon class="cls-6" points="104.06 312.66 101.06 312.66 101.06 309.67 97.89 309.67 97.89 312.66 94.89 312.66 94.89 315.84 97.89 315.84 97.89 318.84 101.06 318.84 101.06 315.84 104.06 315.84 104.06 312.66"/>
          <polygon class="cls-6" points="139.03 312.66 136.03 312.66 136.03 309.67 132.86 309.67 132.86 312.66 129.86 312.66 129.86 315.84 132.86 315.84 132.86 318.84 136.03 318.84 136.03 315.84 139.03 315.84 139.03 312.66"/>
          <polygon class="cls-6" points="174 312.66 171.01 312.66 171.01 309.67 167.83 309.67 167.83 312.66 164.84 312.66 164.84 315.84 167.83 315.84 167.83 318.84 171.01 318.84 171.01 315.84 174 315.84 174 312.66"/>
          <polygon class="cls-6" points="208.98 312.66 205.98 312.66 205.98 309.67 202.81 309.67 202.81 312.66 199.81 312.66 199.81 315.84 202.81 315.84 202.81 318.84 205.98 318.84 205.98 315.84 208.98 315.84 208.98 312.66"/>
          <polygon class="cls-6" points="243.95 312.66 240.95 312.66 240.95 309.67 237.78 309.67 237.78 312.66 234.78 312.66 234.78 315.84 237.78 315.84 237.78 318.84 240.95 318.84 240.95 315.84 243.95 315.84 243.95 312.66"/>
          <polygon class="cls-6" points="278.92 312.66 275.93 312.66 275.93 309.67 272.75 309.67 272.75 312.66 269.76 312.66 269.76 315.84 272.75 315.84 272.75 318.84 275.93 318.84 275.93 315.84 278.92 315.84 278.92 312.66"/>
          <polygon class="cls-6" points="313.9 312.66 310.9 312.66 310.9 309.67 307.73 309.67 307.73 312.66 304.73 312.66 304.73 315.84 307.73 315.84 307.73 318.84 310.9 318.84 310.9 315.84 313.9 315.84 313.9 312.66"/>
          <polygon class="cls-6" points="348.87 312.66 345.87 312.66 345.87 309.67 342.7 309.67 342.7 312.66 339.7 312.66 339.7 315.84 342.7 315.84 342.7 318.84 345.87 318.84 345.87 315.84 348.87 315.84 348.87 312.66"/>
          <polygon class="cls-6" points="383.84 312.66 380.84 312.66 380.84 309.67 377.67 309.67 377.67 312.66 374.67 312.66 374.67 315.84 377.67 315.84 377.67 318.84 380.84 318.84 380.84 315.84 383.84 315.84 383.84 312.66"/>
          <polygon class="cls-6" points="418.82 312.66 415.82 312.66 415.82 309.67 412.64 309.67 412.64 312.66 409.65 312.66 409.65 315.84 412.64 315.84 412.64 318.84 415.82 318.84 415.82 315.84 418.82 315.84 418.82 312.66"/>
          <polygon class="cls-6" points="453.79 312.66 450.79 312.66 450.79 309.67 447.62 309.67 447.62 312.66 444.62 312.66 444.62 315.84 447.62 315.84 447.62 318.84 450.79 318.84 450.79 315.84 453.79 315.84 453.79 312.66"/>
          <polygon class="cls-6" points="488.76 312.66 485.76 312.66 485.76 309.67 482.59 309.67 482.59 312.66 479.59 312.66 479.59 315.84 482.59 315.84 482.59 318.84 485.76 318.84 485.76 315.84 488.76 315.84 488.76 312.66"/>
          <polygon class="cls-6" points="523.73 312.66 520.74 312.66 520.74 309.67 517.56 309.67 517.56 312.66 514.57 312.66 514.57 315.84 517.56 315.84 517.56 318.84 520.74 318.84 520.74 315.84 523.73 315.84 523.73 312.66"/>
          <polygon class="cls-6" points="558.71 312.66 555.71 312.66 555.71 309.67 552.54 309.67 552.54 312.66 549.54 312.66 549.54 315.84 552.54 315.84 552.54 318.84 555.71 318.84 555.71 315.84 558.71 315.84 558.71 312.66"/>
          <polygon class="cls-6" points="593.68 312.66 590.68 312.66 590.68 309.67 587.51 309.67 587.51 312.66 584.51 312.66 584.51 315.84 587.51 315.84 587.51 318.84 590.68 318.84 590.68 315.84 593.68 315.84 593.68 312.66"/>
          <polygon class="cls-6" points="628.65 312.66 625.66 312.66 625.66 309.67 622.48 309.67 622.48 312.66 619.48 312.66 619.48 315.84 622.48 315.84 622.48 318.84 625.66 318.84 625.66 315.84 628.65 315.84 628.65 312.66"/>
          <polygon class="cls-6" points="663.63 312.66 660.63 312.66 660.63 309.67 657.45 309.67 657.45 312.66 654.46 312.66 654.46 315.84 657.45 315.84 657.45 318.84 660.63 318.84 660.63 315.84 663.63 315.84 663.63 312.66"/>
          <polygon class="cls-6" points="698.6 312.66 695.6 312.66 695.6 309.67 692.43 309.67 692.43 312.66 689.43 312.66 689.43 315.84 692.43 315.84 692.43 318.84 695.6 318.84 695.6 315.84 698.6 315.84 698.6 312.66"/>
          <polygon class="cls-6" points="733.57 312.66 730.57 312.66 730.57 309.67 727.4 309.67 727.4 312.66 724.4 312.66 724.4 315.84 727.4 315.84 727.4 318.84 730.57 318.84 730.57 315.84 733.57 315.84 733.57 312.66"/>
          <polygon class="cls-6" points="768.54 312.66 765.55 312.66 765.55 309.67 762.37 309.67 762.37 312.66 759.38 312.66 759.38 315.84 762.37 315.84 762.37 318.84 765.55 318.84 765.55 315.84 768.54 315.84 768.54 312.66"/>
          <polygon class="cls-6" points="803.52 312.66 800.52 312.66 800.52 309.67 797.35 309.67 797.35 312.66 794.35 312.66 794.35 315.84 797.35 315.84 797.35 318.84 800.52 318.84 800.52 315.84 803.52 315.84 803.52 312.66"/>
          <polygon class="cls-6" points="838.49 312.66 835.49 312.66 835.49 309.67 832.32 309.67 832.32 312.66 829.32 312.66 829.32 315.84 832.32 315.84 832.32 318.84 835.49 318.84 835.49 315.84 838.49 315.84 838.49 312.66"/>
        </g>
        <g>
          <polygon class="cls-6" points="104.06 281.48 101.06 281.48 101.06 278.48 97.89 278.48 97.89 281.48 94.89 281.48 94.89 284.65 97.89 284.65 97.89 287.65 101.06 287.65 101.06 284.65 104.06 284.65 104.06 281.48"/>
          <polygon class="cls-6" points="139.03 281.48 136.03 281.48 136.03 278.48 132.86 278.48 132.86 281.48 129.86 281.48 129.86 284.65 132.86 284.65 132.86 287.65 136.03 287.65 136.03 284.65 139.03 284.65 139.03 281.48"/>
          <polygon class="cls-6" points="174 281.48 171.01 281.48 171.01 278.48 167.83 278.48 167.83 281.48 164.84 281.48 164.84 284.65 167.83 284.65 167.83 287.65 171.01 287.65 171.01 284.65 174 284.65 174 281.48"/>
          <polygon class="cls-6" points="208.98 281.48 205.98 281.48 205.98 278.48 202.81 278.48 202.81 281.48 199.81 281.48 199.81 284.65 202.81 284.65 202.81 287.65 205.98 287.65 205.98 284.65 208.98 284.65 208.98 281.48"/>
          <polygon class="cls-6" points="243.95 281.48 240.95 281.48 240.95 278.48 237.78 278.48 237.78 281.48 234.78 281.48 234.78 284.65 237.78 284.65 237.78 287.65 240.95 287.65 240.95 284.65 243.95 284.65 243.95 281.48"/>
          <polygon class="cls-6" points="278.92 281.48 275.93 281.48 275.93 278.48 272.75 278.48 272.75 281.48 269.76 281.48 269.76 284.65 272.75 284.65 272.75 287.65 275.93 287.65 275.93 284.65 278.92 284.65 278.92 281.48"/>
          <polygon class="cls-6" points="313.9 281.48 310.9 281.48 310.9 278.48 307.73 278.48 307.73 281.48 304.73 281.48 304.73 284.65 307.73 284.65 307.73 287.65 310.9 287.65 310.9 284.65 313.9 284.65 313.9 281.48"/>
          <polygon class="cls-6" points="348.87 281.48 345.87 281.48 345.87 278.48 342.7 278.48 342.7 281.48 339.7 281.48 339.7 284.65 342.7 284.65 342.7 287.65 345.87 287.65 345.87 284.65 348.87 284.65 348.87 281.48"/>
          <polygon class="cls-6" points="383.84 281.48 380.84 281.48 380.84 278.48 377.67 278.48 377.67 281.48 374.67 281.48 374.67 284.65 377.67 284.65 377.67 287.65 380.84 287.65 380.84 284.65 383.84 284.65 383.84 281.48"/>
          <polygon class="cls-6" points="418.82 281.48 415.82 281.48 415.82 278.48 412.64 278.48 412.64 281.48 409.65 281.48 409.65 284.65 412.64 284.65 412.64 287.65 415.82 287.65 415.82 284.65 418.82 284.65 418.82 281.48"/>
          <polygon class="cls-6" points="453.79 281.48 450.79 281.48 450.79 278.48 447.62 278.48 447.62 281.48 444.62 281.48 444.62 284.65 447.62 284.65 447.62 287.65 450.79 287.65 450.79 284.65 453.79 284.65 453.79 281.48"/>
          <polygon class="cls-6" points="488.76 281.48 485.76 281.48 485.76 278.48 482.59 278.48 482.59 281.48 479.59 281.48 479.59 284.65 482.59 284.65 482.59 287.65 485.76 287.65 485.76 284.65 488.76 284.65 488.76 281.48"/>
          <polygon class="cls-6" points="523.73 281.48 520.74 281.48 520.74 278.48 517.56 278.48 517.56 281.48 514.57 281.48 514.57 284.65 517.56 284.65 517.56 287.65 520.74 287.65 520.74 284.65 523.73 284.65 523.73 281.48"/>
          <polygon class="cls-6" points="558.71 281.48 555.71 281.48 555.71 278.48 552.54 278.48 552.54 281.48 549.54 281.48 549.54 284.65 552.54 284.65 552.54 287.65 555.71 287.65 555.71 284.65 558.71 284.65 558.71 281.48"/>
          <polygon class="cls-6" points="593.68 281.48 590.68 281.48 590.68 278.48 587.51 278.48 587.51 281.48 584.51 281.48 584.51 284.65 587.51 284.65 587.51 287.65 590.68 287.65 590.68 284.65 593.68 284.65 593.68 281.48"/>
          <polygon class="cls-6" points="628.65 281.48 625.66 281.48 625.66 278.48 622.48 278.48 622.48 281.48 619.48 281.48 619.48 284.65 622.48 284.65 622.48 287.65 625.66 287.65 625.66 284.65 628.65 284.65 628.65 281.48"/>
          <polygon class="cls-6" points="663.63 281.48 660.63 281.48 660.63 278.48 657.45 278.48 657.45 281.48 654.46 281.48 654.46 284.65 657.45 284.65 657.45 287.65 660.63 287.65 660.63 284.65 663.63 284.65 663.63 281.48"/>
          <polygon class="cls-6" points="698.6 281.48 695.6 281.48 695.6 278.48 692.43 278.48 692.43 281.48 689.43 281.48 689.43 284.65 692.43 284.65 692.43 287.65 695.6 287.65 695.6 284.65 698.6 284.65 698.6 281.48"/>
          <polygon class="cls-6" points="733.57 281.48 730.57 281.48 730.57 278.48 727.4 278.48 727.4 281.48 724.4 281.48 724.4 284.65 727.4 284.65 727.4 287.65 730.57 287.65 730.57 284.65 733.57 284.65 733.57 281.48"/>
          <polygon class="cls-6" points="768.54 281.48 765.55 281.48 765.55 278.48 762.37 278.48 762.37 281.48 759.38 281.48 759.38 284.65 762.37 284.65 762.37 287.65 765.55 287.65 765.55 284.65 768.54 284.65 768.54 281.48"/>
          <polygon class="cls-6" points="803.52 281.48 800.52 281.48 800.52 278.48 797.35 278.48 797.35 281.48 794.35 281.48 794.35 284.65 797.35 284.65 797.35 287.65 800.52 287.65 800.52 284.65 803.52 284.65 803.52 281.48"/>
          <polygon class="cls-6" points="838.49 281.48 835.49 281.48 835.49 278.48 832.32 278.48 832.32 281.48 829.32 281.48 829.32 284.65 832.32 284.65 832.32 287.65 835.49 287.65 835.49 284.65 838.49 284.65 838.49 281.48"/>
        </g>
        <g>
          <polygon class="cls-6" points="104.06 250.3 101.06 250.3 101.06 247.3 97.89 247.3 97.89 250.3 94.89 250.3 94.89 253.47 97.89 253.47 97.89 256.47 101.06 256.47 101.06 253.47 104.06 253.47 104.06 250.3"/>
          <polygon class="cls-6" points="139.03 250.3 136.03 250.3 136.03 247.3 132.86 247.3 132.86 250.3 129.86 250.3 129.86 253.47 132.86 253.47 132.86 256.47 136.03 256.47 136.03 253.47 139.03 253.47 139.03 250.3"/>
          <polygon class="cls-6" points="174 250.3 171.01 250.3 171.01 247.3 167.83 247.3 167.83 250.3 164.84 250.3 164.84 253.47 167.83 253.47 167.83 256.47 171.01 256.47 171.01 253.47 174 253.47 174 250.3"/>
          <polygon class="cls-6" points="208.98 250.3 205.98 250.3 205.98 247.3 202.81 247.3 202.81 250.3 199.81 250.3 199.81 253.47 202.81 253.47 202.81 256.47 205.98 256.47 205.98 253.47 208.98 253.47 208.98 250.3"/>
          <polygon class="cls-6" points="243.95 250.3 240.95 250.3 240.95 247.3 237.78 247.3 237.78 250.3 234.78 250.3 234.78 253.47 237.78 253.47 237.78 256.47 240.95 256.47 240.95 253.47 243.95 253.47 243.95 250.3"/>
          <polygon class="cls-6" points="278.92 250.3 275.93 250.3 275.93 247.3 272.75 247.3 272.75 250.3 269.76 250.3 269.76 253.47 272.75 253.47 272.75 256.47 275.93 256.47 275.93 253.47 278.92 253.47 278.92 250.3"/>
          <polygon class="cls-6" points="313.9 250.3 310.9 250.3 310.9 247.3 307.73 247.3 307.73 250.3 304.73 250.3 304.73 253.47 307.73 253.47 307.73 256.47 310.9 256.47 310.9 253.47 313.9 253.47 313.9 250.3"/>
          <polygon class="cls-6" points="348.87 250.3 345.87 250.3 345.87 247.3 342.7 247.3 342.7 250.3 339.7 250.3 339.7 253.47 342.7 253.47 342.7 256.47 345.87 256.47 345.87 253.47 348.87 253.47 348.87 250.3"/>
          <polygon class="cls-6" points="383.84 250.3 380.84 250.3 380.84 247.3 377.67 247.3 377.67 250.3 374.67 250.3 374.67 253.47 377.67 253.47 377.67 256.47 380.84 256.47 380.84 253.47 383.84 253.47 383.84 250.3"/>
          <polygon class="cls-6" points="418.82 250.3 415.82 250.3 415.82 247.3 412.64 247.3 412.64 250.3 409.65 250.3 409.65 253.47 412.64 253.47 412.64 256.47 415.82 256.47 415.82 253.47 418.82 253.47 418.82 250.3"/>
          <polygon class="cls-6" points="453.79 250.3 450.79 250.3 450.79 247.3 447.62 247.3 447.62 250.3 444.62 250.3 444.62 253.47 447.62 253.47 447.62 256.47 450.79 256.47 450.79 253.47 453.79 253.47 453.79 250.3"/>
          <polygon class="cls-6" points="488.76 250.3 485.76 250.3 485.76 247.3 482.59 247.3 482.59 250.3 479.59 250.3 479.59 253.47 482.59 253.47 482.59 256.47 485.76 256.47 485.76 253.47 488.76 253.47 488.76 250.3"/>
          <polygon class="cls-6" points="523.73 250.3 520.74 250.3 520.74 247.3 517.56 247.3 517.56 250.3 514.57 250.3 514.57 253.47 517.56 253.47 517.56 256.47 520.74 256.47 520.74 253.47 523.73 253.47 523.73 250.3"/>
          <polygon class="cls-6" points="558.71 250.3 555.71 250.3 555.71 247.3 552.54 247.3 552.54 250.3 549.54 250.3 549.54 253.47 552.54 253.47 552.54 256.47 555.71 256.47 555.71 253.47 558.71 253.47 558.71 250.3"/>
          <polygon class="cls-6" points="593.68 250.3 590.68 250.3 590.68 247.3 587.51 247.3 587.51 250.3 584.51 250.3 584.51 253.47 587.51 253.47 587.51 256.47 590.68 256.47 590.68 253.47 593.68 253.47 593.68 250.3"/>
          <polygon class="cls-6" points="628.65 250.3 625.66 250.3 625.66 247.3 622.48 247.3 622.48 250.3 619.48 250.3 619.48 253.47 622.48 253.47 622.48 256.47 625.66 256.47 625.66 253.47 628.65 253.47 628.65 250.3"/>
          <polygon class="cls-6" points="663.63 250.3 660.63 250.3 660.63 247.3 657.45 247.3 657.45 250.3 654.46 250.3 654.46 253.47 657.45 253.47 657.45 256.47 660.63 256.47 660.63 253.47 663.63 253.47 663.63 250.3"/>
          <polygon class="cls-6" points="698.6 250.3 695.6 250.3 695.6 247.3 692.43 247.3 692.43 250.3 689.43 250.3 689.43 253.47 692.43 253.47 692.43 256.47 695.6 256.47 695.6 253.47 698.6 253.47 698.6 250.3"/>
          <polygon class="cls-6" points="733.57 250.3 730.57 250.3 730.57 247.3 727.4 247.3 727.4 250.3 724.4 250.3 724.4 253.47 727.4 253.47 727.4 256.47 730.57 256.47 730.57 253.47 733.57 253.47 733.57 250.3"/>
          <polygon class="cls-6" points="768.54 250.3 765.55 250.3 765.55 247.3 762.37 247.3 762.37 250.3 759.38 250.3 759.38 253.47 762.37 253.47 762.37 256.47 765.55 256.47 765.55 253.47 768.54 253.47 768.54 250.3"/>
          <polygon class="cls-6" points="803.52 250.3 800.52 250.3 800.52 247.3 797.35 247.3 797.35 250.3 794.35 250.3 794.35 253.47 797.35 253.47 797.35 256.47 800.52 256.47 800.52 253.47 803.52 253.47 803.52 250.3"/>
          <polygon class="cls-6" points="838.49 250.3 835.49 250.3 835.49 247.3 832.32 247.3 832.32 250.3 829.32 250.3 829.32 253.47 832.32 253.47 832.32 256.47 835.49 256.47 835.49 253.47 838.49 253.47 838.49 250.3"/>
        </g>
        <g>
          <polygon class="cls-6" points="104.06 219.11 101.06 219.11 101.06 216.12 97.89 216.12 97.89 219.11 94.89 219.11 94.89 222.29 97.89 222.29 97.89 225.29 101.06 225.29 101.06 222.29 104.06 222.29 104.06 219.11"/>
          <polygon class="cls-6" points="139.03 219.11 136.03 219.11 136.03 216.12 132.86 216.12 132.86 219.11 129.86 219.11 129.86 222.29 132.86 222.29 132.86 225.29 136.03 225.29 136.03 222.29 139.03 222.29 139.03 219.11"/>
          <polygon class="cls-6" points="174 219.11 171.01 219.11 171.01 216.12 167.83 216.12 167.83 219.11 164.84 219.11 164.84 222.29 167.83 222.29 167.83 225.29 171.01 225.29 171.01 222.29 174 222.29 174 219.11"/>
          <polygon class="cls-6" points="208.98 219.11 205.98 219.11 205.98 216.12 202.81 216.12 202.81 219.11 199.81 219.11 199.81 222.29 202.81 222.29 202.81 225.29 205.98 225.29 205.98 222.29 208.98 222.29 208.98 219.11"/>
          <polygon class="cls-6" points="243.95 219.11 240.95 219.11 240.95 216.12 237.78 216.12 237.78 219.11 234.78 219.11 234.78 222.29 237.78 222.29 237.78 225.29 240.95 225.29 240.95 222.29 243.95 222.29 243.95 219.11"/>
          <polygon class="cls-6" points="278.92 219.11 275.93 219.11 275.93 216.12 272.75 216.12 272.75 219.11 269.76 219.11 269.76 222.29 272.75 222.29 272.75 225.29 275.93 225.29 275.93 222.29 278.92 222.29 278.92 219.11"/>
          <polygon class="cls-6" points="313.9 219.11 310.9 219.11 310.9 216.12 307.73 216.12 307.73 219.11 304.73 219.11 304.73 222.29 307.73 222.29 307.73 225.29 310.9 225.29 310.9 222.29 313.9 222.29 313.9 219.11"/>
          <polygon class="cls-6" points="348.87 219.11 345.87 219.11 345.87 216.12 342.7 216.12 342.7 219.11 339.7 219.11 339.7 222.29 342.7 222.29 342.7 225.29 345.87 225.29 345.87 222.29 348.87 222.29 348.87 219.11"/>
          <polygon class="cls-6" points="383.84 219.11 380.84 219.11 380.84 216.12 377.67 216.12 377.67 219.11 374.67 219.11 374.67 222.29 377.67 222.29 377.67 225.29 380.84 225.29 380.84 222.29 383.84 222.29 383.84 219.11"/>
          <polygon class="cls-6" points="418.82 219.11 415.82 219.11 415.82 216.12 412.64 216.12 412.64 219.11 409.65 219.11 409.65 222.29 412.64 222.29 412.64 225.29 415.82 225.29 415.82 222.29 418.82 222.29 418.82 219.11"/>
          <polygon class="cls-6" points="453.79 219.11 450.79 219.11 450.79 216.12 447.62 216.12 447.62 219.11 444.62 219.11 444.62 222.29 447.62 222.29 447.62 225.29 450.79 225.29 450.79 222.29 453.79 222.29 453.79 219.11"/>
          <polygon class="cls-6" points="488.76 219.11 485.76 219.11 485.76 216.12 482.59 216.12 482.59 219.11 479.59 219.11 479.59 222.29 482.59 222.29 482.59 225.29 485.76 225.29 485.76 222.29 488.76 222.29 488.76 219.11"/>
          <polygon class="cls-6" points="523.73 219.11 520.74 219.11 520.74 216.12 517.56 216.12 517.56 219.11 514.57 219.11 514.57 222.29 517.56 222.29 517.56 225.29 520.74 225.29 520.74 222.29 523.73 222.29 523.73 219.11"/>
          <polygon class="cls-6" points="558.71 219.11 555.71 219.11 555.71 216.12 552.54 216.12 552.54 219.11 549.54 219.11 549.54 222.29 552.54 222.29 552.54 225.29 555.71 225.29 555.71 222.29 558.71 222.29 558.71 219.11"/>
          <polygon class="cls-6" points="593.68 219.11 590.68 219.11 590.68 216.12 587.51 216.12 587.51 219.11 584.51 219.11 584.51 222.29 587.51 222.29 587.51 225.29 590.68 225.29 590.68 222.29 593.68 222.29 593.68 219.11"/>
          <polygon class="cls-6" points="628.65 219.11 625.66 219.11 625.66 216.12 622.48 216.12 622.48 219.11 619.48 219.11 619.48 222.29 622.48 222.29 622.48 225.29 625.66 225.29 625.66 222.29 628.65 222.29 628.65 219.11"/>
          <polygon class="cls-6" points="663.63 219.11 660.63 219.11 660.63 216.12 657.45 216.12 657.45 219.11 654.46 219.11 654.46 222.29 657.45 222.29 657.45 225.29 660.63 225.29 660.63 222.29 663.63 222.29 663.63 219.11"/>
          <polygon class="cls-6" points="698.6 219.11 695.6 219.11 695.6 216.12 692.43 216.12 692.43 219.11 689.43 219.11 689.43 222.29 692.43 222.29 692.43 225.29 695.6 225.29 695.6 222.29 698.6 222.29 698.6 219.11"/>
          <polygon class="cls-6" points="733.57 219.11 730.57 219.11 730.57 216.12 727.4 216.12 727.4 219.11 724.4 219.11 724.4 222.29 727.4 222.29 727.4 225.29 730.57 225.29 730.57 222.29 733.57 222.29 733.57 219.11"/>
          <polygon class="cls-6" points="768.54 219.11 765.55 219.11 765.55 216.12 762.37 216.12 762.37 219.11 759.38 219.11 759.38 222.29 762.37 222.29 762.37 225.29 765.55 225.29 765.55 222.29 768.54 222.29 768.54 219.11"/>
          <polygon class="cls-6" points="803.52 219.11 800.52 219.11 800.52 216.12 797.35 216.12 797.35 219.11 794.35 219.11 794.35 222.29 797.35 222.29 797.35 225.29 800.52 225.29 800.52 222.29 803.52 222.29 803.52 219.11"/>
          <polygon class="cls-6" points="838.49 219.11 835.49 219.11 835.49 216.12 832.32 216.12 832.32 219.11 829.32 219.11 829.32 222.29 832.32 222.29 832.32 225.29 835.49 225.29 835.49 222.29 838.49 222.29 838.49 219.11"/>
        </g>
        <g>
          <polygon class="cls-6" points="104.06 187.93 101.06 187.93 101.06 184.93 97.89 184.93 97.89 187.93 94.89 187.93 94.89 191.1 97.89 191.1 97.89 194.1 101.06 194.1 101.06 191.1 104.06 191.1 104.06 187.93"/>
          <polygon class="cls-6" points="139.03 187.93 136.03 187.93 136.03 184.93 132.86 184.93 132.86 187.93 129.86 187.93 129.86 191.1 132.86 191.1 132.86 194.1 136.03 194.1 136.03 191.1 139.03 191.1 139.03 187.93"/>
          <polygon class="cls-6" points="174 187.93 171.01 187.93 171.01 184.93 167.83 184.93 167.83 187.93 164.84 187.93 164.84 191.1 167.83 191.1 167.83 194.1 171.01 194.1 171.01 191.1 174 191.1 174 187.93"/>
          <polygon class="cls-6" points="208.98 187.93 205.98 187.93 205.98 184.93 202.81 184.93 202.81 187.93 199.81 187.93 199.81 191.1 202.81 191.1 202.81 194.1 205.98 194.1 205.98 191.1 208.98 191.1 208.98 187.93"/>
          <polygon class="cls-6" points="243.95 187.93 240.95 187.93 240.95 184.93 237.78 184.93 237.78 187.93 234.78 187.93 234.78 191.1 237.78 191.1 237.78 194.1 240.95 194.1 240.95 191.1 243.95 191.1 243.95 187.93"/>
          <polygon class="cls-6" points="278.92 187.93 275.93 187.93 275.93 184.93 272.75 184.93 272.75 187.93 269.76 187.93 269.76 191.1 272.75 191.1 272.75 194.1 275.93 194.1 275.93 191.1 278.92 191.1 278.92 187.93"/>
          <polygon class="cls-6" points="313.9 187.93 310.9 187.93 310.9 184.93 307.73 184.93 307.73 187.93 304.73 187.93 304.73 191.1 307.73 191.1 307.73 194.1 310.9 194.1 310.9 191.1 313.9 191.1 313.9 187.93"/>
          <polygon class="cls-6" points="348.87 187.93 345.87 187.93 345.87 184.93 342.7 184.93 342.7 187.93 339.7 187.93 339.7 191.1 342.7 191.1 342.7 194.1 345.87 194.1 345.87 191.1 348.87 191.1 348.87 187.93"/>
          <polygon class="cls-6" points="383.84 187.93 380.84 187.93 380.84 184.93 377.67 184.93 377.67 187.93 374.67 187.93 374.67 191.1 377.67 191.1 377.67 194.1 380.84 194.1 380.84 191.1 383.84 191.1 383.84 187.93"/>
          <polygon class="cls-6" points="418.82 187.93 415.82 187.93 415.82 184.93 412.64 184.93 412.64 187.93 409.65 187.93 409.65 191.1 412.64 191.1 412.64 194.1 415.82 194.1 415.82 191.1 418.82 191.1 418.82 187.93"/>
          <polygon class="cls-6" points="453.79 187.93 450.79 187.93 450.79 184.93 447.62 184.93 447.62 187.93 444.62 187.93 444.62 191.1 447.62 191.1 447.62 194.1 450.79 194.1 450.79 191.1 453.79 191.1 453.79 187.93"/>
          <polygon class="cls-6" points="488.76 187.93 485.76 187.93 485.76 184.93 482.59 184.93 482.59 187.93 479.59 187.93 479.59 191.1 482.59 191.1 482.59 194.1 485.76 194.1 485.76 191.1 488.76 191.1 488.76 187.93"/>
          <polygon class="cls-6" points="523.73 187.93 520.74 187.93 520.74 184.93 517.56 184.93 517.56 187.93 514.57 187.93 514.57 191.1 517.56 191.1 517.56 194.1 520.74 194.1 520.74 191.1 523.73 191.1 523.73 187.93"/>
          <polygon class="cls-6" points="558.71 187.93 555.71 187.93 555.71 184.93 552.54 184.93 552.54 187.93 549.54 187.93 549.54 191.1 552.54 191.1 552.54 194.1 555.71 194.1 555.71 191.1 558.71 191.1 558.71 187.93"/>
          <polygon class="cls-6" points="593.68 187.93 590.68 187.93 590.68 184.93 587.51 184.93 587.51 187.93 584.51 187.93 584.51 191.1 587.51 191.1 587.51 194.1 590.68 194.1 590.68 191.1 593.68 191.1 593.68 187.93"/>
          <polygon class="cls-6" points="628.65 187.93 625.66 187.93 625.66 184.93 622.48 184.93 622.48 187.93 619.48 187.93 619.48 191.1 622.48 191.1 622.48 194.1 625.66 194.1 625.66 191.1 628.65 191.1 628.65 187.93"/>
          <polygon class="cls-6" points="663.63 187.93 660.63 187.93 660.63 184.93 657.45 184.93 657.45 187.93 654.46 187.93 654.46 191.1 657.45 191.1 657.45 194.1 660.63 194.1 660.63 191.1 663.63 191.1 663.63 187.93"/>
          <polygon class="cls-6" points="698.6 187.93 695.6 187.93 695.6 184.93 692.43 184.93 692.43 187.93 689.43 187.93 689.43 191.1 692.43 191.1 692.43 194.1 695.6 194.1 695.6 191.1 698.6 191.1 698.6 187.93"/>
          <polygon class="cls-6" points="733.57 187.93 730.57 187.93 730.57 184.93 727.4 184.93 727.4 187.93 724.4 187.93 724.4 191.1 727.4 191.1 727.4 194.1 730.57 194.1 730.57 191.1 733.57 191.1 733.57 187.93"/>
          <polygon class="cls-6" points="768.54 187.93 765.55 187.93 765.55 184.93 762.37 184.93 762.37 187.93 759.38 187.93 759.38 191.1 762.37 191.1 762.37 194.1 765.55 194.1 765.55 191.1 768.54 191.1 768.54 187.93"/>
          <polygon class="cls-6" points="803.52 187.93 800.52 187.93 800.52 184.93 797.35 184.93 797.35 187.93 794.35 187.93 794.35 191.1 797.35 191.1 797.35 194.1 800.52 194.1 800.52 191.1 803.52 191.1 803.52 187.93"/>
          <polygon class="cls-6" points="838.49 187.93 835.49 187.93 835.49 184.93 832.32 184.93 832.32 187.93 829.32 187.93 829.32 191.1 832.32 191.1 832.32 194.1 835.49 194.1 835.49 191.1 838.49 191.1 838.49 187.93"/>
        </g>
        <g>
          <polygon class="cls-6" points="104.06 156.75 101.06 156.75 101.06 153.75 97.89 153.75 97.89 156.75 94.89 156.75 94.89 159.92 97.89 159.92 97.89 162.92 101.06 162.92 101.06 159.92 104.06 159.92 104.06 156.75"/>
          <polygon class="cls-6" points="139.03 156.75 136.03 156.75 136.03 153.75 132.86 153.75 132.86 156.75 129.86 156.75 129.86 159.92 132.86 159.92 132.86 162.92 136.03 162.92 136.03 159.92 139.03 159.92 139.03 156.75"/>
          <polygon class="cls-6" points="174 156.75 171.01 156.75 171.01 153.75 167.83 153.75 167.83 156.75 164.84 156.75 164.84 159.92 167.83 159.92 167.83 162.92 171.01 162.92 171.01 159.92 174 159.92 174 156.75"/>
          <polygon class="cls-6" points="208.98 156.75 205.98 156.75 205.98 153.75 202.81 153.75 202.81 156.75 199.81 156.75 199.81 159.92 202.81 159.92 202.81 162.92 205.98 162.92 205.98 159.92 208.98 159.92 208.98 156.75"/>
          <polygon class="cls-6" points="243.95 156.75 240.95 156.75 240.95 153.75 237.78 153.75 237.78 156.75 234.78 156.75 234.78 159.92 237.78 159.92 237.78 162.92 240.95 162.92 240.95 159.92 243.95 159.92 243.95 156.75"/>
          <polygon class="cls-6" points="278.92 156.75 275.93 156.75 275.93 153.75 272.75 153.75 272.75 156.75 269.76 156.75 269.76 159.92 272.75 159.92 272.75 162.92 275.93 162.92 275.93 159.92 278.92 159.92 278.92 156.75"/>
          <polygon class="cls-6" points="313.9 156.75 310.9 156.75 310.9 153.75 307.73 153.75 307.73 156.75 304.73 156.75 304.73 159.92 307.73 159.92 307.73 162.92 310.9 162.92 310.9 159.92 313.9 159.92 313.9 156.75"/>
          <polygon class="cls-6" points="348.87 156.75 345.87 156.75 345.87 153.75 342.7 153.75 342.7 156.75 339.7 156.75 339.7 159.92 342.7 159.92 342.7 162.92 345.87 162.92 345.87 159.92 348.87 159.92 348.87 156.75"/>
          <polygon class="cls-6" points="383.84 156.75 380.84 156.75 380.84 153.75 377.67 153.75 377.67 156.75 374.67 156.75 374.67 159.92 377.67 159.92 377.67 162.92 380.84 162.92 380.84 159.92 383.84 159.92 383.84 156.75"/>
          <polygon class="cls-6" points="418.82 156.75 415.82 156.75 415.82 153.75 412.64 153.75 412.64 156.75 409.65 156.75 409.65 159.92 412.64 159.92 412.64 162.92 415.82 162.92 415.82 159.92 418.82 159.92 418.82 156.75"/>
          <polygon class="cls-6" points="453.79 156.75 450.79 156.75 450.79 153.75 447.62 153.75 447.62 156.75 444.62 156.75 444.62 159.92 447.62 159.92 447.62 162.92 450.79 162.92 450.79 159.92 453.79 159.92 453.79 156.75"/>
          <polygon class="cls-6" points="488.76 156.75 485.76 156.75 485.76 153.75 482.59 153.75 482.59 156.75 479.59 156.75 479.59 159.92 482.59 159.92 482.59 162.92 485.76 162.92 485.76 159.92 488.76 159.92 488.76 156.75"/>
          <polygon class="cls-6" points="523.73 156.75 520.74 156.75 520.74 153.75 517.56 153.75 517.56 156.75 514.57 156.75 514.57 159.92 517.56 159.92 517.56 162.92 520.74 162.92 520.74 159.92 523.73 159.92 523.73 156.75"/>
          <polygon class="cls-6" points="558.71 156.75 555.71 156.75 555.71 153.75 552.54 153.75 552.54 156.75 549.54 156.75 549.54 159.92 552.54 159.92 552.54 162.92 555.71 162.92 555.71 159.92 558.71 159.92 558.71 156.75"/>
          <polygon class="cls-6" points="593.68 156.75 590.68 156.75 590.68 153.75 587.51 153.75 587.51 156.75 584.51 156.75 584.51 159.92 587.51 159.92 587.51 162.92 590.68 162.92 590.68 159.92 593.68 159.92 593.68 156.75"/>
          <polygon class="cls-6" points="628.65 156.75 625.66 156.75 625.66 153.75 622.48 153.75 622.48 156.75 619.48 156.75 619.48 159.92 622.48 159.92 622.48 162.92 625.66 162.92 625.66 159.92 628.65 159.92 628.65 156.75"/>
          <polygon class="cls-6" points="663.63 156.75 660.63 156.75 660.63 153.75 657.45 153.75 657.45 156.75 654.46 156.75 654.46 159.92 657.45 159.92 657.45 162.92 660.63 162.92 660.63 159.92 663.63 159.92 663.63 156.75"/>
          <polygon class="cls-6" points="698.6 156.75 695.6 156.75 695.6 153.75 692.43 153.75 692.43 156.75 689.43 156.75 689.43 159.92 692.43 159.92 692.43 162.92 695.6 162.92 695.6 159.92 698.6 159.92 698.6 156.75"/>
          <polygon class="cls-6" points="733.57 156.75 730.57 156.75 730.57 153.75 727.4 153.75 727.4 156.75 724.4 156.75 724.4 159.92 727.4 159.92 727.4 162.92 730.57 162.92 730.57 159.92 733.57 159.92 733.57 156.75"/>
          <polygon class="cls-6" points="768.54 156.75 765.55 156.75 765.55 153.75 762.37 153.75 762.37 156.75 759.38 156.75 759.38 159.92 762.37 159.92 762.37 162.92 765.55 162.92 765.55 159.92 768.54 159.92 768.54 156.75"/>
          <polygon class="cls-6" points="803.52 156.75 800.52 156.75 800.52 153.75 797.35 153.75 797.35 156.75 794.35 156.75 794.35 159.92 797.35 159.92 797.35 162.92 800.52 162.92 800.52 159.92 803.52 159.92 803.52 156.75"/>
          <polygon class="cls-6" points="838.49 156.75 835.49 156.75 835.49 153.75 832.32 153.75 832.32 156.75 829.32 156.75 829.32 159.92 832.32 159.92 832.32 162.92 835.49 162.92 835.49 159.92 838.49 159.92 838.49 156.75"/>
        </g>
        <g>
          <polygon class="cls-6" points="104.06 125.56 101.06 125.56 101.06 122.57 97.89 122.57 97.89 125.56 94.89 125.56 94.89 128.74 97.89 128.74 97.89 131.74 101.06 131.74 101.06 128.74 104.06 128.74 104.06 125.56"/>
          <polygon class="cls-6" points="139.03 125.56 136.03 125.56 136.03 122.57 132.86 122.57 132.86 125.56 129.86 125.56 129.86 128.74 132.86 128.74 132.86 131.74 136.03 131.74 136.03 128.74 139.03 128.74 139.03 125.56"/>
          <polygon class="cls-6" points="174 125.56 171.01 125.56 171.01 122.57 167.83 122.57 167.83 125.56 164.84 125.56 164.84 128.74 167.83 128.74 167.83 131.74 171.01 131.74 171.01 128.74 174 128.74 174 125.56"/>
          <polygon class="cls-6" points="208.98 125.56 205.98 125.56 205.98 122.57 202.81 122.57 202.81 125.56 199.81 125.56 199.81 128.74 202.81 128.74 202.81 131.74 205.98 131.74 205.98 128.74 208.98 128.74 208.98 125.56"/>
          <polygon class="cls-6" points="243.95 125.56 240.95 125.56 240.95 122.57 237.78 122.57 237.78 125.56 234.78 125.56 234.78 128.74 237.78 128.74 237.78 131.74 240.95 131.74 240.95 128.74 243.95 128.74 243.95 125.56"/>
          <polygon class="cls-6" points="278.92 125.56 275.93 125.56 275.93 122.57 272.75 122.57 272.75 125.56 269.76 125.56 269.76 128.74 272.75 128.74 272.75 131.74 275.93 131.74 275.93 128.74 278.92 128.74 278.92 125.56"/>
          <polygon class="cls-6" points="313.9 125.56 310.9 125.56 310.9 122.57 307.73 122.57 307.73 125.56 304.73 125.56 304.73 128.74 307.73 128.74 307.73 131.74 310.9 131.74 310.9 128.74 313.9 128.74 313.9 125.56"/>
          <polygon class="cls-6" points="348.87 125.56 345.87 125.56 345.87 122.57 342.7 122.57 342.7 125.56 339.7 125.56 339.7 128.74 342.7 128.74 342.7 131.74 345.87 131.74 345.87 128.74 348.87 128.74 348.87 125.56"/>
          <polygon class="cls-6" points="383.84 125.56 380.84 125.56 380.84 122.57 377.67 122.57 377.67 125.56 374.67 125.56 374.67 128.74 377.67 128.74 377.67 131.74 380.84 131.74 380.84 128.74 383.84 128.74 383.84 125.56"/>
          <polygon class="cls-6" points="418.82 125.56 415.82 125.56 415.82 122.57 412.64 122.57 412.64 125.56 409.65 125.56 409.65 128.74 412.64 128.74 412.64 131.74 415.82 131.74 415.82 128.74 418.82 128.74 418.82 125.56"/>
          <polygon class="cls-6" points="453.79 125.56 450.79 125.56 450.79 122.57 447.62 122.57 447.62 125.56 444.62 125.56 444.62 128.74 447.62 128.74 447.62 131.74 450.79 131.74 450.79 128.74 453.79 128.74 453.79 125.56"/>
          <polygon class="cls-6" points="488.76 125.56 485.76 125.56 485.76 122.57 482.59 122.57 482.59 125.56 479.59 125.56 479.59 128.74 482.59 128.74 482.59 131.74 485.76 131.74 485.76 128.74 488.76 128.74 488.76 125.56"/>
          <polygon class="cls-6" points="523.73 125.56 520.74 125.56 520.74 122.57 517.56 122.57 517.56 125.56 514.57 125.56 514.57 128.74 517.56 128.74 517.56 131.74 520.74 131.74 520.74 128.74 523.73 128.74 523.73 125.56"/>
          <polygon class="cls-6" points="558.71 125.56 555.71 125.56 555.71 122.57 552.54 122.57 552.54 125.56 549.54 125.56 549.54 128.74 552.54 128.74 552.54 131.74 555.71 131.74 555.71 128.74 558.71 128.74 558.71 125.56"/>
          <polygon class="cls-6" points="593.68 125.56 590.68 125.56 590.68 122.57 587.51 122.57 587.51 125.56 584.51 125.56 584.51 128.74 587.51 128.74 587.51 131.74 590.68 131.74 590.68 128.74 593.68 128.74 593.68 125.56"/>
          <polygon class="cls-6" points="628.65 125.56 625.66 125.56 625.66 122.57 622.48 122.57 622.48 125.56 619.48 125.56 619.48 128.74 622.48 128.74 622.48 131.74 625.66 131.74 625.66 128.74 628.65 128.74 628.65 125.56"/>
          <polygon class="cls-6" points="663.63 125.56 660.63 125.56 660.63 122.57 657.45 122.57 657.45 125.56 654.46 125.56 654.46 128.74 657.45 128.74 657.45 131.74 660.63 131.74 660.63 128.74 663.63 128.74 663.63 125.56"/>
          <polygon class="cls-6" points="698.6 125.56 695.6 125.56 695.6 122.57 692.43 122.57 692.43 125.56 689.43 125.56 689.43 128.74 692.43 128.74 692.43 131.74 695.6 131.74 695.6 128.74 698.6 128.74 698.6 125.56"/>
          <polygon class="cls-6" points="733.57 125.56 730.57 125.56 730.57 122.57 727.4 122.57 727.4 125.56 724.4 125.56 724.4 128.74 727.4 128.74 727.4 131.74 730.57 131.74 730.57 128.74 733.57 128.74 733.57 125.56"/>
          <polygon class="cls-6" points="768.54 125.56 765.55 125.56 765.55 122.57 762.37 122.57 762.37 125.56 759.38 125.56 759.38 128.74 762.37 128.74 762.37 131.74 765.55 131.74 765.55 128.74 768.54 128.74 768.54 125.56"/>
          <polygon class="cls-6" points="803.52 125.56 800.52 125.56 800.52 122.57 797.35 122.57 797.35 125.56 794.35 125.56 794.35 128.74 797.35 128.74 797.35 131.74 800.52 131.74 800.52 128.74 803.52 128.74 803.52 125.56"/>
          <polygon class="cls-6" points="838.49 125.56 835.49 125.56 835.49 122.57 832.32 122.57 832.32 125.56 829.32 125.56 829.32 128.74 832.32 128.74 832.32 131.74 835.49 131.74 835.49 128.74 838.49 128.74 838.49 125.56"/>
        </g>
        <g>
          <polygon class="cls-6" points="104.06 94.38 101.06 94.38 101.06 91.38 97.89 91.38 97.89 94.38 94.89 94.38 94.89 97.55 97.89 97.55 97.89 100.55 101.06 100.55 101.06 97.55 104.06 97.55 104.06 94.38"/>
          <polygon class="cls-6" points="139.03 94.38 136.03 94.38 136.03 91.38 132.86 91.38 132.86 94.38 129.86 94.38 129.86 97.55 132.86 97.55 132.86 100.55 136.03 100.55 136.03 97.55 139.03 97.55 139.03 94.38"/>
          <polygon class="cls-6" points="174 94.38 171.01 94.38 171.01 91.38 167.83 91.38 167.83 94.38 164.84 94.38 164.84 97.55 167.83 97.55 167.83 100.55 171.01 100.55 171.01 97.55 174 97.55 174 94.38"/>
          <polygon class="cls-6" points="208.98 94.38 205.98 94.38 205.98 91.38 202.81 91.38 202.81 94.38 199.81 94.38 199.81 97.55 202.81 97.55 202.81 100.55 205.98 100.55 205.98 97.55 208.98 97.55 208.98 94.38"/>
          <polygon class="cls-6" points="243.95 94.38 240.95 94.38 240.95 91.38 237.78 91.38 237.78 94.38 234.78 94.38 234.78 97.55 237.78 97.55 237.78 100.55 240.95 100.55 240.95 97.55 243.95 97.55 243.95 94.38"/>
          <polygon class="cls-6" points="278.92 94.38 275.93 94.38 275.93 91.38 272.75 91.38 272.75 94.38 269.76 94.38 269.76 97.55 272.75 97.55 272.75 100.55 275.93 100.55 275.93 97.55 278.92 97.55 278.92 94.38"/>
          <polygon class="cls-6" points="313.9 94.38 310.9 94.38 310.9 91.38 307.73 91.38 307.73 94.38 304.73 94.38 304.73 97.55 307.73 97.55 307.73 100.55 310.9 100.55 310.9 97.55 313.9 97.55 313.9 94.38"/>
          <polygon class="cls-6" points="348.87 94.38 345.87 94.38 345.87 91.38 342.7 91.38 342.7 94.38 339.7 94.38 339.7 97.55 342.7 97.55 342.7 100.55 345.87 100.55 345.87 97.55 348.87 97.55 348.87 94.38"/>
          <polygon class="cls-6" points="383.84 94.38 380.84 94.38 380.84 91.38 377.67 91.38 377.67 94.38 374.67 94.38 374.67 97.55 377.67 97.55 377.67 100.55 380.84 100.55 380.84 97.55 383.84 97.55 383.84 94.38"/>
          <polygon class="cls-6" points="418.82 94.38 415.82 94.38 415.82 91.38 412.64 91.38 412.64 94.38 409.65 94.38 409.65 97.55 412.64 97.55 412.64 100.55 415.82 100.55 415.82 97.55 418.82 97.55 418.82 94.38"/>
          <polygon class="cls-6" points="453.79 94.38 450.79 94.38 450.79 91.38 447.62 91.38 447.62 94.38 444.62 94.38 444.62 97.55 447.62 97.55 447.62 100.55 450.79 100.55 450.79 97.55 453.79 97.55 453.79 94.38"/>
          <polygon class="cls-6" points="488.76 94.38 485.76 94.38 485.76 91.38 482.59 91.38 482.59 94.38 479.59 94.38 479.59 97.55 482.59 97.55 482.59 100.55 485.76 100.55 485.76 97.55 488.76 97.55 488.76 94.38"/>
          <polygon class="cls-6" points="523.73 94.38 520.74 94.38 520.74 91.38 517.56 91.38 517.56 94.38 514.57 94.38 514.57 97.55 517.56 97.55 517.56 100.55 520.74 100.55 520.74 97.55 523.73 97.55 523.73 94.38"/>
          <polygon class="cls-6" points="558.71 94.38 555.71 94.38 555.71 91.38 552.54 91.38 552.54 94.38 549.54 94.38 549.54 97.55 552.54 97.55 552.54 100.55 555.71 100.55 555.71 97.55 558.71 97.55 558.71 94.38"/>
          <polygon class="cls-6" points="593.68 94.38 590.68 94.38 590.68 91.38 587.51 91.38 587.51 94.38 584.51 94.38 584.51 97.55 587.51 97.55 587.51 100.55 590.68 100.55 590.68 97.55 593.68 97.55 593.68 94.38"/>
          <polygon class="cls-6" points="628.65 94.38 625.66 94.38 625.66 91.38 622.48 91.38 622.48 94.38 619.48 94.38 619.48 97.55 622.48 97.55 622.48 100.55 625.66 100.55 625.66 97.55 628.65 97.55 628.65 94.38"/>
          <polygon class="cls-6" points="663.63 94.38 660.63 94.38 660.63 91.38 657.45 91.38 657.45 94.38 654.46 94.38 654.46 97.55 657.45 97.55 657.45 100.55 660.63 100.55 660.63 97.55 663.63 97.55 663.63 94.38"/>
          <polygon class="cls-6" points="698.6 94.38 695.6 94.38 695.6 91.38 692.43 91.38 692.43 94.38 689.43 94.38 689.43 97.55 692.43 97.55 692.43 100.55 695.6 100.55 695.6 97.55 698.6 97.55 698.6 94.38"/>
          <polygon class="cls-6" points="733.57 94.38 730.57 94.38 730.57 91.38 727.4 91.38 727.4 94.38 724.4 94.38 724.4 97.55 727.4 97.55 727.4 100.55 730.57 100.55 730.57 97.55 733.57 97.55 733.57 94.38"/>
          <polygon class="cls-6" points="768.54 94.38 765.55 94.38 765.55 91.38 762.37 91.38 762.37 94.38 759.38 94.38 759.38 97.55 762.37 97.55 762.37 100.55 765.55 100.55 765.55 97.55 768.54 97.55 768.54 94.38"/>
          <polygon class="cls-6" points="803.52 94.38 800.52 94.38 800.52 91.38 797.35 91.38 797.35 94.38 794.35 94.38 794.35 97.55 797.35 97.55 797.35 100.55 800.52 100.55 800.52 97.55 803.52 97.55 803.52 94.38"/>
          <polygon class="cls-6" points="838.49 94.38 835.49 94.38 835.49 91.38 832.32 91.38 832.32 94.38 829.32 94.38 829.32 97.55 832.32 97.55 832.32 100.55 835.49 100.55 835.49 97.55 838.49 97.55 838.49 94.38"/>
        </g>
        <g>
          <polygon class="cls-6" points="104.06 63.2 101.06 63.2 101.06 60.2 97.89 60.2 97.89 63.2 94.89 63.2 94.89 66.37 97.89 66.37 97.89 69.37 101.06 69.37 101.06 66.37 104.06 66.37 104.06 63.2"/>
          <polygon class="cls-6" points="139.03 63.2 136.03 63.2 136.03 60.2 132.86 60.2 132.86 63.2 129.86 63.2 129.86 66.37 132.86 66.37 132.86 69.37 136.03 69.37 136.03 66.37 139.03 66.37 139.03 63.2"/>
          <polygon class="cls-6" points="174 63.2 171.01 63.2 171.01 60.2 167.83 60.2 167.83 63.2 164.84 63.2 164.84 66.37 167.83 66.37 167.83 69.37 171.01 69.37 171.01 66.37 174 66.37 174 63.2"/>
          <polygon class="cls-6" points="208.98 63.2 205.98 63.2 205.98 60.2 202.81 60.2 202.81 63.2 199.81 63.2 199.81 66.37 202.81 66.37 202.81 69.37 205.98 69.37 205.98 66.37 208.98 66.37 208.98 63.2"/>
          <polygon class="cls-6" points="243.95 63.2 240.95 63.2 240.95 60.2 237.78 60.2 237.78 63.2 234.78 63.2 234.78 66.37 237.78 66.37 237.78 69.37 240.95 69.37 240.95 66.37 243.95 66.37 243.95 63.2"/>
          <polygon class="cls-6" points="278.92 63.2 275.93 63.2 275.93 60.2 272.75 60.2 272.75 63.2 269.76 63.2 269.76 66.37 272.75 66.37 272.75 69.37 275.93 69.37 275.93 66.37 278.92 66.37 278.92 63.2"/>
          <polygon class="cls-6" points="313.9 63.2 310.9 63.2 310.9 60.2 307.73 60.2 307.73 63.2 304.73 63.2 304.73 66.37 307.73 66.37 307.73 69.37 310.9 69.37 310.9 66.37 313.9 66.37 313.9 63.2"/>
          <polygon class="cls-6" points="348.87 63.2 345.87 63.2 345.87 60.2 342.7 60.2 342.7 63.2 339.7 63.2 339.7 66.37 342.7 66.37 342.7 69.37 345.87 69.37 345.87 66.37 348.87 66.37 348.87 63.2"/>
          <polygon class="cls-6" points="383.84 63.2 380.84 63.2 380.84 60.2 377.67 60.2 377.67 63.2 374.67 63.2 374.67 66.37 377.67 66.37 377.67 69.37 380.84 69.37 380.84 66.37 383.84 66.37 383.84 63.2"/>
          <polygon class="cls-6" points="418.82 63.2 415.82 63.2 415.82 60.2 412.64 60.2 412.64 63.2 409.65 63.2 409.65 66.37 412.64 66.37 412.64 69.37 415.82 69.37 415.82 66.37 418.82 66.37 418.82 63.2"/>
          <polygon class="cls-6" points="453.79 63.2 450.79 63.2 450.79 60.2 447.62 60.2 447.62 63.2 444.62 63.2 444.62 66.37 447.62 66.37 447.62 69.37 450.79 69.37 450.79 66.37 453.79 66.37 453.79 63.2"/>
          <polygon class="cls-6" points="488.76 63.2 485.76 63.2 485.76 60.2 482.59 60.2 482.59 63.2 479.59 63.2 479.59 66.37 482.59 66.37 482.59 69.37 485.76 69.37 485.76 66.37 488.76 66.37 488.76 63.2"/>
          <polygon class="cls-6" points="523.73 63.2 520.74 63.2 520.74 60.2 517.56 60.2 517.56 63.2 514.57 63.2 514.57 66.37 517.56 66.37 517.56 69.37 520.74 69.37 520.74 66.37 523.73 66.37 523.73 63.2"/>
          <polygon class="cls-6" points="558.71 63.2 555.71 63.2 555.71 60.2 552.54 60.2 552.54 63.2 549.54 63.2 549.54 66.37 552.54 66.37 552.54 69.37 555.71 69.37 555.71 66.37 558.71 66.37 558.71 63.2"/>
          <polygon class="cls-6" points="593.68 63.2 590.68 63.2 590.68 60.2 587.51 60.2 587.51 63.2 584.51 63.2 584.51 66.37 587.51 66.37 587.51 69.37 590.68 69.37 590.68 66.37 593.68 66.37 593.68 63.2"/>
          <polygon class="cls-6" points="628.65 63.2 625.66 63.2 625.66 60.2 622.48 60.2 622.48 63.2 619.48 63.2 619.48 66.37 622.48 66.37 622.48 69.37 625.66 69.37 625.66 66.37 628.65 66.37 628.65 63.2"/>
          <polygon class="cls-6" points="663.63 63.2 660.63 63.2 660.63 60.2 657.45 60.2 657.45 63.2 654.46 63.2 654.46 66.37 657.45 66.37 657.45 69.37 660.63 69.37 660.63 66.37 663.63 66.37 663.63 63.2"/>
          <polygon class="cls-6" points="698.6 63.2 695.6 63.2 695.6 60.2 692.43 60.2 692.43 63.2 689.43 63.2 689.43 66.37 692.43 66.37 692.43 69.37 695.6 69.37 695.6 66.37 698.6 66.37 698.6 63.2"/>
          <polygon class="cls-6" points="733.57 63.2 730.57 63.2 730.57 60.2 727.4 60.2 727.4 63.2 724.4 63.2 724.4 66.37 727.4 66.37 727.4 69.37 730.57 69.37 730.57 66.37 733.57 66.37 733.57 63.2"/>
          <polygon class="cls-6" points="768.54 63.2 765.55 63.2 765.55 60.2 762.37 60.2 762.37 63.2 759.38 63.2 759.38 66.37 762.37 66.37 762.37 69.37 765.55 69.37 765.55 66.37 768.54 66.37 768.54 63.2"/>
          <polygon class="cls-6" points="803.52 63.2 800.52 63.2 800.52 60.2 797.35 60.2 797.35 63.2 794.35 63.2 794.35 66.37 797.35 66.37 797.35 69.37 800.52 69.37 800.52 66.37 803.52 66.37 803.52 63.2"/>
          <polygon class="cls-6" points="838.49 63.2 835.49 63.2 835.49 60.2 832.32 60.2 832.32 63.2 829.32 63.2 829.32 66.37 832.32 66.37 832.32 69.37 835.49 69.37 835.49 66.37 838.49 66.37 838.49 63.2"/>
        </g>
      </g>
    </g>
  </g>
</svg>