<svg xmlns="http://www.w3.org/2000/svg" xmlns:xlink="http://www.w3.org/1999/xlink" viewBox="0,0,256,256" width="50px" height="50px" fill-rule="nonzero"><g fill="#ed6f30" fill-rule="nonzero" stroke="none" stroke-width="1" stroke-linecap="butt" stroke-linejoin="miter" stroke-miterlimit="10" stroke-dasharray="" stroke-dashoffset="0" font-family="none" font-weight="none" font-size="none" text-anchor="none" style="mix-blend-mode: normal"><g transform="scale(5.12,5.12)"><path d="M25,0c-3.10937,0 -5.73437,0.49219 -7.6875,1.46875c-1.61328,0.80469 -2.8125,2.03125 -3.1875,3.53125h-2.125c-2.21094,0 -4,1.78906 -4,4v24h-3c-0.03125,0 -0.0625,0 -0.09375,0c-0.03125,0 -0.0625,0 -0.09375,0c-0.47656,0.08984 -0.82031,0.51172 -0.8125,1v5c0,0.55078 0.44922,1 1,1h16.90625l-11.5,8.1875c-0.44922,0.32813 -0.54687,0.95703 -0.21875,1.40625c0.32813,0.44922 0.95703,0.54688 1.40625,0.21875l12.40625,-8.84375v8.03125c-0.00391,0.35938 0.18359,0.69531 0.49609,0.87891c0.3125,0.17969 0.69531,0.17969 1.00781,0c0.3125,-0.18359 0.5,-0.51953 0.49609,-0.87891v-8.03125l12.40625,8.84375c0.44922,0.32813 1.07813,0.23047 1.40625,-0.21875c0.32813,-0.44922 0.23047,-1.07812 -0.21875,-1.40625l-11.5,-8.1875h16.90625c0.55078,0 1,-0.44922 1,-1v-5c0,-0.55078 -0.44922,-1 -1,-1h-3v-24c0,-2.21094 -1.78906,-4 -4,-4h-2.125c-0.375,-1.5 -1.57422,-2.72656 -3.1875,-3.53125c-1.95312,-0.97656 -4.57812,-1.46875 -7.6875,-1.46875zM25,2c2.89063,0 5.26563,0.50781 6.8125,1.28125c1.03125,0.51563 1.66406,1.08203 1.96875,1.71875h-17.5625c0.30469,-0.63672 0.9375,-1.20312 1.96875,-1.71875c1.54688,-0.77344 3.92188,-1.28125 6.8125,-1.28125zM12,7h26c1.19141,0 2,0.80859 2,2v24h-30v-24c0,-1.19141 0.80859,-2 2,-2zM25,9c-6.04687,0 -11,4.95313 -11,11c0,6.04688 4.95313,11 11,11c6.04688,0 11,-4.95312 11,-11c0,-6.04687 -4.95312,-11 -11,-11zM25,11c4.95313,0 9,4.04688 9,9c0,4.95313 -4.04687,9 -9,9c-4.95312,0 -9,-4.04687 -9,-9c0,-4.95312 4.04688,-9 9,-9zM25,13c-3.85547,0 -7,3.14453 -7,7c0,3.85547 3.14453,7 7,7c3.85547,0 7,-3.14453 7,-7c0,-3.85547 -3.14453,-7 -7,-7zM25,15c2.77344,0 5,2.22656 5,5c0,2.77344 -2.22656,5 -5,5c-2.77344,0 -5,-2.22656 -5,-5c0,-2.77344 2.22656,-5 5,-5zM6,35h38v3h-18.8125c-0.01953,0 -0.04297,0 -0.0625,0c-0.01172,0 -0.01953,0 -0.03125,0c-0.10547,-0.01562 -0.20703,-0.01562 -0.3125,0h-18.78125z"></path></g></g><g fill="#00ffff" fill-rule="nonzero" stroke="none" stroke-width="1" stroke-linecap="butt" stroke-linejoin="miter" stroke-miterlimit="10" stroke-dasharray="" stroke-dashoffset="0" font-family="none" font-weight="none" font-size="none" text-anchor="none" style="mix-blend-mode: normal"><g><path d="M245.48717,238.28h-79.52v-15.28l37.68,-40.4c5.44,-6.24 9.30667,-11.50667 11.6,-15.8c2.29333,-4.29333 3.44,-8.28 3.44,-11.96v0c0,-4.90667 -1.32,-8.92 -3.96,-12.04c-2.64,-3.12 -6.38667,-4.68 -11.24,-4.68v0c-5.38667,0 -9.48,1.82667 -12.28,5.48c-2.8,3.65333 -4.2,8.52 -4.2,14.6v0h-22.72l-0.16,-0.48c-0.26667,-10.50667 3.18667,-19.4 10.36,-26.68c7.17333,-7.28 16.84,-10.92 29,-10.92v0c12,0 21.44,3.12 28.32,9.36c6.88,6.24 10.32,14.56 10.32,24.96v0c0,7.04 -1.93333,13.54667 -5.8,19.52c-3.86667,5.97333 -10.28,13.76 -19.24,23.36v0l-20.72,22.64l0.16,0.4h30.24l0.96,-11.52h17.76z"></path></g></g></svg>