<svg xmlns="http://www.w3.org/2000/svg" xmlns:xlink="http://www.w3.org/1999/xlink" viewBox="0,0,256,256" width="50px" height="50px" fill-rule="nonzero"><g fill="#ed6f30" fill-rule="nonzero" stroke="none" stroke-width="1" stroke-linecap="butt" stroke-linejoin="miter" stroke-miterlimit="10" stroke-dasharray="" stroke-dashoffset="0" font-family="none" font-weight="none" font-size="none" text-anchor="none" style="mix-blend-mode: normal"><g transform="scale(5.12,5.12)"><path d="M25,0c-3.10937,0 -5.73437,0.49219 -7.6875,1.46875c-1.61328,0.80469 -2.8125,2.03125 -3.1875,3.53125h-2.125c-2.21094,0 -4,1.78906 -4,4v24h-3c-0.03125,0 -0.0625,0 -0.09375,0c-0.03125,0 -0.0625,0 -0.09375,0c-0.47656,0.08984 -0.82031,0.51172 -0.8125,1v5c0,0.55078 0.44922,1 1,1h16.90625l-11.5,8.1875c-0.44922,0.32813 -0.54687,0.95703 -0.21875,1.40625c0.32813,0.44922 0.95703,0.54688 1.40625,0.21875l12.40625,-8.84375v8.03125c-0.00391,0.35938 0.18359,0.69531 0.49609,0.87891c0.3125,0.17969 0.69531,0.17969 1.00781,0c0.3125,-0.18359 0.5,-0.51953 0.49609,-0.87891v-8.03125l12.40625,8.84375c0.44922,0.32813 1.07813,0.23047 1.40625,-0.21875c0.32813,-0.44922 0.23047,-1.07812 -0.21875,-1.40625l-11.5,-8.1875h16.90625c0.55078,0 1,-0.44922 1,-1v-5c0,-0.55078 -0.44922,-1 -1,-1h-3v-24c0,-2.21094 -1.78906,-4 -4,-4h-2.125c-0.375,-1.5 -1.57422,-2.72656 -3.1875,-3.53125c-1.95312,-0.97656 -4.57812,-1.46875 -7.6875,-1.46875zM25,2c2.89063,0 5.26563,0.50781 6.8125,1.28125c1.03125,0.51563 1.66406,1.08203 1.96875,1.71875h-17.5625c0.30469,-0.63672 0.9375,-1.20312 1.96875,-1.71875c1.54688,-0.77344 3.92188,-1.28125 6.8125,-1.28125zM12,7h26c1.19141,0 2,0.80859 2,2v24h-30v-24c0,-1.19141 0.80859,-2 2,-2zM25,9c-6.04687,0 -11,4.95313 -11,11c0,6.04688 4.95313,11 11,11c6.04688,0 11,-4.95312 11,-11c0,-6.04687 -4.95312,-11 -11,-11zM25,11c4.95313,0 9,4.04688 9,9c0,4.95313 -4.04687,9 -9,9c-4.95312,0 -9,-4.04687 -9,-9c0,-4.95312 4.04688,-9 9,-9zM25,13c-3.85547,0 -7,3.14453 -7,7c0,3.85547 3.14453,7 7,7c3.85547,0 7,-3.14453 7,-7c0,-3.85547 -3.14453,-7 -7,-7zM25,15c2.77344,0 5,2.22656 5,5c0,2.77344 -2.22656,5 -5,5c-2.77344,0 -5,-2.22656 -5,-5c0,-2.77344 2.22656,-5 5,-5zM6,35h38v3h-18.8125c-0.01953,0 -0.04297,0 -0.0625,0c-0.01172,0 -0.01953,0 -0.03125,0c-0.10547,-0.01562 -0.20703,-0.01562 -0.3125,0h-18.78125z"></path></g></g><g fill="#00ffff" fill-rule="nonzero" stroke="none" stroke-width="1" stroke-linecap="butt" stroke-linejoin="miter" stroke-miterlimit="10" stroke-dasharray="" stroke-dashoffset="0" font-family="none" font-weight="none" font-size="none" text-anchor="none" style="mix-blend-mode: normal"><g><path d="M190.44664,186.8v-17.52h13.12c5.54667,0 9.65333,-1.45333 12.32,-4.36c2.66667,-2.90667 4,-6.94667 4,-12.12v0c0,-4.69333 -1.33333,-8.45333 -4,-11.28c-2.66667,-2.82667 -6.53333,-4.24 -11.6,-4.24v0c-4.37333,0 -8.05333,1.28 -11.04,3.84c-2.98667,2.56 -4.48,5.92 -4.48,10.08v0h-22.64l-0.16,-0.48c-0.32,-9.12 3.17333,-16.64 10.48,-22.56c7.30667,-5.92 16.37333,-8.88 27.2,-8.88v0c12.05333,0 21.66667,2.88 28.84,8.64c7.17333,5.76 10.76,13.97333 10.76,24.64v0c0,5.06667 -1.6,9.88 -4.8,14.44c-3.2,4.56 -7.6,8.12 -13.2,10.68v0c6.45333,2.29333 11.37333,5.81333 14.76,10.56c3.38667,4.74667 5.08,10.26667 5.08,16.56v0c0,10.66667 -3.88,19.05333 -11.64,25.16c-7.76,6.10667 -17.69333,9.16 -29.8,9.16v0c-10.82667,0 -20.12,-2.86667 -27.88,-8.6c-7.76,-5.73333 -11.50667,-13.82667 -11.24,-24.28v0l0.16,-0.48h22.64c0,4.48 1.6,8.17333 4.8,11.08c3.2,2.90667 7.25333,4.36 12.16,4.36v0c5.38667,0 9.64,-1.49333 12.76,-4.48c3.12,-2.98667 4.68,-7.04 4.68,-12.16v0c0,-6.13333 -1.53333,-10.62667 -4.6,-13.48c-3.06667,-2.85333 -7.58667,-4.28 -13.56,-4.28v0z"></path></g></g></svg>