<svg xmlns="http://www.w3.org/2000/svg" xmlns:xlink="http://www.w3.org/1999/xlink" viewBox="0,0,256,256" width="48px" height="48px" fill-rule="nonzero"><g transform="translate(-38.4,-38.4) scale(1.3,1.3)"><g fill="none" fill-rule="nonzero" stroke="none" stroke-width="1" stroke-linecap="butt" stroke-linejoin="none" stroke-miterlimit="10" stroke-dasharray="" stroke-dashoffset="0" font-family="none" font-weight="none" font-size="none" text-anchor="none" style="mix-blend-mode: normal"><path transform="scale(4,4)" d="M52,23.773v16.453c0,10.919 -0.855,11.774 -11.773,11.774h-16.454c-10.918,0 -11.773,-0.855 -11.773,-11.773v-16.454c0,-10.919 0.855,-11.773 11.773,-11.773h16.453c10.919,0 11.774,0.854 11.774,11.773z" id="strokeMainSVG" fill="#ed6f30" stroke="#ed6f30" stroke-linejoin="round"></path><g transform="scale(4,4)" fill="#00ffff" stroke="none" stroke-linejoin="miter"><path d="M52,23.773v16.453c0,10.919 -0.855,11.774 -11.773,11.774h-16.454c-10.918,0 -11.773,-0.855 -11.773,-11.773v-16.454c0,-10.919 0.855,-11.773 11.773,-11.773h16.453c10.919,0 11.774,0.854 11.774,11.773zM48,42.832v-21.664c0,-4.793 -0.375,-5.168 -5.168,-5.168h-21.664c-4.793,0 -5.168,0.375 -5.168,5.168v21.665c0,4.792 0.375,5.167 5.168,5.167h21.665c4.792,0 5.167,-0.375 5.167,-5.168z"></path></g></g></g></svg>