<svg xmlns="http://www.w3.org/2000/svg" xmlns:xlink="http://www.w3.org/1999/xlink" viewBox="0,0,256,256" width="50px" height="50px" fill-rule="nonzero"><g fill="none" fill-rule="nonzero" stroke="none" stroke-width="1" stroke-linecap="butt" stroke-linejoin="miter" stroke-miterlimit="10" stroke-dasharray="" stroke-dashoffset="0" font-family="none" font-weight="none" font-size="none" text-anchor="none" style="mix-blend-mode: normal"><g transform="scale(5.12,5.12)"><rect x="4" y="10" width="10.999" height="4" fill="#ed6f30"></rect><rect x="26.001" y="10" width="19.999" height="4" fill="#ed6f30"></rect><rect x="3.999" y="24" width="26" height="4" fill="#ed6f30"></rect><rect x="37.999" y="24" width="8" height="4" fill="#ed6f30"></rect><rect x="21" y="38" width="24.999" height="4" fill="#ed6f30"></rect><rect x="3.998" y="38" width="8" height="4" fill="#ed6f30"></rect><path d="M21,19c-3.86,0 -7,-3.141 -7,-7c0,-3.859 3.14,-7 7,-7c3.86,0 7,3.141 7,7c0,3.859 -3.14,7 -7,7zM21,9c-1.654,0 -3,1.346 -3,3c0,1.654 1.346,3 3,3c1.654,0 3,-1.346 3,-3c0,-1.654 -1.346,-3 -3,-3z" fill="#00ffff"></path><path d="M16,47c-3.86,0 -7,-3.141 -7,-7c0,-3.859 3.14,-7 7,-7c3.86,0 7,3.141 7,7c0,3.859 -3.14,7 -7,7zM16,37c-1.654,0 -3,1.346 -3,3c0,1.654 1.346,3 3,3c1.654,0 3,-1.346 3,-3c0,-1.654 -1.346,-3 -3,-3z" fill="#00ffff"></path><path d="M34,33c-3.86,0 -7,-3.141 -7,-7c0,-3.859 3.14,-7 7,-7c3.86,0 7,3.141 7,7c0,3.859 -3.14,7 -7,7zM34,23c-1.654,0 -3,1.346 -3,3c0,1.654 1.346,3 3,3c1.654,0 3,-1.346 3,-3c0,-1.654 -1.346,-3 -3,-3z" fill="#00ffff"></path><path d="M18,12c0,-0.771 0.301,-1.468 0.78,-2h-4.485c-0.19,0.634 -0.295,1.305 -0.295,2c0,0.695 0.105,1.366 0.295,2h4.485c-0.479,-0.532 -0.78,-1.229 -0.78,-2z" fill="#00c8c8"></path><path d="M27.705,10h-4.485c0.48,0.532 0.78,1.229 0.78,2c0,0.771 -0.301,1.468 -0.78,2h4.485c0.19,-0.634 0.295,-1.305 0.295,-2c0,-0.695 -0.105,-1.366 -0.295,-2z" fill="#00c8c8"></path><path d="M31,26c0,-0.771 0.301,-1.468 0.78,-2h-4.485c-0.19,0.634 -0.295,1.305 -0.295,2c0,0.695 0.105,1.366 0.295,2h4.485c-0.479,-0.532 -0.78,-1.229 -0.78,-2z" fill="#00c8c8"></path><path d="M40.705,24h-4.485c0.48,0.532 0.78,1.229 0.78,2c0,0.771 -0.301,1.468 -0.78,2h4.485c0.19,-0.634 0.295,-1.305 0.295,-2c0,-0.695 -0.105,-1.366 -0.295,-2z" fill="#00c8c8"></path><path d="M13,40c0,-0.771 0.301,-1.468 0.78,-2h-4.485c-0.19,0.634 -0.295,1.305 -0.295,2c0,0.695 0.105,1.366 0.295,2h4.485c-0.479,-0.532 -0.78,-1.229 -0.78,-2z" fill="#00c8c8"></path><path d="M22.705,38h-4.485c0.48,0.532 0.78,1.229 0.78,2c0,0.771 -0.301,1.468 -0.78,2h4.485c0.19,-0.634 0.295,-1.305 0.295,-2c0,-0.695 -0.105,-1.366 -0.295,-2z" fill="#00c8c8"></path></g></g></svg>