<svg xmlns="http://www.w3.org/2000/svg" xmlns:xlink="http://www.w3.org/1999/xlink" viewBox="0,0,256,256" width="50px" height="50px" fill-rule="nonzero"><defs><linearGradient x1="20.786" y1="5.774" x2="27.214" y2="42.226" gradientUnits="userSpaceOnUse" id="color-1"><stop offset="0" stop-color="#000000"></stop><stop offset="0.293" stop-color="#000000"></stop><stop offset="0.566" stop-color="#000000"></stop><stop offset="0.832" stop-color="#000000"></stop><stop offset="1" stop-color="#000000"></stop></linearGradient><linearGradient x1="20.439" y1="3.806" x2="27.561" y2="44.194" gradientUnits="userSpaceOnUse" id="color-2"><stop offset="0" stop-color="#ed6f30"></stop><stop offset="1" stop-color="#00ffff"></stop></linearGradient></defs><g fill="none" fill-rule="nonzero" stroke="none" stroke-width="1" stroke-linecap="butt" stroke-linejoin="miter" stroke-miterlimit="10" stroke-dasharray="" stroke-dashoffset="0" font-family="none" font-weight="none" font-size="none" text-anchor="none" style="mix-blend-mode: normal"><g transform="translate(0,256) rotate(-90) scale(5.33333,5.33333)"><path d="M40.002,39.971l-31.973,0.031l-0.031,-31.973l31.972,-0.031z" fill="url(#color-1)"></path><path d="M41.969,7.996c-0.001,-1.098 -0.9,-1.996 -1.998,-1.996c-0.001,0 -0.001,0 -0.002,0l-31.973,0.031c-1.099,0.001 -1.997,0.901 -1.996,2l0.031,31.973c0.001,1.098 0.9,1.996 1.998,1.996c0.001,0 0.001,0 0.002,0l31.973,-0.031c1.099,-0.001 1.997,-0.901 1.996,-2zM20,28v-8h8v8zM28,31v8h-8v-8zM17,28h-8v-8h8zM31,20h8v8h-8zM39,17h-8v-8h8zM28,9v8h-8v-8zM17,9v8h-8v-8zM9,31h8v8h-8zM31,39v-8h8v8z" fill="url(#color-2)"></path></g></g><g fill="#ed6f30" fill-rule="nonzero" stroke="none" stroke-width="1" stroke-linecap="butt" stroke-linejoin="miter" stroke-miterlimit="10" stroke-dasharray="" stroke-dashoffset="0" font-family="none" font-weight="none" font-size="none" text-anchor="none" style="mix-blend-mode: normal"><g><path d="M205.605,91.97667l-21.06,125.38h-24.23l16.5,-95.22l-30.42,9.2l3.78,-21.23l52.25,-18.05z"></path></g></g></svg>