<svg xmlns="http://www.w3.org/2000/svg" xmlns:xlink="http://www.w3.org/1999/xlink" viewBox="0,0,256,256" width="50px" height="50px" fill-rule="nonzero"><defs><linearGradient x1="20.786" y1="5.774" x2="27.214" y2="42.226" gradientUnits="userSpaceOnUse" id="color-1"><stop offset="0" stop-color="#000000"></stop><stop offset="0.293" stop-color="#000000"></stop><stop offset="0.566" stop-color="#000000"></stop><stop offset="0.832" stop-color="#000000"></stop><stop offset="1" stop-color="#000000"></stop></linearGradient><linearGradient x1="20.439" y1="3.806" x2="27.561" y2="44.194" gradientUnits="userSpaceOnUse" id="color-2"><stop offset="0" stop-color="#ed6f30"></stop><stop offset="1" stop-color="#00ffff"></stop></linearGradient></defs><g fill="none" fill-rule="nonzero" stroke="none" stroke-width="1" stroke-linecap="butt" stroke-linejoin="miter" stroke-miterlimit="10" stroke-dasharray="" stroke-dashoffset="0" font-family="none" font-weight="none" font-size="none" text-anchor="none" style="mix-blend-mode: normal"><g transform="translate(0,256) rotate(-90) scale(5.33333,5.33333)"><path d="M40.002,39.971l-31.973,0.031l-0.031,-31.973l31.972,-0.031z" fill="url(#color-1)"></path><path d="M41.969,7.996c-0.001,-1.098 -0.9,-1.996 -1.998,-1.996c-0.001,0 -0.001,0 -0.002,0l-31.973,0.031c-1.099,0.001 -1.997,0.901 -1.996,2l0.031,31.973c0.001,1.098 0.9,1.996 1.998,1.996c0.001,0 0.001,0 0.002,0l31.973,-0.031c1.099,-0.001 1.997,-0.901 1.996,-2zM20,28v-8h8v8zM28,31v8h-8v-8zM17,28h-8v-8h8zM31,20h8v8h-8zM39,17h-8v-8h8zM28,9v8h-8v-8zM17,9v8h-8v-8zM9,31h8v8h-8zM31,39v-8h8v8z" fill="url(#color-2)"></path></g></g><g fill="#ed6f30" fill-rule="nonzero" stroke="none" stroke-width="1" stroke-linecap="butt" stroke-linejoin="miter" stroke-miterlimit="10" stroke-dasharray="" stroke-dashoffset="0" font-family="none" font-weight="none" font-size="none" text-anchor="none" style="mix-blend-mode: normal"><g><path d="M215.64714,198.11242l-3.18,20.02h-83.36l2.83,-18.05l44.43,-41.68c9.11333,-8.53333 15.15667,-15.46333 18.13,-20.79c2.98,-5.33333 4.1,-10.54667 3.36,-15.64v0c-1.20667,-7.10667 -5.30333,-10.74667 -12.29,-10.92v0c-5.5,-0.11333 -10.1,1.80667 -13.8,5.76c-3.69333,3.95333 -5.94,9.13667 -6.74,15.55v0l-24.24,0.09c0.46,-7.79333 2.78,-14.87 6.96,-21.23c4.18667,-6.36 9.76,-11.3 16.72,-14.82c6.96,-3.52667 14.48,-5.26 22.56,-5.2v0c11.62667,0.22667 20.67667,3.49333 27.15,9.8c6.48,6.3 9.34667,14.69333 8.6,25.18v0c-0.92,11.8 -7.88,24.11667 -20.88,36.95v0l-12.38,11.77l-25.61,23.03z"></path></g></g></svg>