<svg xmlns="http://www.w3.org/2000/svg" xmlns:xlink="http://www.w3.org/1999/xlink" viewBox="0,0,256,256" width="48px" height="48px" fill-rule="nonzero"><defs><linearGradient x1="16.758" y1="3.118" x2="30.883" y2="17.242" gradientUnits="userSpaceOnUse" id="color-1"><stop offset="0" stop-color="#f44f5a"></stop><stop offset="0.443" stop-color="#ee3d4a"></stop><stop offset="1" stop-color="#e52030"></stop></linearGradient><linearGradient x1="33.99495" y1="0.10216" x2="33.99412" y2="47.76116" gradientUnits="userSpaceOnUse" id="color-2"><stop offset="0" stop-color="#fed100"></stop><stop offset="1" stop-color="#e36001"></stop></linearGradient><linearGradient x1="41.07" y1="21.07" x2="30.363" y2="31.777" gradientUnits="userSpaceOnUse" id="color-3"><stop offset="0" stop-color="#ffd747"></stop><stop offset="0.482" stop-color="#ffd645"></stop><stop offset="1" stop-color="#f5bc00"></stop></linearGradient><linearGradient x1="38.14527" y1="34.00191" x2="23.00328" y2="34.00218" gradientUnits="userSpaceOnUse" id="color-4"><stop offset="0" stop-color="#33c481"></stop><stop offset="1" stop-color="#21a366"></stop></linearGradient><linearGradient x1="26.93" y1="41.07" x2="16.223" y2="30.363" gradientUnits="userSpaceOnUse" id="color-5"><stop offset="0" stop-color="#28afea"></stop><stop offset="1" stop-color="#0b88da"></stop></linearGradient><linearGradient x1="14.00352" y1="40.30483" x2="14.00378" y2="25.16285" gradientUnits="userSpaceOnUse" id="color-6"><stop offset="0.002" stop-color="#427fdb"></stop><stop offset="0.397" stop-color="#2668cb"></stop><stop offset="0.763" stop-color="#1358bf"></stop><stop offset="1" stop-color="#0c52bb"></stop></linearGradient><linearGradient x1="6.93" y1="26.93" x2="17.637" y2="16.223" gradientUnits="userSpaceOnUse" id="color-7"><stop offset="0" stop-color="#a235d4"></stop><stop offset="0.441" stop-color="#a033d1"></stop><stop offset="0.702" stop-color="#982cc9"></stop><stop offset="0.915" stop-color="#8b21bb"></stop><stop offset="1" stop-color="#831bb3"></stop></linearGradient><linearGradient x1="9.8574" y1="14.00843" x2="48.52837" y2="14.00846" gradientUnits="userSpaceOnUse" id="color-8"><stop offset="0" stop-color="#e83c67"></stop><stop offset="0.423" stop-color="#c5214a"></stop><stop offset="0.773" stop-color="#b01038"></stop><stop offset="1" stop-color="#a80a31"></stop></linearGradient><linearGradient x1="18.774" y1="9.378" x2="28.941" y2="19.545" gradientUnits="userSpaceOnUse" id="color-9"><stop offset="0" stop-color="#f77b83"></stop><stop offset="0.443" stop-color="#f26e77"></stop><stop offset="1" stop-color="#ec5864"></stop></linearGradient><linearGradient x1="30.99529" y1="7.07701" x2="30.99469" y2="41.38159" gradientUnits="userSpaceOnUse" id="color-10"><stop offset="0" stop-color="#fedd40"></stop><stop offset="1" stop-color="#ea8841"></stop></linearGradient><linearGradient x1="35.949" y1="21.949" x2="28.242" y2="29.656" gradientUnits="userSpaceOnUse" id="color-11"><stop offset="0" stop-color="#ffe175"></stop><stop offset="0.482" stop-color="#ffe074"></stop><stop offset="1" stop-color="#f8cd40"></stop></linearGradient><linearGradient x1="33.90257" y1="31.00244" x2="23.00323" y2="31.00263" gradientUnits="userSpaceOnUse" id="color-12"><stop offset="0" stop-color="#66d3a1"></stop><stop offset="1" stop-color="#59ba8c"></stop></linearGradient><linearGradient x1="26.051" y1="35.949" x2="18.344" y2="28.242" gradientUnits="userSpaceOnUse" id="color-13"><stop offset="0" stop-color="#5ec3ef"></stop><stop offset="1" stop-color="#48a6e3"></stop></linearGradient><linearGradient x1="17.00315" y1="35.45555" x2="17.00334" y2="24.5562" gradientUnits="userSpaceOnUse" id="color-14"><stop offset="0" stop-color="#719fe4"></stop><stop offset="0.002" stop-color="#719fe4"></stop><stop offset="0.397" stop-color="#5c8ed8"></stop><stop offset="0.763" stop-color="#4e82cf"></stop><stop offset="1" stop-color="#497dcc"></stop></linearGradient><linearGradient x1="12.051" y1="26.051" x2="19.758" y2="18.344" gradientUnits="userSpaceOnUse" id="color-15"><stop offset="0" stop-color="#b968df"></stop><stop offset="0.441" stop-color="#b866dd"></stop><stop offset="0.702" stop-color="#b261d7"></stop><stop offset="0.915" stop-color="#a859cc"></stop><stop offset="1" stop-color="#a254c6"></stop></linearGradient><linearGradient x1="14.1001" y1="17.0079" x2="41.16956" y2="17.00743" gradientUnits="userSpaceOnUse" id="color-16"><stop offset="0" stop-color="#ee6d8d"></stop><stop offset="0.423" stop-color="#d45977"></stop><stop offset="0.773" stop-color="#c44c6a"></stop><stop offset="1" stop-color="#be4765"></stop></linearGradient><linearGradient x1="20.791" y1="15.637" x2="27.001" y2="21.847" gradientUnits="userSpaceOnUse" id="color-17"><stop offset="0" stop-color="#faa7ad"></stop><stop offset="0.443" stop-color="#f79ea5"></stop><stop offset="1" stop-color="#f29098"></stop></linearGradient><linearGradient x1="27.99562" y1="14.05045" x2="27.99525" y2="35.00343" gradientUnits="userSpaceOnUse" id="color-18"><stop offset="0" stop-color="#ffe880"></stop><stop offset="1" stop-color="#f1b080"></stop></linearGradient><linearGradient x1="30.828" y1="22.828" x2="26.121" y2="27.535" gradientUnits="userSpaceOnUse" id="color-19"><stop offset="0" stop-color="#ffeba3"></stop><stop offset="0.482" stop-color="#ffeba2"></stop><stop offset="1" stop-color="#fade80"></stop></linearGradient><linearGradient x1="29.65988" y1="28.00297" x2="22.99964" y2="28.00379" gradientUnits="userSpaceOnUse" id="color-20"><stop offset="0" stop-color="#99e2c0"></stop><stop offset="1" stop-color="#90d1b3"></stop></linearGradient><linearGradient x1="25.172" y1="30.828" x2="20.465" y2="26.121" gradientUnits="userSpaceOnUse" id="color-21"><stop offset="0" stop-color="#94d7f5"></stop><stop offset="1" stop-color="#85c4ed"></stop></linearGradient><linearGradient x1="20.00278" y1="30.60626" x2="20.0029" y2="23.94956" gradientUnits="userSpaceOnUse" id="color-22"><stop offset="0" stop-color="#a1bfed"></stop><stop offset="0.002" stop-color="#a1bfed"></stop><stop offset="0.397" stop-color="#93b4e5"></stop><stop offset="0.763" stop-color="#89acdf"></stop><stop offset="1" stop-color="#86a9dd"></stop></linearGradient><linearGradient x1="17.172" y1="25.172" x2="21.879" y2="20.465" gradientUnits="userSpaceOnUse" id="color-23"><stop offset="0" stop-color="#d19aea"></stop><stop offset="0.441" stop-color="#d099e8"></stop><stop offset="0.702" stop-color="#cc96e4"></stop><stop offset="0.915" stop-color="#c590dd"></stop><stop offset="1" stop-color="#c18dd9"></stop></linearGradient><linearGradient x1="18.34279" y1="20.00737" x2="33.81146" y2="20.0071" gradientUnits="userSpaceOnUse" id="color-24"><stop offset="0" stop-color="#f49eb3"></stop><stop offset="0.423" stop-color="#e290a5"></stop><stop offset="0.773" stop-color="#d8889c"></stop><stop offset="1" stop-color="#d48598"></stop></linearGradient></defs><g fill="none" fill-rule="nonzero" stroke="none" stroke-width="none" stroke-linecap="butt" stroke-linejoin="none" stroke-miterlimit="10" stroke-dasharray="" stroke-dashoffset="0" font-family="none" font-weight="none" font-size="none" text-anchor="none" style="mix-blend-mode: normal"><path transform="scale(5.33333,5.33333)" d="M24,4c5.52,0 10.52,2.24 14.14,5.86l0.002,-0.002c3.903,3.903 5.855,9.023 5.855,14.142h0.003c0,5.52 -2.24,10.52 -5.86,14.14l0.002,0.002c-3.903,3.903 -9.023,5.855 -14.142,5.855v0.003c-5.52,0 -10.52,-2.24 -14.14,-5.86l-0.002,0.002c-3.903,-3.903 -5.855,-9.023 -5.855,-14.142h-0.003c0,-5.52 2.24,-10.52 5.86,-14.14l-0.002,-0.002c3.90224,-3.90224 9.021,-5.85424 14.139,-5.855z" id="strokeMainSVG" fill="#ed6f30" stroke="#ed6f30" stroke-width="2" stroke-linejoin="round"></path><g transform="scale(5.33333,5.33333)" stroke="none" stroke-width="1" stroke-linejoin="miter"><path d="M24,4l-1,1v19h2.414l12.726,-12.726v-1.414c-3.62,-3.62 -8.62,-5.86 -14.14,-5.86z" fill="url(#color-1)"></path><path d="M38.142,9.858l-14.142,14.142l1,1h17.997l1,-1c0,-5.119 -1.952,-10.239 -5.855,-14.142z" fill="url(#color-2)"></path><path d="M44,24h-20v1.414l12.726,12.726h1.414c3.62,-3.62 5.86,-8.62 5.86,-14.14z" fill="url(#color-3)"></path><path d="M38.142,38.142l-14.142,-14.142l-1,1v17.997l1,1c5.119,0 10.239,-1.952 14.142,-5.855z" fill="url(#color-4)"></path><path d="M24,44v-20h-1.414l-12.726,12.726v1.414c3.62,3.62 8.62,5.86 14.14,5.86z" fill="url(#color-5)"></path><path d="M9.858,38.142l14.142,-14.142l-1,-1h-17.997l-1,1c0,5.119 1.952,10.239 5.855,14.142z" fill="url(#color-6)"></path><path d="M4,24h20v-1.414l-12.726,-12.726h-1.414c-3.62,3.62 -5.86,8.62 -5.86,14.14z" fill="url(#color-7)"></path><path d="M9.858,9.858l14.142,14.142v-19.997c-5.119,0 -10.239,1.952 -14.142,5.855z" fill="url(#color-8)"></path><path d="M24,10l-1,1l-0.004,13h2.418l8.484,-8.484v-1.414c-2.534,-2.534 -6.034,-4.102 -9.898,-4.102z" fill="url(#color-9)"></path><path d="M33.899,14.101l-9.899,9.899l1,1h11.998l1,-1c0,-3.584 -1.366,-7.167 -4.099,-9.899z" fill="url(#color-10)"></path><path d="M38,24h-14v1.414l8.484,8.484h1.414c2.534,-2.534 4.102,-6.034 4.102,-9.898z" fill="url(#color-11)"></path><path d="M33.899,33.899l-9.899,-9.899l-1,1v11.998l1,1c3.584,0 7.167,-1.366 9.899,-4.099z" fill="url(#color-12)"></path><path d="M24,38v-14h-1.414l-8.484,8.484v1.414c2.534,2.534 6.034,4.102 9.898,4.102z" fill="url(#color-13)"></path><path d="M14.101,33.899l9.899,-9.899l-1,-1h-11.998l-1,1c0,3.584 1.366,7.167 4.099,9.899z" fill="url(#color-14)"></path><path d="M10,24h14v-1.414l-8.484,-8.484h-1.414c-2.534,2.534 -4.102,6.034 -4.102,9.898z" fill="url(#color-15)"></path><path d="M14.101,14.101l9.899,9.899v-13.998c-3.584,0 -7.167,1.366 -9.899,4.099z" fill="url(#color-16)"></path><path d="M24,16l-1.004,1.004v6.996h2.418l4.242,-4.242v-1.414c-1.448,-1.448 -3.448,-2.344 -5.656,-2.344z" fill="url(#color-17)"></path><path d="M29.657,18.343l-5.657,5.657l1,1h5.999l1,-1c0,-2.048 -0.781,-4.096 -2.342,-5.657z" fill="url(#color-18)"></path><path d="M32,24h-8v1.414l4.242,4.242h1.414c1.448,-1.448 2.344,-3.448 2.344,-5.656z" fill="url(#color-19)"></path><path d="M29.657,29.657l-5.657,-5.657l-1,1l-0.004,5.995l1.004,1.004c2.048,0 4.096,-0.781 5.657,-2.342z" fill="url(#color-20)"></path><path d="M24,32v-8h-1.414l-4.242,4.242v1.414c1.448,1.448 3.448,2.344 5.656,2.344z" fill="url(#color-21)"></path><path d="M18.343,29.657l5.657,-5.657l-1,-1h-5.999l-1,1c0,2.048 0.781,4.096 2.342,5.657z" fill="url(#color-22)"></path><path d="M16,24h8v-1.414l-4.242,-4.242h-1.414c-1.448,1.448 -2.344,3.448 -2.344,5.656z" fill="url(#color-23)"></path><path d="M18.343,18.343l5.657,5.657v-7.999c-2.048,0 -4.096,0.781 -5.657,2.342z" fill="url(#color-24)"></path></g></g><g fill="none" fill-rule="nonzero" stroke="none" stroke-width="none" stroke-linecap="butt" stroke-linejoin="none" stroke-miterlimit="10" stroke-dasharray="" stroke-dashoffset="0" font-family="none" font-weight="none" font-size="none" text-anchor="none" style="mix-blend-mode: normal"><path d="M122.58852,90.56543l-4.22,24.05h-13.74l11.86,-68.25l23.91,0.05c7.37333,0 13.17,2.04667 17.39,6.14c4.22,4.09333 6.06333,9.43667 5.53,16.03c-0.5,6.68667 -3.29,12.03 -8.37,16.03c-5.07333,4 -11.54667,6 -19.42,6zM128.25852,57.75543l-3.75,21.42l11.44,0.1c3.68667,0 6.74667,-0.95333 9.18,-2.86c2.44,-1.90667 3.89333,-4.48667 4.36,-7.74c0.47333,-3.24667 -0.05,-5.84 -1.57,-7.78c-1.51333,-1.93333 -3.75333,-2.96333 -6.72,-3.09zM211.41852,103.69543l-1.74,10.92h-45.47l1.55,-9.84l24.23,-22.74c4.97333,-4.65333 8.27,-8.43333 9.89,-11.34c1.62667,-2.90667 2.23667,-5.75 1.83,-8.53c-0.65333,-3.88 -2.88667,-5.86667 -6.7,-5.96c-3,-0.06 -5.50667,0.98667 -7.52,3.14c-2.02,2.16 -3.24667,4.99 -3.68,8.49l-13.22,0.05c0.24667,-4.25333 1.51,-8.11333 3.79,-11.58c2.28667,-3.47333 5.32667,-6.17 9.12,-8.09c3.8,-1.92 7.90333,-2.86333 12.31,-2.83c6.34,0.12 11.27667,1.9 14.81,5.34c3.53333,3.44 5.09667,8.01667 4.69,13.73c-0.5,6.44 -4.29667,13.16 -11.39,20.16l-6.75,6.42l-13.97,12.56z" id="strokeMainSVG" fill="#ed6f30" stroke="#ed6f30" stroke-width="10.66667" stroke-linejoin="round"></path><g fill="#000000" stroke="none" stroke-width="1" stroke-linejoin="miter"><path d="M135.52852,90.61543l-12.94,-0.05l-4.22,24.05h-13.74l11.86,-68.25l23.91,0.05c7.37333,0 13.17,2.04667 17.39,6.14c4.22,4.09333 6.06333,9.43667 5.53,16.03v0c-0.5,6.68667 -3.29,12.03 -8.37,16.03c-5.07333,4 -11.54667,6 -19.42,6zM128.25852,57.75543l-3.75,21.42l11.44,0.1c3.68667,0 6.74667,-0.95333 9.18,-2.86c2.44,-1.90667 3.89333,-4.48667 4.36,-7.74c0.47333,-3.24667 -0.05,-5.84 -1.57,-7.78c-1.51333,-1.93333 -3.75333,-2.96333 -6.72,-3.09v0zM211.41852,103.69543l-1.74,10.92h-45.47l1.55,-9.84l24.23,-22.74c4.97333,-4.65333 8.27,-8.43333 9.89,-11.34c1.62667,-2.90667 2.23667,-5.75 1.83,-8.53v0c-0.65333,-3.88 -2.88667,-5.86667 -6.7,-5.96v0c-3,-0.06 -5.50667,0.98667 -7.52,3.14c-2.02,2.16 -3.24667,4.99 -3.68,8.49v0l-13.22,0.05c0.24667,-4.25333 1.51,-8.11333 3.79,-11.58c2.28667,-3.47333 5.32667,-6.17 9.12,-8.09c3.8,-1.92 7.90333,-2.86333 12.31,-2.83v0c6.34,0.12 11.27667,1.9 14.81,5.34c3.53333,3.44 5.09667,8.01667 4.69,13.73v0c-0.5,6.44 -4.29667,13.16 -11.39,20.16v0l-6.75,6.42l-13.97,12.56z"></path></g></g></svg>