<?xml version="1.0" encoding="UTF-8"?>
<svg id="Layer_2" data-name="Layer 2" xmlns="http://www.w3.org/2000/svg" viewBox="0 0 998.74 311.07" width="998.74" height="311.07">
  <defs>
    <style>
      .cls-1 {
        fill: #051b29;
      }

      .cls-2 {
        opacity: .67;
      }

      .cls-3 {
        fill: #7d4b1f;
      }

      .cls-4 {
        fill: #ed6f30;
      }

      .cls-5 {
        fill: #464646;
        stroke: #ed6f30;
        stroke-miterlimit: 10;
      }
    </style>
  </defs>
  <g id="_02" data-name="02">
    <g>
      <g class="cls-2">
        <path class="cls-1" d="M255.68,284.02h739.63l-70.91-128.49H318.51c0,52.14-24.61,98.63-62.83,128.49Z"/>
      </g>
      <g class="cls-2">
        <path class="cls-1" d="M283,54.1c22.21,27.86,35.51,63.12,35.51,101.44h304.98V54.1h-340.5Z"/>
      </g>
      <rect class="cls-5" x="338.12" y="85.93" width="44.63" height="44.63"/>
      <rect class="cls-5" x="392.22" y="85.93" width="44.63" height="44.63"/>
      <rect class="cls-5" x="446.32" y="85.93" width="44.63" height="44.63"/>
      <rect class="cls-5" x="500.42" y="85.93" width="44.63" height="44.63"/>
      <rect class="cls-5" x="554.52" y="85.93" width="44.63" height="44.63"/>
      <g>
        <g class="cls-2">
          <path class="cls-1" d="M155.54,298.9c-79.05,0-143.36-64.31-143.36-143.36S76.48,12.17,155.54,12.17s143.36,64.31,143.36,143.36-64.31,143.36-143.36,143.36Z"/>
        </g>
        <path class="cls-4" d="M302.04,207.75c5.84-16.33,9.03-33.91,9.03-52.22,0-20.49-3.99-40.07-11.23-58l-6.2,2.71c-1.18-2.94-2.45-5.83-3.81-8.67l6.2-2.71c-16.26-34.14-44.61-61.45-79.47-76.39l-2.46,6.3c-2.89-1.24-5.83-2.39-8.81-3.46l2.46-6.3C191.42,3.19,173.85,0,155.54,0c-20.49,0-40.07,3.99-58,11.23l2.71,6.2c-2.94,1.18-5.83,2.45-8.67,3.81l-2.71-6.2C54.73,31.3,27.41,59.64,12.48,94.5l6.3,2.46c-1.24,2.89-2.39,5.83-3.46,8.81l-6.3-2.46C3.19,119.65,0,137.23,0,155.54c0,20.49,3.99,40.07,11.23,58l6.2-2.71c1.18,2.94,2.45,5.83,3.81,8.67l-6.2,2.71c16.26,34.14,44.61,61.45,79.47,76.39l2.46-6.3c2.89,1.24,5.83,2.39,8.81,3.46l-2.46,6.3c16.33,5.84,33.91,9.03,52.22,9.03,20.49,0,40.07-3.99,58-11.23l-2.71-6.2c2.94-1.18,5.83-2.45,8.67-3.81l2.71,6.2c34.14-16.26,61.45-44.61,76.39-79.47l-6.3-2.46c1.24-2.89,2.39-5.83,3.46-8.81l6.3,2.46ZM287.24,212.13c-3.43,7.95-7.56,15.53-12.31,22.67-.01.02-.03.04-.04.06-1.16,1.74-2.36,3.45-3.59,5.13-.05.07-.1.14-.16.22-1.22,1.66-2.47,3.28-3.75,4.88-.07.08-.13.16-.2.25-1.29,1.6-2.61,3.17-3.96,4.71-.06.06-.11.13-.17.19-1.38,1.56-2.79,3.1-4.24,4.6,0,0-.02.02-.02.02-4.41,4.58-9.12,8.87-14.09,12.83-.07.05-.13.11-.2.16-1.58,1.26-3.19,2.48-4.83,3.67-.13.09-.26.19-.39.28-1.6,1.16-3.24,2.29-4.89,3.38-.16.11-.32.21-.48.31-1.65,1.08-3.33,2.14-5.03,3.15-.15.09-.3.18-.46.27-1.73,1.02-3.48,2.02-5.25,2.97-.11.06-.21.11-.32.17-1.83.98-3.69,1.93-5.57,2.83-2.84,1.36-5.73,2.63-8.67,3.81-.94.38-1.89.74-2.85,1.1-.11.04-.22.08-.32.12-.88.33-1.77.65-2.67.96-.18.06-.36.13-.55.19-.84.29-1.69.57-2.54.85-.24.08-.48.16-.72.23-.81.26-1.62.51-2.43.75-.29.09-.57.17-.86.26-.78.23-1.56.45-2.34.66-.33.09-.66.18-.99.27-.75.2-1.51.39-2.26.58-.37.09-.73.18-1.1.27-.73.18-1.46.35-2.2.51-.4.09-.81.18-1.21.26-.7.15-1.41.3-2.12.44-.44.09-.89.17-1.33.26-.68.13-1.36.25-2.04.37-.48.08-.96.16-1.44.24-.66.11-1.31.21-1.97.31-.51.08-1.03.15-1.55.22-.63.09-1.27.17-1.91.25-.55.07-1.11.13-1.66.19-.61.07-1.21.14-1.82.2-.6.06-1.21.11-1.81.16-.57.05-1.13.1-1.7.14-.66.05-1.32.09-1.98.13-.52.03-1.04.07-1.57.09-.76.04-1.52.06-2.28.09-.43.01-.86.04-1.29.05-1.2.03-2.4.05-3.6.05-1.9,0-3.79-.05-5.68-.12-.31-.01-.62-.02-.92-.04-1.82-.08-3.63-.2-5.44-.35-.29-.02-.59-.05-.88-.08-1.88-.17-3.75-.37-5.61-.61,0,0-.02,0-.03,0-1.95-.25-3.89-.55-5.82-.88-.09-.02-.19-.03-.28-.05-1.9-.33-3.79-.7-5.67-1.11-.12-.03-.25-.05-.37-.08-5.83-1.28-11.54-2.91-17.08-4.88-2.99-1.06-5.93-2.21-8.82-3.46-7.95-3.43-15.53-7.56-22.67-12.31-.02-.01-.04-.03-.07-.04-1.74-1.16-3.45-2.36-5.13-3.59-.07-.05-.14-.1-.21-.15-1.66-1.22-3.28-2.47-4.89-3.75-.08-.07-.16-.13-.24-.2-1.6-1.29-3.17-2.61-4.71-3.96-.06-.05-.12-.11-.18-.16-1.57-1.38-3.11-2.79-4.61-4.24,0,0-.01,0-.02-.01-4.58-4.41-8.87-9.12-12.84-14.1-.05-.06-.1-.13-.15-.19-1.26-1.58-2.48-3.19-3.67-4.83-.09-.13-.19-.26-.28-.39-1.16-1.61-2.29-3.24-3.38-4.9-.1-.16-.21-.31-.31-.47-1.09-1.66-2.14-3.33-3.16-5.04-.09-.15-.18-.3-.27-.45-1.03-1.73-2.02-3.48-2.97-5.25-.06-.1-.11-.21-.17-.31-.98-1.84-1.93-3.69-2.83-5.57h0c-1.36-2.84-2.63-5.73-3.81-8.67-.38-.95-.75-1.9-1.11-2.86-.04-.1-.08-.21-.12-.31-.33-.89-.65-1.78-.96-2.68-.06-.18-.13-.36-.19-.54-.29-.84-.57-1.69-.85-2.54-.08-.24-.16-.48-.23-.72-.26-.81-.51-1.62-.75-2.43-.09-.29-.17-.57-.26-.86-.23-.78-.45-1.56-.66-2.35-.09-.33-.18-.66-.27-.99-.2-.75-.39-1.51-.58-2.27-.09-.37-.18-.74-.27-1.1-.18-.73-.34-1.46-.51-2.19-.09-.4-.18-.81-.27-1.22-.15-.71-.3-1.42-.44-2.13-.09-.44-.17-.88-.25-1.32-.13-.68-.26-1.37-.37-2.06-.08-.48-.16-.96-.24-1.43-.11-.66-.21-1.32-.31-1.98-.08-.51-.15-1.03-.22-1.55-.09-.63-.17-1.27-.25-1.9-.07-.55-.13-1.11-.19-1.67-.07-.6-.14-1.21-.2-1.81-.06-.6-.11-1.21-.16-1.81-.05-.57-.1-1.13-.14-1.7-.05-.66-.09-1.32-.13-1.98-.03-.52-.07-1.04-.09-1.56-.04-.76-.06-1.52-.09-2.28-.01-.43-.04-.86-.05-1.29-.03-1.2-.05-2.4-.05-3.6,0-1.9.05-3.79.12-5.68.01-.31.02-.62.04-.92.08-1.82.2-3.63.35-5.44.02-.3.05-.59.08-.88.17-1.88.36-3.75.61-5.6,0-.01,0-.02,0-.03.25-1.95.55-3.89.88-5.82.02-.09.03-.18.04-.27.33-1.91.7-3.8,1.11-5.68.03-.12.05-.24.08-.37,1.28-5.83,2.91-11.54,4.88-17.09,1.06-2.98,2.21-5.92,3.46-8.81h0c3.43-7.95,7.56-15.54,12.31-22.67.01-.02.03-.04.04-.06,1.16-1.74,2.36-3.45,3.59-5.13.05-.07.1-.14.16-.22,1.22-1.66,2.47-3.28,3.75-4.88.07-.08.13-.16.2-.25,1.29-1.6,2.61-3.17,3.96-4.71.06-.06.11-.13.17-.19,1.38-1.56,2.79-3.1,4.24-4.6,0,0,.02-.02.02-.02,4.41-4.58,9.12-8.87,14.09-12.83.07-.05.13-.11.2-.16,1.58-1.26,3.19-2.48,4.83-3.67.13-.09.26-.19.39-.28,1.6-1.16,3.24-2.29,4.89-3.38.16-.11.32-.21.48-.31,1.65-1.08,3.33-2.14,5.03-3.15.15-.09.3-.18.46-.27,1.73-1.02,3.48-2.02,5.25-2.97.11-.06.21-.11.32-.17,1.83-.98,3.69-1.93,5.57-2.83,2.84-1.36,5.73-2.63,8.67-3.81.94-.38,1.89-.74,2.85-1.1.11-.04.22-.08.32-.12.88-.33,1.77-.65,2.67-.96.18-.06.36-.13.55-.19.84-.29,1.69-.57,2.54-.85.24-.08.48-.16.72-.23.81-.26,1.62-.51,2.43-.75.29-.09.57-.17.86-.26.78-.23,1.56-.45,2.34-.66.33-.09.66-.18.99-.27.75-.2,1.51-.39,2.26-.58.37-.09.73-.18,1.1-.27.73-.18,1.46-.35,2.2-.51.4-.09.81-.18,1.21-.26.7-.15,1.41-.3,2.12-.44.44-.09.89-.17,1.33-.26.68-.13,1.36-.25,2.04-.37.48-.08.96-.16,1.44-.24.66-.11,1.31-.21,1.97-.31.51-.08,1.03-.15,1.55-.22.63-.09,1.27-.18,1.91-.25.55-.07,1.11-.13,1.66-.19.61-.07,1.21-.14,1.82-.2.6-.06,1.21-.11,1.81-.16.57-.05,1.13-.1,1.7-.14.66-.05,1.32-.09,1.98-.13.52-.03,1.04-.07,1.57-.09.76-.04,1.52-.06,2.28-.09.43-.01.86-.04,1.29-.05,1.2-.03,2.4-.05,3.6-.05,1.9,0,3.79.05,5.68.12.31.01.62.02.92.04,1.82.08,3.63.2,5.44.35.29.02.59.05.88.08,1.88.17,3.75.37,5.61.61.01,0,.02,0,.03,0,1.95.25,3.89.55,5.82.88.09.02.19.03.28.05,1.9.33,3.79.7,5.67,1.11.12.03.25.05.37.08,5.83,1.28,11.53,2.91,17.08,4.88,2.99,1.06,5.93,2.21,8.82,3.46,7.95,3.43,15.53,7.56,22.67,12.31.02.01.04.03.07.04,1.74,1.16,3.45,2.36,5.13,3.59.07.05.14.1.21.15,1.66,1.22,3.28,2.47,4.88,3.75.08.07.16.13.24.2,1.6,1.29,3.17,2.61,4.71,3.96.06.05.12.11.18.16,1.57,1.38,3.1,2.79,4.61,4.24,0,0,.02.02.02.02,4.58,4.41,8.87,9.12,12.83,14.09.05.06.1.13.15.19,1.26,1.58,2.48,3.19,3.67,4.83.09.13.19.26.28.39,1.16,1.61,2.29,3.24,3.38,4.9.1.16.21.31.31.47,1.09,1.66,2.14,3.33,3.16,5.04.09.15.18.3.27.45,1.03,1.73,2.02,3.48,2.97,5.25.06.1.11.21.17.31.98,1.84,1.93,3.69,2.83,5.57h0c1.36,2.84,2.63,5.73,3.81,8.67.38.95.75,1.9,1.11,2.86.04.1.08.21.12.31.33.89.65,1.78.96,2.68.06.18.13.36.19.54.29.84.57,1.69.85,2.54.08.24.16.48.23.72.26.81.51,1.62.75,2.43.09.29.17.57.26.86.23.78.45,1.56.66,2.35.09.33.18.66.27.99.2.75.39,1.51.58,2.27.09.37.18.74.27,1.1.18.73.34,1.46.51,2.19.09.4.18.81.27,1.22.15.71.3,1.42.44,2.13.09.44.17.88.25,1.32.13.68.26,1.37.38,2.06.08.48.16.96.24,1.43.11.66.21,1.32.31,1.98.08.51.15,1.03.22,1.55.09.63.17,1.27.25,1.9.07.55.13,1.11.19,1.67.07.6.14,1.21.2,1.81.06.6.11,1.21.16,1.81.05.57.1,1.13.14,1.7.05.66.09,1.32.13,1.98.03.52.07,1.04.09,1.56.04.76.06,1.52.09,2.28.01.43.04.86.05,1.29.03,1.2.05,2.4.05,3.6,0,1.9-.05,3.79-.12,5.68-.01.31-.02.62-.04.92-.08,1.82-.2,3.63-.35,5.44-.02.3-.05.59-.08.88-.17,1.88-.36,3.75-.61,5.6,0,.01,0,.02,0,.03-.25,1.95-.55,3.89-.88,5.82-.02.09-.03.18-.04.27-.33,1.91-.7,3.8-1.11,5.68-.03.12-.05.24-.08.37-1.28,5.83-2.91,11.54-4.88,17.09-1.06,2.98-2.21,5.92-3.46,8.81h0Z"/>
      </g>
      <g>
        <path class="cls-4" d="M650.48,117.28c1.94,1.05,3.77,2.27,5.46,3.66l32.77-32.77c-6.05-5.56-12.96-10.2-20.49-13.72l-17.74,42.82Z"/>
        <path class="cls-4" d="M693.56,93.03l-32.77,32.77c1.39,1.69,2.62,3.52,3.66,5.46l42.82-17.74c-3.52-7.53-8.16-14.44-13.72-20.49Z"/>
        <path class="cls-4" d="M637.7,113.37c2.22.22,4.38.67,6.45,1.29l17.75-42.85c-7.6-2.78-15.73-4.44-24.2-4.8v46.35Z"/>
        <path class="cls-4" d="M667.07,137.59c.63,2.08,1.07,4.23,1.29,6.45h46.35c-.36-8.47-2.01-16.6-4.8-24.2l-42.85,17.75Z"/>
      </g>
      <path class="cls-4" d="M281.36,52.07c1.1,1.33,2.17,2.69,3.22,4.06h336.88v97.38h-302.98c0,.68.03,1.35.03,2.03s-.02,1.35-.03,2.03h307.04V52.07h-344.16Z"/>
      <path class="cls-3" d="M293.65,69.13c.84,1.34,1.66,2.69,2.47,4.06h303.71v-4.06h-306.17Z"/>
      <path class="cls-3" d="M318.05,143.31c.1,1.35.19,2.7.25,4.06h281.52v-4.06h-281.77Z"/>
      <path class="cls-4" d="M318.51,155.54c0,.68-.02,1.35-.03,2.03h604.72l68.67,124.43H258.22c-1.7,1.38-3.42,2.74-5.18,4.06h745.71l-73.14-132.54H318.48c0,.68.03,1.35.03,2.03Z"/>
    </g>
  </g>
</svg>