<?xml version="1.0" encoding="UTF-8"?>
<svg id="Layer_2" data-name="Layer 2" xmlns="http://www.w3.org/2000/svg" viewBox="0 0 998.74 311.07" width="998.74" height="311.07">
  <defs>
    <style>
      .cls-1 {
        fill: #051b29;
      }

      .cls-2 {
        opacity: .67;
      }

      .cls-3 {
        fill: #7d4b1f;
      }

      .cls-4 {
        fill: #ed6f30;
      }

      .cls-5 {
        fill: #464646;
        stroke: #ed6f30;
        stroke-miterlimit: 10;
      }
    </style>
  </defs>
  <g id="_02" data-name="02">
    <g>
      <g class="cls-2">
        <path class="cls-1" d="M743.06,284.02H3.44s70.91-128.49,70.91-128.49h605.89c0,52.14,24.61,98.63,62.83,128.49Z"/>
      </g>
      <g class="cls-2">
        <path class="cls-1" d="M715.75,54.1c-22.21,27.86-35.51,63.12-35.51,101.44h-304.98V54.1h340.5Z"/>
      </g>
      <rect class="cls-5" x="615.99" y="85.93" width="44.63" height="44.63" transform="translate(1276.61 216.5) rotate(-180)"/>
      <rect class="cls-5" x="561.89" y="85.93" width="44.63" height="44.63" transform="translate(1168.41 216.5) rotate(-180)"/>
      <rect class="cls-5" x="507.79" y="85.93" width="44.63" height="44.63" transform="translate(1060.21 216.5) rotate(-180)"/>
      <rect class="cls-5" x="453.69" y="85.93" width="44.63" height="44.63" transform="translate(952.02 216.5) rotate(-180)"/>
      <rect class="cls-5" x="399.59" y="85.93" width="44.63" height="44.63" transform="translate(843.82 216.5) rotate(-180)"/>
      <g>
        <g class="cls-2">
          <path class="cls-1" d="M843.21,298.9c79.05,0,143.36-64.31,143.36-143.36S922.26,12.17,843.21,12.17c-79.05,0-143.36,64.31-143.36,143.36s64.31,143.36,143.36,143.36Z"/>
        </g>
        <path class="cls-4" d="M703,205.29c1.06,2.98,2.21,5.92,3.46,8.81l-6.3,2.46c14.93,34.86,42.25,63.21,76.39,79.47l2.71-6.2c2.84,1.36,5.73,2.63,8.67,3.81l-2.71,6.2c17.93,7.23,37.51,11.23,58,11.23,18.31,0,35.89-3.19,52.22-9.03l-2.46-6.3c2.98-1.06,5.92-2.21,8.81-3.46l2.46,6.3c34.87-14.93,63.21-42.25,79.47-76.39l-6.2-2.71c1.36-2.84,2.63-5.73,3.81-8.67l6.2,2.71c7.23-17.93,11.23-37.51,11.23-58,0-18.31-3.19-35.89-9.03-52.22l-6.3,2.46c-1.06-2.98-2.21-5.92-3.46-8.81l6.3-2.46c-14.93-34.86-42.25-63.21-76.39-79.47l-2.71,6.2c-2.84-1.36-5.73-2.63-8.67-3.81l2.71-6.2C883.27,3.99,863.7,0,843.21,0c-18.31,0-35.89,3.19-52.22,9.03l2.46,6.3c-2.98,1.06-5.92,2.21-8.81,3.46l-2.46-6.3c-34.87,14.93-63.21,42.25-79.47,76.39l6.2,2.71c-1.36,2.84-2.63,5.73-3.81,8.67l-6.2-2.71c-7.23,17.93-11.23,37.51-11.23,58,0,18.31,3.19,35.89,9.03,52.22l6.3-2.46ZM711.5,212.13c-1.25-2.89-2.4-5.83-3.46-8.81-1.97-5.55-3.6-11.25-4.88-17.09-.03-.12-.05-.24-.08-.37-.41-1.88-.78-3.77-1.11-5.68-.02-.09-.03-.18-.04-.27-.33-1.93-.63-3.87-.88-5.82,0-.01,0-.02,0-.03-.24-1.86-.44-3.73-.61-5.6-.03-.29-.05-.59-.08-.88-.15-1.8-.27-3.62-.35-5.44-.01-.31-.02-.62-.04-.92-.07-1.88-.12-3.78-.12-5.68,0-1.2.02-2.4.05-3.6.01-.43.03-.86.05-1.29.03-.76.05-1.52.09-2.28.03-.52.06-1.04.09-1.56.04-.66.08-1.32.13-1.98.04-.57.09-1.13.14-1.7.05-.61.1-1.21.16-1.81.06-.61.13-1.21.2-1.81.06-.56.12-1.11.19-1.67.08-.64.17-1.27.25-1.9.07-.52.14-1.03.22-1.55.1-.66.2-1.32.31-1.98.08-.48.16-.96.24-1.43.12-.69.25-1.37.38-2.06.08-.44.17-.88.25-1.32.14-.71.29-1.42.44-2.13.09-.41.18-.81.27-1.22.16-.73.33-1.46.51-2.19.09-.37.18-.74.27-1.1.19-.76.38-1.51.58-2.27.09-.33.18-.66.27-.99.22-.78.43-1.57.66-2.35.08-.29.17-.57.26-.86.24-.81.49-1.63.75-2.43.08-.24.16-.48.23-.72.28-.85.56-1.7.85-2.54.06-.18.13-.36.19-.54.31-.9.63-1.79.96-2.68.04-.1.08-.21.12-.31.36-.96.73-1.91,1.11-2.86,1.18-2.94,2.44-5.83,3.81-8.67h0c.9-1.88,1.85-3.74,2.83-5.57.06-.1.11-.21.17-.31.95-1.77,1.95-3.52,2.97-5.25.09-.15.18-.3.27-.45,1.02-1.7,2.07-3.38,3.16-5.04.1-.16.2-.31.31-.47,1.1-1.66,2.22-3.29,3.38-4.9.09-.13.19-.26.28-.39,1.19-1.64,2.41-3.25,3.67-4.83.05-.06.1-.13.15-.19,3.97-4.98,8.25-9.69,12.84-14.09,0,0,.02-.02.02-.02,1.5-1.45,3.04-2.86,4.61-4.24.06-.05.12-.11.18-.16,1.54-1.35,3.11-2.68,4.71-3.96.08-.07.16-.13.24-.2,1.6-1.28,3.23-2.53,4.88-3.75.07-.05.14-.1.21-.15,1.68-1.23,3.39-2.43,5.13-3.59.02-.01.04-.03.07-.04,7.13-4.75,14.71-8.88,22.67-12.31,2.89-1.25,5.83-2.4,8.82-3.46,5.55-1.97,11.25-3.6,17.08-4.88.12-.03.25-.05.37-.08,1.88-.41,3.77-.78,5.67-1.11.09-.02.19-.03.28-.05,1.93-.33,3.87-.63,5.82-.88.01,0,.02,0,.03,0,1.86-.24,3.73-.44,5.61-.61.29-.03.59-.05.88-.08,1.8-.15,3.62-.27,5.44-.35.31-.01.62-.02.92-.04,1.88-.07,3.78-.12,5.68-.12,1.2,0,2.4.02,3.6.05.43.01.86.03,1.29.05.76.03,1.52.05,2.28.09.52.03,1.04.06,1.57.09.66.04,1.32.08,1.98.13.57.04,1.14.1,1.7.14.6.05,1.21.1,1.81.16.61.06,1.21.13,1.82.2.55.06,1.11.12,1.66.19.64.08,1.27.17,1.91.25.52.07,1.03.14,1.55.22.66.1,1.32.2,1.97.31.48.08.96.16,1.44.24.68.12,1.36.24,2.04.37.45.08.89.17,1.33.26.71.14,1.42.29,2.12.44.4.09.81.17,1.21.26.73.16,1.47.33,2.2.51.37.09.74.18,1.1.27.76.19,1.51.38,2.26.58.33.09.66.18.99.27.78.21,1.56.43,2.34.66.29.08.57.17.86.26.81.24,1.63.49,2.43.75.24.08.48.16.72.23.85.28,1.69.56,2.54.85.18.06.36.13.55.19.89.31,1.78.63,2.67.96.11.04.22.08.32.12.95.36,1.9.72,2.85,1.1,2.94,1.18,5.83,2.45,8.67,3.81,1.88.9,3.73,1.85,5.57,2.83.11.06.21.11.32.17,1.77.95,3.52,1.95,5.25,2.97.15.09.3.18.46.27,1.7,1.02,3.37,2.07,5.03,3.15.16.1.32.21.48.31,1.65,1.09,3.28,2.22,4.89,3.38.13.09.26.19.39.28,1.63,1.19,3.25,2.41,4.83,3.67.07.05.13.11.2.16,4.98,3.97,9.68,8.25,14.09,12.83,0,0,.02.02.02.02,1.45,1.5,2.86,3.04,4.24,4.6.06.06.11.13.17.19,1.35,1.54,2.67,3.11,3.96,4.71.07.08.13.16.2.25,1.28,1.6,2.53,3.23,3.75,4.88.05.07.1.14.16.22,1.23,1.68,2.43,3.39,3.59,5.13.01.02.03.04.04.06,4.75,7.13,8.88,14.72,12.31,22.67h0c1.25,2.89,2.4,5.83,3.46,8.81,1.97,5.55,3.6,11.25,4.88,17.09.03.12.05.24.08.37.41,1.88.78,3.77,1.11,5.68.02.09.03.18.04.27.33,1.93.63,3.87.88,5.82,0,.01,0,.02,0,.03.24,1.86.44,3.73.61,5.6.03.29.05.59.08.88.15,1.8.27,3.62.35,5.44.01.31.02.62.04.92.07,1.88.12,3.78.12,5.68,0,1.2-.02,2.4-.05,3.6-.01.43-.03.86-.05,1.29-.03.76-.05,1.52-.09,2.28-.03.52-.06,1.04-.09,1.56-.04.66-.08,1.32-.13,1.98-.04.57-.09,1.13-.14,1.7-.05.61-.1,1.21-.16,1.81-.06.61-.13,1.21-.2,1.81-.06.56-.12,1.11-.19,1.67-.08.64-.17,1.27-.25,1.9-.07.52-.14,1.03-.22,1.55-.1.66-.2,1.32-.31,1.98-.08.48-.16.96-.24,1.43-.12.69-.25,1.37-.37,2.06-.08.44-.17.88-.25,1.32-.14.71-.29,1.42-.44,2.13-.09.41-.18.81-.27,1.22-.16.73-.33,1.46-.51,2.19-.09.37-.18.74-.27,1.1-.19.76-.38,1.51-.58,2.27-.09.33-.18.66-.27.99-.22.78-.43,1.57-.66,2.35-.08.29-.17.57-.26.86-.24.81-.49,1.63-.75,2.43-.08.24-.16.48-.23.72-.28.85-.56,1.7-.85,2.54-.06.18-.13.36-.19.54-.31.9-.63,1.79-.96,2.68-.04.1-.08.21-.12.31-.36.96-.73,1.91-1.11,2.86-1.18,2.94-2.44,5.83-3.81,8.67h0c-.9,1.88-1.85,3.74-2.83,5.57-.06.1-.11.21-.17.31-.95,1.77-1.95,3.52-2.97,5.25-.09.15-.18.3-.27.45-1.02,1.7-2.07,3.38-3.16,5.04-.1.16-.2.31-.31.47-1.1,1.66-2.22,3.29-3.38,4.9-.09.13-.19.26-.28.39-1.19,1.64-2.41,3.25-3.67,4.83-.05.06-.1.13-.15.19-3.97,4.98-8.26,9.69-12.84,14.1,0,0-.01,0-.02.01-1.51,1.45-3.04,2.86-4.61,4.24-.06.05-.12.11-.18.16-1.54,1.35-3.11,2.68-4.71,3.96-.08.07-.16.13-.24.2-1.6,1.28-3.23,2.53-4.89,3.75-.07.05-.14.1-.21.15-1.68,1.23-3.39,2.43-5.13,3.59-.02.01-.04.03-.07.04-7.13,4.75-14.71,8.88-22.67,12.31-2.89,1.25-5.83,2.4-8.82,3.46-5.55,1.97-11.25,3.6-17.08,4.88-.12.03-.25.05-.37.08-1.88.41-3.77.78-5.67,1.11-.09.02-.19.03-.28.05-1.93.33-3.87.63-5.82.88,0,0-.02,0-.03,0-1.86.24-3.73.44-5.61.61-.29.03-.59.05-.88.08-1.8.15-3.62.27-5.44.35-.31.01-.62.02-.92.04-1.88.07-3.78.12-5.68.12-1.2,0-2.4-.02-3.6-.05-.43-.01-.86-.03-1.29-.05-.76-.03-1.52-.05-2.28-.09-.52-.03-1.04-.06-1.57-.09-.66-.04-1.32-.08-1.98-.13-.57-.04-1.14-.1-1.7-.14-.6-.05-1.21-.1-1.81-.16-.61-.06-1.21-.13-1.82-.2-.55-.06-1.11-.12-1.66-.19-.64-.08-1.27-.17-1.91-.25-.52-.07-1.03-.14-1.55-.22-.66-.1-1.32-.2-1.97-.31-.48-.08-.96-.16-1.44-.24-.68-.12-1.36-.24-2.04-.37-.45-.08-.89-.17-1.33-.26-.71-.14-1.42-.29-2.12-.44-.4-.09-.81-.17-1.21-.26-.73-.16-1.47-.33-2.2-.51-.37-.09-.74-.18-1.1-.27-.76-.19-1.51-.38-2.26-.58-.33-.09-.66-.18-.99-.27-.78-.21-1.56-.43-2.34-.66-.29-.08-.57-.17-.86-.26-.81-.24-1.63-.49-2.43-.75-.24-.08-.48-.16-.72-.23-.85-.28-1.69-.56-2.54-.85-.18-.06-.36-.13-.55-.19-.89-.31-1.78-.63-2.67-.96-.11-.04-.22-.08-.32-.12-.95-.36-1.9-.72-2.85-1.1-2.94-1.18-5.83-2.45-8.67-3.81-1.88-.9-3.73-1.85-5.57-2.83-.11-.06-.21-.11-.32-.17-1.77-.95-3.52-1.95-5.25-2.97-.15-.09-.3-.18-.46-.27-1.7-1.02-3.37-2.07-5.03-3.15-.16-.1-.32-.21-.48-.31-1.65-1.09-3.28-2.22-4.89-3.38-.13-.09-.26-.19-.39-.28-1.63-1.19-3.25-2.41-4.83-3.67-.07-.05-.13-.11-.2-.16-4.98-3.97-9.68-8.25-14.09-12.83,0,0-.02-.02-.02-.02-1.45-1.5-2.86-3.04-4.24-4.6-.06-.06-.11-.13-.17-.19-1.35-1.54-2.67-3.11-3.96-4.71-.07-.08-.13-.16-.2-.25-1.28-1.6-2.53-3.23-3.75-4.88-.05-.07-.1-.14-.16-.22-1.23-1.68-2.43-3.39-3.59-5.13-.01-.02-.03-.04-.04-.06-4.75-7.13-8.88-14.72-12.31-22.67h0Z"/>
      </g>
      <g>
        <path class="cls-4" d="M348.26,117.28c-1.94,1.05-3.77,2.27-5.46,3.66l-32.77-32.77c6.05-5.56,12.96-10.2,20.49-13.72l17.74,42.82Z"/>
        <path class="cls-4" d="M305.19,93.03l32.77,32.77c-1.39,1.69-2.62,3.52-3.66,5.46l-42.82-17.74c3.52-7.53,8.16-14.44,13.72-20.49Z"/>
        <path class="cls-4" d="M361.05,113.37c-2.22.22-4.38.67-6.45,1.29l-17.75-42.85c7.6-2.78,15.73-4.44,24.2-4.8v46.35Z"/>
        <path class="cls-4" d="M331.67,137.59c-.63,2.08-1.07,4.23-1.29,6.45h-46.35c.36-8.47,2.01-16.6,4.8-24.2l42.85,17.75Z"/>
      </g>
      <path class="cls-4" d="M717.38,52.07c-1.1,1.33-2.17,2.69-3.22,4.06h-336.88s0,97.38,0,97.38h302.98c0,.68-.03,1.35-.03,2.03s.02,1.35.03,2.03h-307.04V52.07h344.16Z"/>
      <path class="cls-3" d="M705.09,69.13c-.84,1.34-1.66,2.69-2.47,4.06h-303.71v-4.06h306.17Z"/>
      <path class="cls-3" d="M680.69,143.31c-.1,1.35-.19,2.7-.25,4.06h-281.52v-4.06h281.77Z"/>
      <path class="cls-4" d="M680.23,155.54c0,.68.02,1.35.03,2.03H75.54S6.87,281.99,6.87,281.99h733.65c1.7,1.38,3.42,2.74,5.18,4.06H0s73.14-132.54,73.14-132.54h607.11c0,.68-.03,1.35-.03,2.03Z"/>
    </g>
  </g>
</svg>