<?xml version="1.0" encoding="UTF-8"?>
<svg id="Layer_2" data-name="Layer 2" xmlns="http://www.w3.org/2000/svg" xmlns:xlink="http://www.w3.org/1999/xlink" viewBox="0 0 960.96 593.99" width="960.96px" height="593.99px">
  <defs>
    <style>
      .cls-1, .cls-2 {
        fill: none;
      }

      .cls-3 {
        fill: #f8963e;
      }

      .cls-4 {
        opacity: .35;
      }

      .cls-2 {
        stroke: #f8963e;
        stroke-linecap: round;
        stroke-linejoin: round;
        stroke-width: .9px;
      }

      .cls-5 {
        clip-path: url(#clippath);
      }

      .cls-6 {
        opacity: .5;
      }
    </style>
    <clipPath id="clippath">
      <path class="cls-1" d="M151.6,0C92.4,59.2,59.2,92.4,0,151.6v379.73h809.35c59.2-59.2,92.4-92.4,151.6-151.6V0H151.6Z"/>
    </clipPath>
  </defs>
  <g id="_03" data-name="03">
    <g>
      <g class="cls-4">
        <path class="cls-3" d="M151.6,0C92.4,59.2,59.2,92.4,0,151.6v379.73h809.35c59.2-59.2,92.4-92.4,151.6-151.6V0H151.6Z"/>
      </g>
      <g>
        <path class="cls-3" d="M960.96,379.73V0H151.6C92.4,59.2,59.2,92.4,0,151.6v379.73h809.35c59.2-59.2,92.4-92.4,151.6-151.6ZM13.44,517.89V157.17L157.17,13.44h4.18l59.79,59.79h294.48l59.79-59.79h22.3l-59.79,59.79h33.53l59.79-59.79h21.33l-59.79,59.79h33.53l59.79-59.79h21.33l-59.79,59.79h33.53l59.79-59.79h21.33l-59.79,59.79h33.53l59.79-59.79h21.33l-59.79,59.79h33.53l59.79-59.79h96.84v360.72l-143.73,143.73H13.44Z"/>
        <path class="cls-3" d="M829.44,531.33h88.61c16.75-16.75,26.15-26.15,42.9-42.9v-88.61l-131.51,131.51Z"/>
        <path class="cls-3" d="M357.63,593.99l62.66-62.66H.5s62.66,62.66,62.66,62.66h294.48Z"/>
      </g>
      <g class="cls-5">
        <g class="cls-6">
          <rect class="cls-2" x="12.98" y="-44.55" width="941.93" height="604.58"/>
          <line class="cls-2" x1="12.98" y1="505.07" x2="954.92" y2="505.07"/>
          <line class="cls-2" x1="12.98" y1="450.11" x2="954.92" y2="450.11"/>
          <line class="cls-2" x1="12.98" y1="395.15" x2="954.92" y2="395.15"/>
          <line class="cls-2" x1="12.98" y1="340.18" x2="954.92" y2="340.18"/>
          <line class="cls-2" x1="12.98" y1="285.22" x2="954.92" y2="285.22"/>
          <line class="cls-2" x1="12.98" y1="230.26" x2="954.92" y2="230.26"/>
          <line class="cls-2" x1="12.98" y1="175.3" x2="954.92" y2="175.3"/>
          <line class="cls-2" x1="12.98" y1="120.34" x2="954.92" y2="120.34"/>
          <line class="cls-2" x1="12.98" y1="65.37" x2="954.92" y2="65.37"/>
          <line class="cls-2" x1="12.98" y1="10.41" x2="954.92" y2="10.41"/>
          <line class="cls-2" x1="896.04" y1="-44.55" x2="896.04" y2="560.03"/>
          <line class="cls-2" x1="837.17" y1="-44.55" x2="837.17" y2="560.03"/>
          <line class="cls-2" x1="778.3" y1="-44.55" x2="778.3" y2="560.03"/>
          <line class="cls-2" x1="719.43" y1="-44.55" x2="719.43" y2="560.03"/>
          <line class="cls-2" x1="660.56" y1="-44.55" x2="660.56" y2="560.03"/>
          <line class="cls-2" x1="601.69" y1="-44.55" x2="601.69" y2="560.03"/>
          <line class="cls-2" x1="542.82" y1="-44.55" x2="542.82" y2="560.03"/>
          <line class="cls-2" x1="483.95" y1="-44.55" x2="483.95" y2="560.03"/>
          <line class="cls-2" x1="425.08" y1="-44.55" x2="425.08" y2="560.03"/>
          <line class="cls-2" x1="366.21" y1="-44.55" x2="366.21" y2="560.03"/>
          <line class="cls-2" x1="307.34" y1="-44.55" x2="307.34" y2="560.03"/>
          <line class="cls-2" x1="248.46" y1="-44.55" x2="248.46" y2="560.03"/>
          <line class="cls-2" x1="189.59" y1="-44.55" x2="189.59" y2="560.03"/>
          <line class="cls-2" x1="130.72" y1="-44.55" x2="130.72" y2="560.03"/>
          <line class="cls-2" x1="71.85" y1="-44.55" x2="71.85" y2="560.03"/>
        </g>
      </g>
    </g>
  </g>
</svg>